<mxfile host="app.diagrams.net" modified="2023-10-26T20:12:04.845Z" agent="Mozilla/5.0 (Windows NT 10.0; Win64; x64) AppleWebKit/537.36 (KHTML, like Gecko) Chrome/118.0.0.0 Safari/537.36" etag="e1KiPIA4UhSKrZrA5uSu" version="22.0.8" type="device">
  <diagram name="Page-1" id="mfk0OehNxTM_5RH5_9Mx">
    <mxGraphModel dx="733" dy="579" grid="1" gridSize="10" guides="1" tooltips="1" connect="1" arrows="1" fold="1" page="1" pageScale="1" pageWidth="827" pageHeight="1169" background="#D7DED5" math="0" shadow="0">
      <root>
        <mxCell id="0" />
        <mxCell id="1" parent="0" />
        <mxCell id="V3YRm4ihOELG3l42EoA2-1" value="Actor" style="shape=umlActor;verticalLabelPosition=bottom;verticalAlign=top;html=1;outlineConnect=0;fontSize=16;" vertex="1" parent="1">
          <mxGeometry x="30" y="60" width="30" height="60" as="geometry" />
        </mxCell>
        <mxCell id="V3YRm4ihOELG3l42EoA2-7" style="edgeStyle=none;curved=1;rounded=0;orthogonalLoop=1;jettySize=auto;html=1;fontSize=12;startSize=8;endSize=8;" edge="1" parent="1" source="V3YRm4ihOELG3l42EoA2-2" target="V3YRm4ihOELG3l42EoA2-5">
          <mxGeometry relative="1" as="geometry" />
        </mxCell>
        <mxCell id="V3YRm4ihOELG3l42EoA2-2" value="Website UI" style="rounded=1;whiteSpace=wrap;html=1;fontSize=16;" vertex="1" parent="1">
          <mxGeometry x="200" y="60" width="120" height="60" as="geometry" />
        </mxCell>
        <mxCell id="V3YRm4ihOELG3l42EoA2-3" value="" style="endArrow=classic;html=1;rounded=0;fontSize=12;startSize=8;endSize=8;curved=1;" edge="1" parent="1" target="V3YRm4ihOELG3l42EoA2-2">
          <mxGeometry width="50" height="50" relative="1" as="geometry">
            <mxPoint x="60" y="100" as="sourcePoint" />
            <mxPoint x="110" y="50" as="targetPoint" />
          </mxGeometry>
        </mxCell>
        <mxCell id="V3YRm4ihOELG3l42EoA2-4" value="Interaction" style="text;html=1;strokeColor=none;fillColor=none;align=center;verticalAlign=middle;whiteSpace=wrap;rounded=0;fontSize=16;rotation=-5;" vertex="1" parent="1">
          <mxGeometry x="90" y="70" width="80" height="30" as="geometry" />
        </mxCell>
        <mxCell id="V3YRm4ihOELG3l42EoA2-9" style="edgeStyle=none;curved=1;rounded=0;orthogonalLoop=1;jettySize=auto;html=1;exitX=0.5;exitY=1;exitDx=0;exitDy=0;entryX=1;entryY=0.5;entryDx=0;entryDy=0;fontSize=12;startSize=8;endSize=8;" edge="1" parent="1" source="V3YRm4ihOELG3l42EoA2-5" target="V3YRm4ihOELG3l42EoA2-6">
          <mxGeometry relative="1" as="geometry">
            <Array as="points">
              <mxPoint x="550" y="200" />
            </Array>
          </mxGeometry>
        </mxCell>
        <mxCell id="V3YRm4ihOELG3l42EoA2-10" value="Changes" style="edgeLabel;html=1;align=center;verticalAlign=middle;resizable=0;points=[];fontSize=16;" vertex="1" connectable="0" parent="V3YRm4ihOELG3l42EoA2-9">
          <mxGeometry x="0.012" y="-14" relative="1" as="geometry">
            <mxPoint as="offset" />
          </mxGeometry>
        </mxCell>
        <mxCell id="V3YRm4ihOELG3l42EoA2-5" value="JavaScript" style="rounded=1;whiteSpace=wrap;html=1;fontSize=16;" vertex="1" parent="1">
          <mxGeometry x="480" y="60" width="120" height="60" as="geometry" />
        </mxCell>
        <mxCell id="V3YRm4ihOELG3l42EoA2-11" style="edgeStyle=none;curved=1;rounded=0;orthogonalLoop=1;jettySize=auto;html=1;exitX=0.5;exitY=0;exitDx=0;exitDy=0;entryX=0.5;entryY=1;entryDx=0;entryDy=0;fontSize=12;startSize=8;endSize=8;" edge="1" parent="1" source="V3YRm4ihOELG3l42EoA2-6" target="V3YRm4ihOELG3l42EoA2-2">
          <mxGeometry relative="1" as="geometry" />
        </mxCell>
        <mxCell id="V3YRm4ihOELG3l42EoA2-12" value="Style Response" style="edgeLabel;html=1;align=center;verticalAlign=middle;resizable=0;points=[];fontSize=16;" vertex="1" connectable="0" parent="V3YRm4ihOELG3l42EoA2-11">
          <mxGeometry x="-0.05" y="1" relative="1" as="geometry">
            <mxPoint as="offset" />
          </mxGeometry>
        </mxCell>
        <mxCell id="V3YRm4ihOELG3l42EoA2-6" value="CSS Style" style="rounded=1;whiteSpace=wrap;html=1;fontSize=16;" vertex="1" parent="1">
          <mxGeometry x="200" y="160" width="120" height="60" as="geometry" />
        </mxCell>
        <mxCell id="V3YRm4ihOELG3l42EoA2-8" value="Client Interaction" style="text;html=1;align=center;verticalAlign=middle;resizable=0;points=[];autosize=1;strokeColor=none;fillColor=none;fontSize=16;" vertex="1" parent="1">
          <mxGeometry x="330" y="58" width="140" height="30" as="geometry" />
        </mxCell>
        <mxCell id="V3YRm4ihOELG3l42EoA2-13" value="" style="shape=image;verticalLabelPosition=bottom;labelBackgroundColor=default;verticalAlign=top;aspect=fixed;imageAspect=0;image=data:image/png,iVBORw0KGgoAAAANSUhEUgAAAq0AAAHYCAYAAABnW9FEAAAgAElEQVR4Aey9z6t0TVbn239J8opW2UphW9iFLXX90dhdFqVFW9ZLgTY8vlxQ5HoHcrkoiAp9HrpRkasDbaSsh0ONHDk4jyMnNTuDQ03eQVL/zr7EjxWx1oq1ImJn7syzM8938JCZe8eOWD8+seK7I/eT598dDoflLv998Y+WL//xD5Zf/9//unzpZB9/d/nK3/xo+c73frT88m9uF6cf/81/Xn71Lz9fvvZ//q4R+8uMuUmO/9P3l298L8TjnJiqOO44T5vE7GT2VJzQjzFXECMwCgbAABh4Swz8u6s4+yv/vPy37/1o+cbvJ5H2hT/44fKd7/1w+cp/Wgvb++WXo2hKQjKIyfLvb76/fIEv7JsIrMsIyC/9abKb4iFzcJkx5RhG3D/55vLvP/u35et//6Pl0xzXb/3lvy0/91+/WcXCJjFVY2/S5yvFjPOG95UTxAKxAANgAAyAgQswcB3R+pv/GsXl1343CaAk2p6Xr/xHJWCGDkK0DsXnMIZWzH9t+dKffl5vAPjNAN9V3URgqvE36ROi9TJcqFydxBb6QG7AABgAA2BgGwauIlp/7Hd/wL5i/+rys//j1K+YSbT6u7S0i1l2YIUAq7u9BaCv/NXy1f/5w+Vb3027n5/+3Q+WX/gN2l1kYujTP1x+7i9+uHw7tPvuj5Zv/NGfLz+2ZhEv4oztDgvb6Cv3FWPS7uj/zn1+9/Pl63/8V8sXfmIlHD/zD8vXoi2fL//5O7+9fPJJuP6nlk++/CfLVx7+uT5eUXwgWw/Lj/3mvy7fytf+8m/+Wr2zzHGN8frej5Zv/92/LV9hu7br8vRTy4/9139a/vNffp7iH/r7639bvvxL/yGPtyJma3KGtjWfiAViAQbAABgAA6/MwGVFaxE5nlAzRGQ3INuK1k++/i/Lr2exKkUuibIqhj412v3qd746D/AwFmvH9HdHP/3rf5KPSnRjelgO//Gf8rOqP1q+8Qd/mEWrIXyLD9nWX/j+8o0Yl8+XX/4tEvqH5VCO67x/vvzyb6SYrRGtX/idH2RhrPorj4RsmKdRrHB+nnnECrECA2AADICBDRm4UdGqxEvY6fvT9xIMLbCaoP3h8vN/l/r59K//efnpn827dj/LdxerGPrO9z5ffvV3wjO5v7b8zJ/lr9L1mM0YhvA7HBYSbKNnWrtj/tI/L98Mfv+NtP2r8T+Ofb784tftscsOs7D128uX/1eN6af/+MPla3/0D8tPf4V2MnNfLKY/w4TpN37/91jsv7r87F+Evj5ffvW//14SwJ98dfnCf//B8u1g7//6B7lDzfo0/8PcF/9q+dV8w/Ctv/jb5Qtf/Km0C/wLf7X84p+SOL9MnuxYrYkr2iKGYAAMgAEwAAa2YuCyojUKo28mQfTdf12+FL52/uLfLr/6vR8tn54k+GintQqsskOq+xuJoV/4/vLr8Wtt/1GDw6GKoW/8QRVmX/j98B/JDKEshKAP6axo7Y1ZbIg+tPGwBbFv0+Enfnf5mT9+Ll+/U1z/28M/LF+IjwsclkOJ6efLt/4+jfmtP30vReihk6NoK+0oZ1tKn+o4xfK3/i3Fmvih4+L1MnnaapKhnw53Io9oB1bAABgAA2DAZ+CiopXEGQmg9rUnGC2jSRBNXDcSQ/k/h/V/vqmKIf6TV0UwaqE8uQBTXGxhOTcm9dHGNIlJu28rpurYT3x7+feffn/5z/mnvkL/3/p//iTtpJaYVtEqd1m5sG2FdLJVidPSpzqeY1liXR4FUPbGdnMxQyGwYodj4AIMgAEwAAZug4G3K1q//i/p6+rv/XD5+V/yknUZMUSC0xaWc2P+5P+dHlH49v/75+yrec+PU46zxyBIMDKB+TO/kh9PCPH7hfCVfR4j76R/53vPy899eWJc1qf1eAD9J77vfPfflp/9otffXMyKjWQrXmveEAvEAgyAATAABnbOwEVFaxQJ9J988q4kiRC+czkvJk7ZaQ2iVD2bGZLyyZ8vv5j/1318pvXL+T9V/eyfLD/3Z9/P/2P+MmKIROu3/+yvlh+jr94LKJNj/ua/pt9T/e4Pl1/+ND87WvrwxJ1z/Df+ZfnGn35/+dL/8Wv1P2H99B8tP//Xebf0f/zt8knoWwjMn1q+8PvPyYa//9flSz9NfVf7v/Xw/fqssGdb6dPJ05f/afl6fgQiPNP6kz8dcvlTyye/8FfLV//4H/J/OKtjcq7KLu2JO+LzXJLveEXMwAAYAANgAAxcioHLi9b87CjtKiYhEXbnTkkqiVbjq2faDSRxxEQp/wqd7AgB/fHf+UH5IX3epj4ycBkx9OOfPRu/iUpfj8+O+bvLV0hUNs+1Ul+TMS6PShhx/e7z8hXaSS0CM/f/ye8VGz796++XZ18/+Q36Gay2Px7/CPUwTz+1/PQffW7nqeR8NmaT8SCG8IpdBzAABsAAGAADu2Hg8qJ1sz8sEATHCtEaIPulv42/7Ul/4SkIUyma6u9/Uptv/90Plq/+1m/nBF1IDH3yzeVL/9cPlm/+Ixd1JDRXjPnJby8/80fhT9XyfsJ76mtSpH3yzeUnf+dflq/9f1UcfvqPny9fD7uv/BcEtGgNMf7yPyxfo//dz/5T1o/9F/m7qnRTIOOf7Rvm6T8sX/j0X5av/Z36a13/hX4XdkXMUHx2U3wudSeOfifnPeYC5gIYAAM3xsDlReuNBQQLHhY8MAAGwAAYAANgAAzsjwGIVohq3GmCATAABsAAGAADYGD3DEC0ngtp+cpcf0WvPr/Cfwai//BFX83brxM/H3ZujHD97gsBdhT2t6OAnCAnYAAMgAHJAETruYIKohWC7FyGcD0YAgNgAAyAATAwZACiFZAMIcGdnrzTQzwQDzAABsAAGAAD12cAohWiFaIVDIABMAAGwAAYAAO7ZwCiFZDuHlLczV7/bhYxR8zBABgAA2BgbwxAtEK0QrSCATAABsAAGAADYGD3DEC0AtLdQ7q3Oz3Yg90HMAAGwAAYAAPXZwCiFaIVohUMgAEwAAbAABgAA7tnAKIVkO4eUtzNXv9uFjFHzMEAGAADYGBvDLxh0fqwPB2Py8uHd33R9tnj8nI8Lkf69/y4vIPQFTF7+HhcjpeKS47/03sUj70Vj83sef+0HI8vy+NnyPFmMUWNEjUKccXcAgP3wQBE60i0suJ/UXHGxrm1yXVWXEaidHT+hLi9+/CyHI9Py8MJ195abm7CXohWCCzMRTAABsDABAPXE61xYQo7lqfuqKSd0bLjSTuf7HW4ayoCMrnTyq45S5yxfkZCIo7D/Eo+nxq3y99dnRWXkSgdnV8RV4o7ROvlmaBYT71CtGKxOmEeT7GFfsEWGLgrBq4mWqOw+fi4PD5PfCU/Adn5wmPnolV93Z6E7D6FK0TrzkTgxPzZ1YIP0XpXi8qu2Lq1uQB7MRfAQJeBK4nWJBDDc4lRbCpBdkqRG4rWsrNLz6Pqr4OraE19ee2qIBmLs9Rn3Q3WY9a+ej6b4zg7jtL243L8+GAk/F28Wah2tTcONZ6qrZGrZsywK2y0G/rY7CZTDo5LeYaV+Z2Ee25jjZfbVj+5yNe5qWOl9utyRTEodpZCk+On7KP2xTaVpxp/zkhltBdL/5z22fCxG7NgS+qjzN2SM6OvEgPug/G+GTPkgucqxzDESLVtvk1R591+LNvytW0ODZvF9Tqu3PYLxUyMP7IP5/05gdggNmDglhm4jmiNAjIvcnGh0EV+PUT2Ip/7CWMIUUBCjC+0WRA8vzDBZQsOSrApJmkxyQsgX1STyOJjzvlpjtMssL5PWkA+fFTxzoKe28pFVT2eF2cWS8sn016Ky+i18UvFKJ+PYq/YkXMnnkd+WJ6UUEy2Kt8P+cbp7Gda29hEThoO5vJk82z5qeLjxZdu2krMwnUPy5P+PIxZ9jOI1XJtf57QfDFfs11CKMZjPE8UMyVmm2vHOe+yGXPFx52IbbahzhHiid1oZaEvmT0jZl6Ocdy4QZ/IIeKGuIGBm2XgKqI1LhxlwTtjIWag2Yt8p2BZC561Q9i0q332FkD73Gm+tn0ZC16001hwO/ZXEdH2R6JViInDYRG2OAJTtGE5quPVGDbHnD5Lu3y+CqbU19SY+VouMEK/q9lxfIo2KPHb9D2Zp+a6OOZp/BwOOb9lznXir31rYpZFqxK3tr2jcRy7mhjldiq2tOur81lYCb4o+6OdxXYVzzjumptKx36KtxpH3zyeFrNRTHFe5F/zjM83K06QV8xti4EriNa0UHAxNCU4BsVm9QKQF7Nqh1rAaDy16PGg+XY7fdFitlI8JDHU//raEkzJVs8WOQG0LymehgimuHTEnu6Lx2z4vsmLtJNESM1bOj83ph2L1eywGAh/mhuEVtTM5sm2ybZf2GDZNoqpdU05psfUn1P8bXtV7kqf+bhnlydaiwgc9CvGUfZyYZrHJzG52od8vSWaZV/KhmyfbLPGJ7QdMi8YQLwQLzBwrwxcXrQ2C9JhOTSL/XrARgtAEgta+LVf4bULkL3gBABcoUSLYXneT417imhVC3byt9rv2kJfTfIxPfvYGKn/2xatFKPy3GjOh87xiJ35ya5EaoyzjOFsnmybfBa7NlpzzlnUxzGzbbDtHczjzKG+AUn1gMctx5Xx6fk7tJ/lJLR9+fC4POUd3HjtxBhlbM/+ckNHPmwYMydvxSacx04iGAADb4iBi4tWTzzK570Gi52RkN6imcakBST33Sw49sLi7eyFRWIkQLQ4OnVhsceRC7ndJviq/Mp+j75eT/FUMVNx92Lu2zKR1yYv6hrnvB4z2VZFfYq9ikX2x/PjlHzxvuJ7JYK0nXUMaRvvx2tTj6sYqTz1GOZ9pDFHMZN20vW2vSfa1YhsyTqNqV+n7Gf8pGe7U99BOMfc8Js7HUf9mfVl20KPGmwYM20DPkOggAEw8IYZuLBotYt3KPhxwWieWRsseixR/qKZxtQirV3IbdtSv7Z48wVIXmTXLIDMF70A2uOoMZqFPsdOHff80WN47YRtqu94Li/k9JWraN/xsbaz81DOO0JB2u+JHKdvy48pWy0+0xhP75MNzY2LN5Y6bvIc27S/9FBi49qcbGrmgGg/GzM7hqa9on8/VjJG2Q7r1wPUDYD0e539T++DH0lURts/PsQaJG2xbObH8pjNPNfHt4wZHx/vJQOIB+IBBt4aA5cVrWphFsHNC3LzVeFw4UuQ+osmLYK061EfRwi7u3U8Y2HJAslbyKRQUpPlZIGh+iFBrxbs5C+331q0k09CrDR2UXzkz1Sl/m2xXvOm+88xFL/A0PpTr7fOkT0sX5yBKdFKN0HMfhLT1p/qpXON+LDsGx+LXMRHESwf1uWp8JnzFpj1eOzFlXiR18pfD0h2j2JmzJPydbjlbz9eacx6XZpTL8vLatE6m3Pii/36AeVf1IO+3SXWRt1q5862MStj83mB99htAwNg4A0ycFHRmhakx+WdGVgtgCYXjdxXWijq4icLe+6bnjENAtAQP2kBlc+fFtEgxpFt6JlJKQjq/1ym8+mViQIzDq3fll32nx1lC7Lz/GaICwkYsiv4qHPTLrytXTHGbMGn38SM1yqRLfPh9FXiofLFxYSRt9C3tr/8j3nKedxVs8VDtI2JwhQXj6WR7eymyBXBp+Qp2JOuazgrcRvYNvRR2xXG1DHTn9OY/fnXs0uOGX2LOebzJLcZMiX7SnOktZfmU53bdB0fs2ezOjeMa2tDYO70mKnxZ/OPdhA1YAAM3BkDFxWt64QLCjPidaMMGLtvyOWN5vLOCjw4BIdgAAzcEwMQrVikcCd6JgPtri+K5D0VSfgCnsEAGAAD+2AAovVMwQKQ9wHya+Vh+rEKcIabIzAABsAAGAADZzEA0QqAzgLotcTia49Lz0nSc72vbQ/Gf9s3T8g/8g8GwMBbYACiFaIVohUMgAEwAAbAABgAA7tnAKIVkO4e0rdw9wgfsUsCBsAAGAADYKDPAEQrRCtEKxgAA2AADIABMAAGds8ARCsg3T2kuPPs33kiPogPGAADYAAMvAUGIFohWiFawQAYAANgAAyAATCwewYgWgHp7iF9C3eP8BG7JGAADIABMAAG+gxAtEK0QrSCATAABsAAGAADYGD3DEC0AtLdQ4o7z/6dJ+KD+IABMAAGwMBbYACiFaIVohUMgAEwAAbAABgAA7tnAKIVkO4e0rdw9wgfsUsCBsAAGAADYKDPAEQrRCtEKxgAA2AADIABMAAGds8ARCsg3T2kuPPs33kiPogPGAADYAAMvAUGIFohWiFawQAYAANgAAyAATCwewYgWgHp7iF9C3eP8BG7JGAADIABMAAG+gxAtEK0QrSCATAABsAAGAADYGD3DEC0AtLdQ4o7z/6dJ+KD+IABMAAGwMBbYACiFaIVohUMgAEwAAbAABgAA7tnAKIVkO4e0rdw9wgfsUsCBsAAGAADYKDPAEQrRCtEKxgAA2AADIABMAAGds8ARCsg3T2kuPPs33kiPogPGAADYAAMvAUGIFohWiFawQAYAANgAAyAATCwewYgWgHp7iF9C3eP8BG7JGAADIABMAAG+gxAtEK0QrSCATAABsAAGAADYGD3DEC0AtLdQ4o7z/6dJ+KD+IABMAAGwMBbYACiFaIVohUMgAEwAAbAABgAA7tnAKIVkO4e0rdw9wgfsUsCBsAAGAADYKDPAEQrRCtEKxgAA2AADIABMAAGds8ARCsg3T2kuPPs33kiPogPGAADYAAMvAUGIFohWiFawQAYAANgAAyAATCwewYgWgHp7iF9C3eP8BG7JGAADIABMAAG+gxAtO5QtL778LIcj0/Lw6RtDx+Py/F4XF4+vLspARrtfn5c3k36OTWZP3tcXo4hHvPxm+p3SxvR101xCj76i8irxOea87yMlersceua1asH759ibb/qmD17cA6165UZgGidSsDD8rShKByJNYjWMxbJssD4onVtfLdYlF9jzC3sRh9nsDhVW9D/SYxNzPOT+h3kbFS7Z8ec7geiFSJxwOQsc/fS7uKiNS3W+Q417oDV90/vb6Vg71u0XgXGvEh4u7mniLLpwr3xpD3F1nNj/Bpjnmszrt9BfSrirNbN8K3K8eODuZg39Va0S3Ws+RaijOHf6FksxPl7PC6yjr9bHp+TrfL4DmK5QR3ZqmZt1Y+VFxy7D9aQRzuPFxetNfC5mIkiahtVr9nLeYjWw6Efg7hYrvza7LUK92sIyNcYc3/zaC/z+YbsyIJSCkBLfJJY5MIztyvzkq6TQrMKXX7tOEYkWoWALgJYjnEvLG5Vs7bq517iCj/G8w0xSjG6HdEavyZ5WR4/s5PbFAH6WqXs7uqCnAp4WAxq0Q47BLWdPK52OtY+LsCKedwpKXblfsvCQvYEO+oiYz2zWhaN3Jdc2GScdFtvx9SfGMkW77oYK+bD4UCLKMWtzV3JmYqN5cfQftVH+wyYjGWbg5p3ioHOv+c7tW9f146p27cxa8eQeY7ncyx0HEu8xY7T5Jh6Pp1z86n7YnOO+6fjL8SR8MGIAZ2PYz0tD4WPkGfGpvCDHc9zSue8ci7jVttRHy1Ph2xDbduxm+x3ckl9lZhEPw1e+Jjx/cvy+OGJ7dQGe/MxJw88J/V98vPlw+PyxK4L8UnHlGgd5jzFs1ePOdtl/oqaU+MZWQ+5zf5TezEnnNja8yT13TsX7IvneW3nfClbyKbyyn3R8eL9EBv5dTRPxszWuOl48fWw5p61V7agDWJzaQZuR7Q6BYYCVIpUmEShrZjk1kLCFp3SNrfjxSNOytR21WLTmcyjwseLUCmy3qJE/jZf09XJkwqpXEQfPhoLXMfmIkJLrGr/IQe1MIbjObasbfJJjpni8LK8HOtxtx1bGMN4Pfvn4ivjQRzRaxOzzN+pDCS/OmPmRYr3n65Ri383Rzknzlxp49LmKeZO8d/mxLpO8kBxbF6n5ibduFUuQj/BjjIfZuIQ2uR58/IcYp/n8XMQVu/yzWrNScNUJydHxmwag+UpX6dtbeM4ETMnlyEelVGvboX+2bnYV4hpiEOObbA1zNNybsKmGPvUb4hjsCNxG/oN8aznYv6ncp6ZCoKv1A1mu5Hvludqe4pNuGGuDDXxd2I77FfND2K84TP3X/1R9jn9UH/pNcegxKT2UXIramOOI+s7+S1j0TAb4pvt5TWoXUv5+Hgvc4V4XCMetyNa84JDC0GaiLTgqCJpFLh2kraTOwRc9ksQprZiMltjTB7rFcVqA1sEY78dG5zimwDqFT3yb+ZV9RPHrAtC9CkXVjuG6vqy6NY+kr05L6VIt9eldr7Nc/Eldox+nHjafhnXGxz0r/V8zMfZAjTyPZ537G/i4rSTYzjcZTHoffMh+xjEyBB5ja1GTKfGyH1XUXVcaBc+5UTzx21t45+uGc1NzXDo08sxH89438lRjFEUZU6OcsxKLGNfyd9wLMQkvMaays5NxZUL0xDjwGh4jfM2+dqtl03Oc8wU6715U/wy2IjnmGBNPqk4ObEd9qts7MUr2dHWmt4Ysr8ONzGGBr8qtnPM1hu8Tea0kRPpl8E6rjGfU0fcJCs3JFplIUzFgBYPVYws+JsCZV9jF0m77akwjQrWahsa32SSKVbWHf8aH2I/QpjSDkve9WELljWW9lt/TrbkIs0WhrX22/3WmNjxnTjvLRIWb+pYd8ycP2uR716nxii5dHho45K4Dl9P0s1g6YP69nx2xmiup356r0Zfye8qME/qN4wp7M/+CoaNRZ/ZqmNm56OtD4lZJlYMH6d86lyXbAn2t+PzvostMRbZptBv2HGmXbo4Tj8WvE/6NiVxE+bsy/LyTBzJWi2vy/Os8cv2wY536kPnho9jn8u1JeefdhY1+/a14zH5+PTes783Bl2bXpXNmk3KHztOuaF6YttgxDvnhO9OS1tqjcRxxOK1GLgh0cqFUZhwT8tjfH4q/DZpmoC8+MSiwJ8tyu9rG2PS7mqnlS14sSDZ9kZwmgWgnVCpcNHzpVVsrgGvFtq0SMVn47K4DOdSkUx2lue0dA60GGWfyZY6TvVjjf3W9dR3eLWLeB0rXq/tLp/XLOy1z+6Ynfyl61aO6fRnxyUvio5/Ou46r3U+VV95rK33XnybvqLIqsxaN0JW/+LYGtFaFm02ZogLY9TOozE3VQ7idawfYaMQHCqOqh9+XYrjpGgNY3PRyndKw/idcfiY9X3ymXIm/WuF1jjnRgwHc9XmOcXPPqfscny2r+31Sznzap+u5Xktm+JB2cxY8e3MdoibM22DHW9aS+s819eRr3itcwGxuGYsbk+0hokeik2YkKEI02f2VVCczOxzDGhToOxJO70oseKxNmF+sUnwr7ah8a03iapIoTvxWfvLwhTGiwU3xDAsmqnP1J9fZPU4dhxG14/tt/utMbHjO39e+zHzuTtmJ3/d6zwGnf5GcSHhInZahOirMZrx2WoTbRjOzXacdB1/3rFtY403vdOaY6aFsY6ZnQ+rlnCO0/u18y364+SyPG4Q5yEfS8eFnROiVbVzx1HtCnPJZxKtMvZsTO8xoGY8K4b9G0ydG26DfU7aRbxrH+xrUxz8c8l+foMT7LF5uY5oJd5sG+x48xjSI3X4z1jeHMBxwUupDZeNy02J1jj5nh+XB7HD+rI8vg9/BYnuCHPxoK+AKJBnFUlV7KjPE1/tIlITbZ/vFJnGt9qXDdVp/pBddYc7Fd+XDw/xtxmpSPqFXdpltsu+UF+n2G/2y3M1EmKj87yv2ffdPr18eMdlHJsYmTzYi+rwWrOvwfhuTGbnpt3/MK/WuCLucvzEc9rF5u95TPSYNAfkX6tz5mYcm365YOVuOfnixT/2Td9ukDgyxmDX27bnWLN23H/3fbc951bGvPTXXG/HsGezzk3pm4RyFPSMJT2m/hxjnu3V1+Z8uGPmfGgB7NnvHec+pPc8lsyXYI9gm51Tx+2x7Hg346u+mvPEKV7xPOqVGLgp0Vrv/GpxjkVEfIWXJ3kRsTS501d+tajYk9ae4PnOWO8QnZqkXOA8YWbbYNsbi4hZfKmIPSxPugDn9t74XmFKdoVn12r8qXDW59nqV41610r32y4AOXfC3vX2t/1SLPJr9t+3z2Do1FzTdaMxMxOVz44QoT7d17zwlhu3/FnMkzQvNAOUY/6fMdIcYzl3x1VxbtoZcc1+y+dqQzu6CaU+tU90fPAqFl3Zh/C1mZNk64mPB0TfWdxLLgb26phZc5tipueJzq/6FQ+7rpA9yVbNg56z5bNlF7O9zkGKI8sn2S+epbbH79lcxyAf6mt7LtthxazkhuVLtOv1m88Z8zvNm7DuMN8pRg1vdYwS49g2211s5O1mfKI6om1o4x1izetPsCP5oK/lNuC9zBficel4XFy0pqKjnhELxVUUrMlEU2HgBYUKoJjUrPhQIW+KbDtpQ7D9IknFt/oyXeCpULHXJi7MJ9sGba/yMcc0PYukigzFjbXRxWkKNIq1KMLVDtlnPV6fj6L/qJHzXfqrMTWF5IT9TTyZr2aemrFVzErBZraFPgVnk9xS3kdjjs5TPzOvKmYhNzFGjLPKO/exjYPdToq5KX6i3YqLYE8zN0NcVbu1v4tMMYoxJcGd+8w5TMzQOZr7NRYhZlr8zM3NygUJFzk36vlh3FQe01yqNsvr+zXKtp1sSbEx5wrFkr+aOaO+dNxULs2c2+Nrm9PnmiNeW7jtFHd+3py7Kr7WPJkds26qJPuCPdp+nq+mXzY3TftzTZMs9XMexrNtsOPdjMts4rbjfWUdsbhuLC4uWpHQ6yYU8Ua8wcB+GEgiwL4RQJ4ul6cYdwgufGXNb7Tw/i54gGgFyHcBMgTA5QQAYntqbO3dLMTz1HjOXwfROh8r8IhY3RIDEK0QrRCtYAAMbM6A9bwhFsdrLY4QrWDtWqxhnOuyBtG6+WJ13QRiwiDeYGBPDLDnN/H19KvdDEG07mlOwBbU6O0YgPm4MfsAACAASURBVGiFaH21hQUTebuJjFgilmAADIABMHDvDEC0QrRCtIIBMAAGwAAYAANgYPcMQLQC0t1Deu93jvAPuyNgAAyAATAABsYMQLRCtEK0ggEwAAbAABgAA2Bg9wxAtALS3UOKu8/x3SdihBiBATAABsDAvTMA0QrRCtEKBsAAGAADYAAMgIHdMwDRCkh3D+m93znCP+yOgAEwAAbAABgYMwDR+iqitf69aPl3pFPC7L8V3SYz/hZh/nvU4W9sW31hErRxQ0wQEzAABsAAGAADt8cAROsNi9Yy4T57XF4gWrFj/Cos317RK/MG8cKcAQNgAAzcFAN3KFrrLmbYfaz/npaHG4Fzdqe1LL4QrTc16UreboRH2AthDgbAABgAA3tg4H5F68cHJmSqkL2Fr9AhWlEc9lAcYAM4BANgAAyAgT0xcB3RmncC667ny/L4WQtCEmtsd1QIz7a9HcgsUJtr898EV38PfG5M9vfE4+6tbf+h8VPv7lbxnGJh91NFqxz35cM7JsRZPCZ2WrWfbl/Y/bNjjLggLmAADIABMAAGXpWBK4jWh+VJCcX0H4ikYEuiqj22fmfUE635eLGFBCQXlpawzceECG59IsEqxGAQk+I6JjTfPy3Ho/SXRHiMxfOLfE41tnf+s9VAtKZ4Mz9ze2ErJuKrTkTKPV7ZHAGTYBIMgAEwAAYYA1cQrcYiZIimKKyKoDSuYUb3F3ZPtCrx6YlGLQ4HgrDY4vXn2d1pT7uiUrBr0c1i1LPROZfGYELWsxPHUTDAABgAA2AADICBHTDwOqL1kAQk3+kjoXY8W7haorXdVW12H0sytG1Z7I7+d34Wh97uaRG3NM5QtLaC0rXZEaZhTFecdsZvbCWb8YqiBQbAABgAA2AADLwSA1cRrUWQiv/Nf1y4aI1CKQqpjZ5pVWMd1df0/s6u2pGNiSHRS7bZX+sfshivz+62wrMIwo5o9ISmd5weTZA7s2knNgldslu/en6wXdxXArPECeOjOIIBMAAGwAAYAAOHw3Jx0UqCVQoqvZvZiqQitpTYHIsZa6fV6d/c1R3YNrujWgS4I1xPEK2u0D5lpxUFAAUADIABMAAGwAAYuCEGLixas4BsxOFAGOYAuiKtG+A50XrwRKN3nI/ZEYlCVPf66pyzd1StHeAsxnv2dMYRtpJ/sf1xOf8xjfZGwRyPxsUrCicYAANgAAyAATDQYeDCovWwpB1T9jV02ankjwcEoal3JDsirePQ4TApWqmdENTGmO+fmscYkqhkPuVnR+VuMvmu/cpiriMmLdGa4uj01ROt5OfRuVbFMo0THiOQ/kFwQoSDATAABsAAGAADr8nAxUVrEZHlGdMgnqyd1iwYSzsuatdAMitaQ5+57WBMesRh9KxqFXz52VEhiA8LPXta+2HPmPK2TNiXtvx8FJptvEpbQ6A2tgWfrUcvsNOKu1x1I/OaBQpjr6l9aAtewAAYuG8GriBa7zuAmCDILxgAA2AADIABMAAGLs8ARCt2lbCzCAbAABgAA2AADICB3TMA0QpIdw8p7l4vf/eKGCPGYAAMgAEwsHcGIFohWiFawQAYAANgAAyAATCwewYgWgHp7iHd+50f7MPuBBgAA2AADICByzMA0QrRCtEKBsAAGAADYAAMgIHdMwDRCkh3DynuXi9/94oYI8ZgAAyAATCwdwYgWiFaIVrBABgAA2AADIABMLB7BiBaAenuId37nR/sw+4EGAADYAAMgIHLMwDRCtEK0QoGwAAYAANgAAyAgd0zANEKSHcPKe5eL3/3ihgjxmAADIABMLB3BiBaIVohWsEAGAADYAAMgAEwsHsGIFoB6e4h3fudH+zD7gQYAANgAAyAgcszANEK0QrRCgbAABgAA2AADICB3TMA0QpIdw8p7l4vf/eKGCPGYAAMgAEwsHcGIFohWiFawQAYAANgAAyAATCwewYgWgHp7iHd+50f7MPuBBgAA2AADICByzMA0QrRCtEKBsAAGAADYAAMgIHdMwDRCkh3DynuXi9/94oYI8ZgAAyAATCwdwYgWiFaIVrBABgAA2AADIABMLB7BiBaAenuId37nR/sw+4EGAADYAAMgIHLMwDRCtEK0QoGwAAYAANgAAyAgd0zANEKSHcPKe5eL3/3ihgjxmAADIABMLB3BiBaIVohWsEAGAADYAAMgAEwsHsGIFoB6e4h3fudH+zD7gQYAANgAAyAgcszANEK0QrRCgbAABgAA2AADICB3TMA0QpIdw8p7l4vf/eKGCPGYAAMgAEwsHcGIFohWiFawQAYAANgAAyAATCwewYgWgHp7iHd+50f7MPuBBgAA2AADICByzMA0QrRCtEKBsAAGAADYAAMgIHdMwDRCkh3DynuXi9/94oYI8ZgAAyAATCwdwYgWiFaIVrBABgAA2AADIABMLB7BiBaAenuId37nR/sw+4EGAADYAAMgIHLMwDRCtEK0QoGwAAYAANgAAyAgd0zANEKSHcPKe5eL3/3ihgjxmAADIABMLB3BnYiWh+Wp+Nxefnw7mYF1MPH43J8flzebSmCP3tcXo7H5Xh8Wh627PdafY3sf/+0HKN/wcfjcvz4YOT/3fL4nM/Hti/L42coLHsvLJew7yJzbIu5kDl/eg8ut8p7zPWwNuwr3trmbXlIa+SpfUbbzPq6rxhuxQ/6ud+8QrRusWgdDstFFtSR6DsclncfXvYraifsT8UlC9NRUY0iF6L1rRbki8yxLeb/nYrW16otSfzd8DzfnIdcH8/ZFMk23fLG0Fute/BbCvDLila9k8bvnMWu2ZV3WgcT+JRi/VoL6im27m8SXEe0urEa8LC/eMlJfKp9SRzwXezwfr9i4bXm2DC+m4uU0/Pb5HR0I9gR7e586VwzjNXw2rQW2N+6zMUl2a255p8v/M3VxjyknPZsZt9G9fKd1+NTd2vPz+1c/jAO4tRj4LKiVRSonjC5smg99MeLRW/lXe1rLaivs7BsPal6bLCxztxpdWP1lkWr4jwtkPsUrq81x3oFNJ7bWKQMxxN1leYHCRclbt4/nfzYlTtfzPHJjnNf+7V5fWy27m/Cvy15mOkrtnlZHj+Ex61U/lWuxgJ4wj/V5/qcYAzE7HQGdidaU6Gku2J7Aso2pzwL2y9ksX+xmNOCQHa1i3pZUHORoWc1rbvaVDioL8N+1Uf7rGyyn8ZoX9u4nR2zQfFM/edxh/ZrYPcoWnXOVZ46uxbmwqC/dejtiIwWBd3XYKHyCmRhlo/n5FnzY++EDWImHmdRbcV8S3w0Y4ZvZ4x2nn/i+Chm0e80r8X8NMez558114UNPM7lvYrDqc/2d3hsbdBj8npm+1ZrTFtb2v71/D4sB10TXGb7tXlqrBLbYMe4P5FvN/46Ljxmyl9nDnHb58ace+wszpPIabKxy2G2DY8JqJwJZnCOs7q397sSrbEwlkUiF1a1uKfJzgrnSZPQ7puSU4tALXp8kU6LqSxa0a7nl+WFfb3qtlMF++Gj7IvsCK+pX/8/eKUxWDyMybdNzPrFX8asTvqR/cnXfj5KPOLC7MeqtDNiEM65sTIYanKSRUEt9nkRU3xai2TLgXdtjZvrS7BVjEkCpM+A1Z+ZmxyLuvBZ/Wf7y1xNdo9jRjlIN2y9WDbMTswFy8d4bCZm2e9Qg3p2kfiqbaogqzGbyGNmdCZmrl+c84ZPz4aWvZbPdK07X/i4E+9TP8eFxyfll+YyMVZv5KtIDseonedT73jyV+Sr2GxwTBzwOWbE1vKp5KmZQ9I+m23Lx57t1GeKHfkX++a2F19l+5Nv/pr+qF+8lvwjRsZ/qN6Oj32JVrUINkXTKQZNuyE0uUjS5I791qLBJ77dt7qeFtSmuOoFor1uBHq0RcWFX2PbxwDZOGZUHA9KQPKYcftG9qe2k3FRY/JxZt67scoxKr6Z/GQbWS6ib+oGRMfFErHR1jN9Ef7mRZWLAnHe9Me6IWp9bP3JbE2N2faXciAFTLBVcOIwK9o4Ps34Hdto+/OY/Oa0sUvbSTY49k7bQv3E1zZmc/3k68T/FWB1II9hz4F8LdXDbtu2z759nvDStZH69drT+bWvfn92LOjGitYDOzaHQydPXR68/gy/ZmpEHItsJdv7N7Ce3/08GvYJbnEe8bsOA7sSrVo06MmlPxdIZia3mmBxAcxFOvVbd1jqOb/A6AVUf062tYUttgsLi1ogii+WnUwo6XZuTEYLz6Yxm4+Ttl/EaRSTE2zm41Ge5S5O3d3R/PFrw/smx8bi1LTxbDau1eNNfz6xr8JiFDoUB7ngpTbyWLLLFwPcbh2PlIO6yPK29N5jWvdF7U961THTn/P8kWM6PjvXnmSXxZmqCd1+I2+Uy1rT0jXr5qmXh+742tZsj3VDJWNLC54TY93v9Gevv7Y2F794PvN7qza48eHXG3ZGvyfWALd/1mdsw9eHwdjRR68msX5LLHDsoruGiDPN+/nXmxKtZbKLRZYKdH8h1HDUghmKV36IPU/+cC4VqVTwPJHDv2Kp/cngW8dTMSK7aSx5HdlrXU/nwuuosMXrzXiF8dfFrBZIFrMoNNMCYBX2kf3Jl7yAXEW0GgLMWpjysSb3fIGg3ZZid+KFL9A617o/3pbntffey+navqzckL3Ul9Um2ZbnRvG9fk2ufeTzJPXf5y61afPk22LPHR7DYcycxV6O6Qgg51o+vvt+irOxf23/eU6FuV+Yna9noT8vD+1YHfs6AinlROfZifHJ4snrr1Nzck5iPevk1mW5cw3FLl3bXwPG8bd8yMdKzo3cdHJC9uHViNvJDKKvLXm6KdE6nsTzcMS+wsQOBSZO8FDcwmKaJn0SYFZRsMeQixu1GV2fz4vn6Oja9Gr3W9uMYjI6vwam2tfD8kSxi1+Pp4WBhA7vc2R/ajuKU/b3zGJb7a/xi+PzRSoUpvxZ74Zbvog+o31qET7TZh7L8D7aoG82JhZJ3U/pq1ncci7yccvn1JcSA5MxS/G6rmidipkTQ+m/8pkWMedaK+bi2GTMxDU05uRrijc9jjE5z3Lfgu3J8RpbO/zL2NKcdGJ86vjuf8TqxILnk79XNrjx6VzTxIdufI01wO2f7CB+zE2Jzhzr5KS1j/KCV8RmHwzclGh1n6+jSbzilQrC44eX8h8vQhF9+fAQ/wIT7RrahbVNntkuFxXqy4a+UzxJpDTCgo0/KkCj8ytiluL/tDyEPtkO69P7sNDYRdKMSzNmPwYlbmf6Qjlv/rqYylNq1/pj+5IW2SDY43m+8xj8XLWAsbw2MQrn0lhaTJ86hu2PyoUXc3V8NmZeu5Lj4LfqO56jBbo3F86JmZMnGSMVmzxebHMkYTjKYT3vxUKOWduLGJm+tm3TGNW2VX1beZgct9rqidC1x1vf6hi9c944/k5yihndfNo5L8+06vke4uOw5NvrjDGIv7STxSCP76077nWU2zgu36FnfVMbvOKxgVdi4LZEa7krpYJy+mRKE/dleQmPBtCfBc1F4uW5FnkqQI1QUAlrF4NciMQim3co+bWDAtP2q3zO1/v2ZTv0fxjiNsy+p7HYAp3iGL7msnMytD+O7RRtbdegiPuLQoqZW6x1DnLRrkWfYmgX8ujjx6e+cHdE/chmeZ7sYLGmBYblRF6jeGExtXJD+ay75nlMzXHY3eEL9mTMaN6VOcfsqXZrcZ6Fx/ML+6rb96v2E9pMxiwzUP1O/esYafvj5/irIaxmmD4Z9k7GTPpj9JO/yte2l5scnjuawzx3nr1r2np9lMcMWJ2lm3GzZvgicyYObZtef5qzKjjr3KebKJlfzYEY12EptVmzBvRsz1ybebTmLHHTO5faJN/SowstU9QPXkXOO/yj3bas3JhoTc7HhUR/JWJO3k6wymLPBADtZDUCIBc3NaaY0KW/+pySWNQJaloIWF+in1LkWT+srSim1GczNvdpw5iV+LD+yR+2MPKip59v5Pabecy+lphQ/ywGpU825kxhSHYx2yl+eQxum/Yh2KMFTBmT4t+xR/cXfei0L32TjeVVsRj6yPaXmJW2Hf6LcNCcGfEpwq+25bEiW7WPVsxSGylg6HrxKvKe2sdrLxUzJ4ZWzgW3se6knKyNf/B3JmYiLp3cCrvyfLHyVMSsmlOm/cR2aWvx0efM8rM+Z6uv7Qk13Xbm86g/NZ+a2p/HGMah7afUKS3OBdtpTpmxpzlqMe/wSqy482xwXbq++uLZRePgdYZBtNmSkyuKViRuy8ShL/AEBsAAGLhzBrLItG8+1vtu3YRZDKUboImby85NlNUvjq3PGWImYwbRikmHZ3PAABgAA2BgpwxsJiDzbvFw9zS320ooQ3RJ0YV4nBcPiNadFiqAfR7YiB/iBwbAwH0wYDyXvXbdmtqxxWMB98HLfc97iNa1kx/tsSMDBsAAGAADV2UgCcrhLqljU9ytXfv/Ppy+IOzuWxTuPb8QrZiYWHzAABgAA2AADIABMLB7BiBaAenuId37nR/sw84DGAADYAAMgIHLMwDRCtEK0QoGwAAYAANgAAyAgd0zANEKSHcPKe5eL3/3ihgjxmAADIABMLB3BiBaIVohWsEAGAADYAAMgAEwsHsGIFoB6e4h3fudH+zD7gQYAANgAAyAgcszsBPRmn7O49o/Zpx+tLn+acpTf04EoJ4JKv2JROvPFb61m4r8e4pH/acf9x6HqT8PeSYnp8aA+KI/Rdr96R/6TUz5t+Yxx3u5Q8xuho9SX2jdW/lXr/Y8z0+tD7jupjauriRaR6J0dL5XMDc4t9VE3KqftzaJSFRcSbSmv8t92t9Qv/jiVBaVfdk3jNlNsJ/F1c5Ea7x5vhL7l+H32qL1ldeLW63PVFu6/A/W073P873bd6vs7MhuiNaQjK1A36qfDQFxF8QoFFfeZW9o12UWz0HBzfYPBdid+LlljIcx2yH7rf8zonWOobbv069z5yg4dHaAIFpP4S/N4TNr/t7n+TXty2Md6Rscej3npgBz3pnztb5CtAZItgJ9q342BNddECFal4cN43zKInJL10C01qK5dd7cOQo+nQUMovUUBodzeIa3Ha5xIhbXtM8cK7F5c493zeR+J20uKlrTJKFnZ9rX+gxrLULyGvsrUtnmuNR+TlxYTPhYX/l8vaOSd6tx0aG7LONVPys7tJ8JStm3HQ8xaRVY7oLIxijXN34648VrWT5PvbNc0Y+Mwyk5p2LC7Ba5an09f8zKkO6rsESx07G3vi7O8dI8hfyl/qUPQ84UK4WDcnxFzNgcEr5afhx0v9Lu1o4aR/PcNEe9ndb6FXfKjZzjctxR2+RfyJPMAfNT51uweFyOZtz8OFj5TzbnWBNnIbfN2NpXFifVVtbaURyYvTpHzTPb45jJWLbzWNrGxi48s2PRHu13PR/jyXOg4nA88mspDiy/NGa+Ttsm5sjxlHpWbW3iwnNNdhyIRcNG1kZyXscox7M/gW3hA49V6U/PcxYz1k/pu1y33lZhi55Lx/b59NmYWbaVY54P+fix5CHFITKg5kFTy+na4sPlYlb8YHG/hWMXFa01ACxpZoAY3AV+VjjZNQlONvFyknVRqGMbE4/1F9t58MV2D8tTsSn1lWxgMFF/3X74tQP7OdgF/BwPZcvIz2irdY0u2lYcw7EyfrI/TXbue86dajeyS563c01tmpxHkcZtmMgx5WiqeGefeNxyfGohmh+zsT/n12PWzRmJvSbW7fxqxrTyy2JCsfZeU94Zt/paik8otsW+1i4STNz3xlbdd+dzulYtSu+flmYxiH30OSu+67khxm95d+eEiIU/f/18zzN2yEw1fje+zNSzbGtcONk888YI8WnGYbY3dYT65zzluE7FzOBK5IiN7R3PvDbxyu1jTjjHvBaUm8RxbFo2SOxx38Mx1pdnc3O8E0eyN+es3CTHnDLBX3yciFkYf3ae53H5PE+xoLnaz2FsSz40fndsHeT1cJiI2ex4nbFkTWNss5u1lo3R3LxQzGb93Um7fYlWBWlKKpvcDiRNu7XBdfoti5juL7fnEzK2HfXjnG/sNyZ86L9pp+0yPrsLol5k9Gejr0MWTY3fU9d2Cg0VErOA5iJjnuv16Z8bxdE7n46vXVysQpN9UrwTb27OymLJ5kTIk47/LGdmju24eTEhm8tipvKkfdGf0/VWjGw7ynjBdsdP0Ub4OMmSjifrw46D7jcvUiq/9rVZxKi2vg9eXPKYg/ib/eY41nmd/WELbLquk6dOzMwxY3sSMMGnNTHr2MFyZY5bzqc+SLTK3CT/azyMmDcxy/aL+GsuQj/WMaP/YmfnnBfzJrapD+ljp9/e2NnvemOa+pHz2vMxH4+sp/clxsqX2J+I5aS9o5qgximMODEr562YdMaK9pfdeJvtqfolOLtQzCzfdnxsV6K1AJwDpieZ/lyA8kCcDXwHvjKG6MspmoN+pu0/ZQIJ++oEl8WkHveEjvzai7UP/XtxHvhtx5D37RW51CYVAL6Dx69d/97NQ4whL6yq71P8zNdItif89USMYYPOseuflz+HHZ43t0+61rArXC9tc+bNiQv50Cayrbz24178dePkXz/jp2evvFYxV2wfH2/79+Kt+9LtOnPAs8eNmR4rf2540Takdq1P4bjdtuTPs1EcTz7SvIw5KF8jz/Tftkl9sBvKxsfkE42lhd86++0d29RHa1s4bscy50PEpnOs5xPVrNyGYsv94jbEOGRhmo7TYxL+PON9me8d+6htk6Pitx0zus587YyV/KENjtT3afmWdl0kZiUGnbzvqM1NidYy2fVXHPprrLUB7sAXYKUJpb9iaSbloJ9p++MCwHchTocpjknFhMfFXGTy5CrxZQW4EweKC+1amBOcj928HxcpnYMm9k2ffsxSX9K3anPHlpzftWOnvLPxBvl1cxZ91PalnPHYT3O2Wcz8XU/hS44f8dK8rtxZEX1P+aJj5zBizo3QVs8P9jVrmDNlnsmFhtjyuFvvh2O3rj/RD8ZdjpGeS5SHynWOU/HHGY/H3I1ZutZjsnK7JmZ2W4rz7Gu0KTIX+ntaHj+85P8fkfqvtk2uASr+Mc5ODHUOauwnYp3j7nOT7NciyeNvNl6xnfKRrhW2OG1C22RDEnM1PoG3l+Xxw1N+tCjxd0pMRruXwk7OL83tNTWo42ccR++0TvStudBz8yIxE3GY549yf+3XmxKtKaFtET47aB34CCJewGjxaiZVp586YSfsH4iaNf66k3SwyKRd1bAoM3tH15wM/6SYiP3ntmf854U+Rx1bBvm181LtpQIUXiVPslC4OcvxFfbHnLAclYVBHrNtk+P22ogxrTw7sZG+bCM2yM6hTY2dndzyti7nk9c7O4GevTJG8zmhONRXaV/sVy2UyQbNn85L7scRXHU8ZqsbM9oRpF2nfE3Di7YhtbNjZrc17eJ5Ve9L3IMtIU7Bh+BztK3aOxezYC+Pf3rfrBHKhnLNCfWs2N/0acfHjiXLYdOPca7JW2ojbHHahPxwG+r7/CxnvC7UrWR/r0a6ue6MHa4Rdgp/7Zi544Rr3bH0/El965sI3fcMZxeJmYiDkfOdnb+SaOWT2QqKDUxNUL6mUxg1AKs+T8NHttv2umKWkj5rf2ynFxYae91rnKRceGZbmtiSjfxV2+vGaZ1NbW5GfOj+17ZX12u/uM+qsHJbp2Km+nIfqdDt2Ge/sJIfib9Q1GNbJUxOGZP7ab4fxMwr4NKXM/PGYhRtXD1PJsfv+Cr9oXzoV7s+ePx4x8086Bjoz9F2b+HP/jdiVNvrtdN+ss9uzFLfzYLd1BJtQ+rbjs1kHnVs1OfY9/Pj8iB2WF+Wx/ePy0upmV4sbHvT3HtaHqJ/Vfj2c3miP17MneN2LFkOVXxMm5u8pevlvPD8UceJ1fAaa1g6//Q+xHY2dtp+Jy/kmxObk2qmE4vUFz3qEOxLNjVzgGyKrzk2o7m5Oma538FGiZlrYZ+O8+t9vpJode62S1Bs0NpJRgnYdhfJW3BDIuNk5BMogxp2y9q76JF9o/MZhAjmNqKVfBO2Zh/4sRBrfWebfJexbuJRcngOxDkuWnzFvtv/UWn6tMYOyqE5XvDDKDJGzKYmer5Ox7Z3rVwA7LjGNh+fnOI+ydmWMXP8bHzJbHP2erHonyM/1QJ3yV8PGLJT+dE+tvUs53bTmCR2nz7mXUOV42b+kj+inuW4NguozWLMUfRB5SGOTTlidST7K79xmF0Dkg2NH8rPPjcy7vw5/tQvf9Rj7RqQa0d4XMSsL1vWMytPRu3KsXH5WxO7lfOc1700PmOEsUftUhv1Dd8a+2i3u9x0aGbXxazLkRULYlvMHT8nvP+GaRafUkvYsamYsfY2jzo++/98NdHKvwahr0lLIk75Oq08d5mfKzMLRC8BrLjovgTwVHTp+bW6i1Ht5+O0/RJcBGgpjHxcbn8GX19H169+5eDmMa2+G7vExKs+1sJCMZFFfta+ZjwWD2HfpP2z48Z2VFzKmGxRjUVynMfZ8cx4hXFZfN02QkzUHNDdPO9D22PGl3O2ajGg/4jHcs7nSc6RyBvd9DE/o41GPrlw0H6MPjd+Kh+b8yXn7MbQtCn7qu2nmxrWzzkCLPjX5L8Zk+V+kDfy165PM/XMWtiN8adjpuZS8K3hJbXRNqe46LkZbNF+WJsIhs08dmQ/jzXVBcGQHqu/BlD89VwoHNO4jB+3LbfXfK9t8+Pgx3IQJz5uk7d0bfSZxzFcQ7Esfuo8EhfsOMVG98VtGL6nfmutkvGdj1nJmTUm2Vr8C+MxUV6uyfYIpqyYa7sszsi32ZjVPmUMrPFv49gVRettBKQLaYEQviBOcwyQGGkKBhW8YSGbGwf5QJzAwD4YSKKViQqsG85fNttHvjBvbisPEK0oKCgoF2TAX8Bm775vq6BgAUC+3jYDaV7rHeO3HRPMCeR/OwYgWi8oWADqdqDeaiy9ndbhV4jgEjdTYODGGMhfxZ71XgZ4FgAAIABJREFU1TZq5q3Weth9HXYhWrEw3NjCcJ2JsWUBIuFKz3KnV3x9uGWM0dftzYv7yRk9ZyifU78f/8AWcrkfBiBaIVohWsEAGAADYAAMgAEwsHsGIFoB6e4hxV3ufu5ykQvkAgyAATAABl6LAYhWiFaIVjAABsAAGAADYAAM7J4BiFZAuntIX+uODuNiNwEMgAEwAAbAwH4YgGiFaIVoBQNgAAyAATAABsDA7hmAaAWku4cUd7n7uctFLpALMAAGwAAYeC0GIFohWiFawQAYAANgAAyAATCwewZ2Ilpv/6+ImH97uZkA9e8Ap9/qtP5O8Ru/g4t/r/rG4kJ/Yxs/Kr77grfp7gD9Kd7yt8f3wS394Yrpv8qU/Wj+1HBTv86sTW9lnsR44neYN51rW7OI/m62VkO0bgTvnGhlRf8WxdlGseoWs1uMy1tZjK+R/9VjvNINLwnWjw+7K/4QrazOrubp1GvDhgTdtDwsT/kGNv5hkR0y0q3BV4vZqbHGdW85f5cVrbSYl52I4yL/KhCb5MfjMr0zcPak0jue2q7jclxZaHYrWp0cXC/WKwvMSaKV/iKN2t0gYXFUx8/mZ6VPGO+Cwu51RGv6K2dUv26ch2vttL7GPCj1z68BJPJpbbJrI9UYWiuM3NNYH5+Wp+fwL7Q12sU41DXIHu+wHEr9ojFtH5q/uLdy7XrLAgi+317tuqxoFUUqT1JzQr3OwlOAPUkoyWTvW7SqwpmLq1ssRd6knyVml2pzUi7qgsK/4qzF3C72F/flUjFCv0wEv07tSGzdCVd3KVpzTfj4sCRRauWKhCM7Z9VGEo9s7Up9qrpK83JQw8oNz/vH5cXbrGnsMGw9HLJvzA7DVtS5K69hxAFeWZ3eLge7E61VaIS7S1ZMGACyzQY7tIMi097xsiKR7SqilYpG3l3mIkoUj9GYBypSdJfdjin6Y/ERx81xnBsIZbsX/1SwyS5jV5qNKdsa+WzGDP2u9DX28bI8fnhiO+TBx3xMcSRtau2n81rUN8ejn5040KLy8WEpzIaFj/lMfKTzOj5KkMXxnpaHcn1ozzhhi6pgwGMjHC99kR8y9tHnCftpPIqRt2sVz+tnf7MNFIvDIfkdPpe4xflU4yOPk+31VeeO7Bu9juyn6+18nVKYWf7UN1LkQx1LtVVx1LbXeGq7sqBT4+n2TYxP4SswNjFPZFxrHtd+45X6SXEif1JcKjs0VrJL8h7O1XinuJnM0rzjMSE/xU6rGje0obxl7inPxS6r7ziHVT1o5k3Oc7Sj9av2r3nAZ8TmdhjYlWiNCx1NaGfiNgXInfgrktCd5PX5JAI72SCLQipsL8sLE1yp+Ml21IdXMNP5vKiwgtjtqydKTN/y4tf0f1yo0Ac7LD+DHbxNET2sL7FIleN5zJLfupiJ/kx7B7mMDIQ4h7jleId+wtjlXOpjyn5ij4vdaJd3g9TGk/JcuAi2ZN9e4rNv8pqUX7XAZfFWFrVyfWiXF7Dnl/hYjX39IG6hD54PI+ez9pPQLAsyF8SFgcyUGpMYqhxk/oOoKtca/FgLeW8udM/lMbltubYUGzIDJMib12LrKO50vvUp5VHOQzoWxiss5PwX27hv2e4aTxqv3qTUfuox3j6NKWtXOMbbEOPzr5J5fd1lxqQ6pueWwyLF9Ug5yPPswzu5a1RYoH6DbzleIf6Zo+iTx0XOk8hFyKOTvxSfYxG96TONTznOMRas0Dm8aubw+faY2Jdo5QuGccfbn8x68q5IRhYDj59NXmMUG0vglYXcKlqdMbvFyOqLL1j6vTFO6p8vSE5hpgI+GDP5zuKfC7ouxtIvZwEz7B0WlpiP5E+wJYwbXuMCy855/TT2xxhmERN95+8tRhxftAgUccnX8MWNi2RmQ4mjuD7bJK7nObXsnDim2E6xyf2K8Wfsp12ralfsT83zdl5L3yhvkh/yJbUtMdL8T362+27t79tCNk2+5lhLIdiylmwjEVX7NmMZ/DX7TdeZ1xjtzXaTsaQYta/+PAltLzOmJ1oNW0ocGFPlWI17YcWrVfEaVg+9uOW+G3aNfik2Dx9eyjeQdOxd6Z/sflgew/O0g7rd5qf6iHOIxV4Z2JVo1ZO3FIc8KfXnElRjkpdzZUJ3IFx9PRWHevfdFpAwnlzYhU3umEYxzT7YY3T8CtfFcdjXbfkrQbFQ5jbi2Ioxm7x0+isxMBaDeM6NS8fPeE1eJEK/YfeRBGAcp4qmMj7jorGfzmU/0o5abxGazJmIi2TDtkFxJmKTztHClK7v+2n53h6TYwrmXPulL6JPlWfRH8VZtaGbvVE9SONIe8XY1P/wdd5+6t/OV4dRywYRT7q29Wd1bpt4+n1Hf4z2acy6q0d+n/fqz5PQ72XGnBOtMp8sByI2yn4xHynGK15z35pz+kYmbaIwW0qMUi0Sc0nYouy02MMxuXOOeNxMPG5KtMZJqp7Dql/RnbFgiwnfFp1STNXYvNiIAsImgHdcFiY+ZipS1S8lOPUuFRvLXFAs33KxJMHj22IVfM8+JurimO3OkLBPLAbMf8veKR9p/FSwS26acSbsZ+MRc5agr/74i4TIv4hLvkbslJIPFA+5YMk8ZT/ybkpidP0cGLE9Z7/vP+36UT5EfxRnJ0d0DcVZCgsnRtTnqtd5+/u2kE2zr5KB0LeVR+sY2WG+NvEkexRPFCOvfea11KKzd+46cSZbNh/TqmEhHtWWlkkWpxIbdkzYun7OlZzlvjXnZZ7n/6jFaw+fA2Q3331NfVffylhkM15vRpwhd1S35OtNiVY+YTdNaEcopTG1AGsLGBWQ+lWNLIyNve6YGxccZxyxEDptgs3Sr+S3eG6xLLRMcMX+dMwkeCRmeEGOMerY0sSQCnC8ho1Px8NrWXTC+JP25+spRk8fw1dyvcXJz5mIn4hLvuYVResM23P2+/7L+GueMhMiRzVPejFP9uo8t3PR5YRzId7P209927YoxsUY1rnMo7gZbjkjDtc+vtTMrcy/jqvOEfnIXyMHwc6zhGsnzkasthnTE6103PBJ8FhzpON5NgOeaM3HrZrD52Ma39oN32JOWLziGJ8TeP86PNyUaC13oLPPnhqF0ATNFUpSWNRr26LAi0lp5xWlYJc7prOwz/qi2znjyILb+pN8UMeF6KrAyr7It4FoNRfQHO+uQKzjUpyb8XkM+AI0a3+4XuQuxUGLdRqf79rUY8lOwYUYX7Jl+pDbF5ERP5OoyTadvNMqx692y5yfZb9xQyP6y3lKvnNepA1kmxkjtmNG7U55tfumnU8tlP3ja8b2xtR9pHaU95Z/3Z7Y1SLL4zTmpPzHI79/K3fN2HzuNe8zcyuE7/ljkjhtc+jVYJ0X24b1vjSxEjWGx93rW80LXtt4rEWd4P3ifZMDHje8v4ld6NsSrbRA0fOKW0HWmeSpoLMFIxeK8JVZERPNjmQoDp4oyIWjMyYtOuftanTGIR/Y4mEtjMl3VuyN61Kb8AgDaxd94yLELpa6//g5Po/K4j2RY73IyMLECv2s/daObPaJ57yO4y0y6gZExEXxIc5V4S84i20oNskvYsTKX7WvF3/qrwp1PmbKyeMSv0EQNir7KWaMKeKYx0zbmT6nR2CqyGI5Y/n38pw4Yn6wa0YxqOdlPOPxzAu3n9p7ttD5qVeRTztHoR8ds2Hf2e4az9q37it+jnOOz9eQWzafYzyN+KyOsz9PUr28xJgd0WrVaMF4jpvBga5dw5xYsTL6Lf00duj5lmxr7Oj1admAYzch1AoXyNdyY6KVT1T1rCdfLNcmtrt45GJRvsILhdVYVHORKc9/WV+l5YIi2lC/zbOqeZGg8/nVWoi6QFt2ObsqaUFjcW1skmKKxE26ji04TcGti6a0VcY2ioMYo3UCpBlf5F/lSsUjjCmvrzbpWKcFot6s0Gcrn3RtbENxFHFpFyEZ/xDP1KaIpng9xUaKiHQtnfPirY9XX5MPLdtr7C+PXzBmKQ487yJuMTbJl9pW5SznU+aJ+6L9qDni447f55gO7A/9+LZwu8bvRSzYuHQzUsca5ba1vXLJ5ibdYNNYsW7q+Ae72/4Kh2J+neFjU4euMyaPbdlcoHg0NmX/mtotYzpmy+uH1Vv9DZOqVd43PZqhU/M07cPK/KPf8RxBjOZjdEXROm8UEohYgQEwcO8MJLFhiNEsViA+MAfufQ7APzC+lgGIVtw14usRMAAGrs5Au9Neije+4gWPV+cR4qnMP8R+1/MPohWA7hpQFBIsJvfKgL3TSo86GDuwqFWoVWAADLxxBiBa3zgA9yoI4BfE7i0woJ9HjM+h0jPQqE0QKGAADIABwQBEK4AQQNzCQg8bIUjBABgAA2AADLw9BiBaIVohWsEAGAADYAAMgAEwsHsGIFoB6e4hxd3027ubRs6RczAABsAAGNAMQLRCtEK0ggEwAAbAABgAA2Bg9wxAtALS3UOq77TwGXffYAAMgAEwAAbeHgMQrRCtEK1gAAyAATAABsAAGNg9AxCtgHT3kOJu+u3dTSPnyDkYAANgAAxoBiBaR6JV/L13AKQBOudz/I1K/CZlvGlY/bfs6e+S7y5+9OP4x+XpPebLOfOjXEu5Pua/U//x4e5vNJvfr70bn+v8iL/Je3T+iMQbzHnhfbQm4/zdz/8eC1cSrQ/L0/G43OTf0oZoPXGCjHO+vWgdj9mbDJc8NxKlo/ONbbSoQbSeyOctCuoseO5GwNk5SILVEXNRsOx3njfztCewptaWt5HzVXHrxRTn7r4eQrSOIJ8qLHbxfdsTcbywQLRWblaL1hG3OH8jxVvvvPVu7t+CgEl149gV5uPachO1d2pteQs5r3XwJvKG2vqqtRWidQTgVGHBpGuLzXhhgWit3EC01li0LN3ruSzQ1G55YMF+tOItCJhx3TgcZtrcADNTa8tbyPkN5GqkE3D+akL2oqI1LcT5OSx6Hou96scFmvbdu20H9FgInpaHzx6XlzjW0/JwyBM/fFZ9pq+imI3q/MEoLNXO0De3Iy9CxUd9nrcdvdd96a/L7MKdbOPjsnbRl+pruzDqMXk/I3vT+RqbOk56dit95jkvorXkKrVp7WL5y7Hl/awZc0oQRXtSvAUfSlzEvpTtxyOPmY6njkltW/Mmr+F+xvFUDjXP1aZT7ScbNW+j/Oscda7vxmw0Tj6f+2jiczgsKZZ6fBlXmafQZzof+1MxLjzm49aYiZOazxnObDt7/o8FTDMXWD0r803ULBqP+W+ep3YnvqqYtvGnfn07Gt9KnW1rS4r/BjlfGQtRL4z1RnARY6I5pTjQ6zjnos+V9uJaijNeb4WFi4rWGgS/EKU2tODxop8LjiUUehMzF4KX59BXHvf5JT5Pm4peHSN8LgtS6JMWU1botWilwtksXMYiespCluKRfed2BF9ELOyYah9pMU7CUfp+5P8JYFP7QwGw7atMHJZa4Gvhbu0P7er5eL0rHsZj8vHd98SBeA67zQmxwBlKPil7i5Cq8ddjU18hT6W/7qLWWcwm7SfeK8vWPDyhmPfsNjiLdgjWZ8bMtoo5Ea4z4mKM2c7NnN8ohGqeUl4on96YLRs6v9ZnynnJd6+uxXOGb+WafM66acoxSuNV36RNyYd5W2ZylNuE+Iv8alvpM90w6VeKP42ZbK3c0nH2ulnOWZ8l1vaxEF8Rv2yDeWMZ+urNkzJWL+e2HTKvaIN43BcD+xCt3uSNx9kiXiZyJwn5mlTQ8mIiirYugLKvZjHjtom+jeuaBXSiuFo+5WInCmDTzu67XZhkDMoEVmNEv7eyP9pq21fGP5BoVflQdvH29X0u5Jvay/LpLDYyRp5/Od5ikabdP08w0HnNujdGsLWzmE3ZT2Mqm06Zc5pNPmfWnNNtB58T62N+ZN4ozzq2OW+aKcWjOWbP364PeUwllCvnZCu9dnLu2cDzGd9TvlVf0U8Vy67tZNOJr9wuMY7Oi9X/uM2WOffzYdkmj0U7xI0EO+/lTMRD5UmcY33h+NW+nj6HB1x7PrO7EK3+xB4XpwYCUQjyopAFhLngqMneiD7q78PTEnbB7Lt7z85TC062m++6KTu9nczG/rzj6d7tx363tj+A6fVZoTUXFiUSmvzmOJjXTozp9SeOOzaIMd1FN4txJX7avNQ4hLHt870Ydtiasb/cNJCIyfYQ759J+0R8GhZV214f2Taxyz/qzz3fxqeNY9sm+aLjl9r150n9NobXAcGFa6uKEWuXbK67i/7Nqra59hltMMUR8z/GnoRp9peu6eWM2bqKg951DqMzdWPchvksbNDxm8y56KPGfCYWLY/s+qmYa5vZ9WfYNWM72iDWe2RgP6JVLfIpWCcUFVEI5PWpgFDRDkDm8+rZKPG8VexvsKCUhbi2489xDhdCs/jkYlVs43ZX2/niGWLWFkkZAxPCi9ifxtX28fHNxd5azDz7GmbGY/Lx3feWDSTyaEzBmSxuloBo8yKvsc/3/OksZjP2B+Zyu5qj3Cf5aHIp7TZj2IlNap+ZLGwr4bxiXMlQsr/6U30U87GMy59xzzapHXLLPzlmus4XmhPxKv6yuJh2+DmXNvExuV/M1pCjj4/L43OuKzFnp+fBihM/luZEWx/buCUbRQ5LfMivQRuvXlDeS2x5bKjvc15zfzROeXXiOpwnwRY/5zy+eH9O3nDtLfFzE6K1X8AUcKIQyKIkRWs+pxboRjyw/qjwnlZolZ1NIe6cL0WYC9dkv45NYz8J81KorXHsvs4DedynudBqwUW+K/vNa6++08rzUeNq2dbmpbYPcbbP92LYWcx0DDNrjV2RbSUk1Hw4iQE2Z4bXFxuchX00T/hY0W+dk14MeQ5Su6kbTD5mfH+i7Y5vMU/8efPSzs95k9tyDfe/vg+8hToWrgs1JPK3Re7LuDW2pj8Oo7SRoOua5Kj6IY/TmKPzst1Uzg2/5NhpzKOKoT2v8/icI7d/P+dyfPIJr4jLfTNwJdE6mHje5PWOuxNcP9yeC0kWPKmA8J0F/QyhIR6EDdmPZkEZ+Nezd/ZcU+Stwkz28UVUxsCe0Jewf9ynudAqP0XOWKzMa7falVA2UMzkmFb8Q7FwjguO2qJiL25OXzEOnfhO2d+5nsWZfF/1OvC16Wtte2Ff8sMXXrN+zswTylsdMzKhbqga/4S91If/Gvtsakxo3/HFi6E4TnY/yB3W58fl4cNL88sqwY9ki/dYlO9DjYETV4dRd/6IGHbiENuNzpPdjm1iLGo7eI1xnlhPeN8iN17/s7541+N4ZRGxuIdYXEm0UvHTuyAEUZ6Y4i71xIIiCoHsQwigXDT5XTYV6PbxAG537pOeBaMilItWf4eA/B28vn9qnp0VtvPCXGKWYxi/klorWknsn7M4tT75i29qG88X+/P1ejFr4sr81NeWRZbnq7VrOHG1DTnH2t42J8Q5j7/0i/PG7bi+aM22GjHkdp30XsxBGf/gp/6mInFixIzm1uA1xu75aXl6bkVDtL9hSNqUfJS1YuR3ylfYpT6dteZXMYKfRl2qtvQEzFwNTbE+LnVHkOqZNffZXNP1bpCTxmZ+fc6H+KWM0l+yZ1RHkx+d2F8g59Ungx8jbyXW3PfiJ9Xcjg+xbS/nhh28f7zHf866QwauJlrLLkF5zkcXSV4g01eWo8JlFhGxYMqFKC00rEiw4kn/ySq1YQuo6C8XCSpQesEqx/lXrmy8FQDVRZH6YjaVfuqCQ/ann1HhbWUMzJhRfxvan8bp5zQWdS2asg1c2OhY0NeadeHlxbs/Ztd/FQduQ7jOslfbZtuU7VO88ZujhrtoS7uA14WQuKivxV4jhrb9kh/+3Gfpi2IyejXZybapHDc+qPNTOeL2lLE595wJJgZZ/ZGCc8U8CWPTmGfZ3rJqCbkmXswHmae2P11DiVd+nPqXfWlmO7HluTDfK85CzBxG53Zag21jX0uOWLzOyrnpG+NMze8Q42ZeEzfCpnaeUE74nKT3Zp5GtuE8BOydMHBF0com950Eb/XiCr9ROHbDQBYShuhKC+ZpN1tvZk5k8cHF33367nNyn/5inUJewcCeGYBo3Y2IwETZ80S5O9s6oivtDkG09nLe7KDdaR3BDQzqcm8e4Bz4uDYDEK13uthcGySMd2vFy9lBo68vjR1Y5DjnOH8NfNdf05avus95LODW5gTsxRwHA3tnAKIVohVf2b9ZBtSzhvk5u/v/yvu0hYmeB7WeO917oYd9p+UccUPcwMC+GIBofbOCZV8gojAgH2AADIABMAAGwECPAYhWiFbstIIBMAAGwAAYAANgYPcMQLQC0t1D2rvrwjnclYMBMAAGwAAYeBsMQLRCtEK0ggEwAAbAABgAA2Bg9wxAtALS3UOKO+i3cQeNPCPPYAAMgAEw0GMAohWiFaIVDIABMAAGwAAYAAO7ZwCiFZDuHtLeXRfO4a4cDIABMAAGwMDbYGAnojX9XiR+H3IH0NGPiq/4cfn4V3NWtL9EcXkrf6GoxO6EPJVr7/lGLf9xhLv+4f97zt8OfXtztWWHOXgTtQtxn9pAu5JoHYnS0fkdiLm3AtQJYugaonU0xptbWE7Ik13472zuXUW03lnMdlTbXmMeo7ZgfbVrI+Kyx7hAtO6oYO8RkBmbRkV/po9Rm9EYr7HYjWy+jfN3JsDuWLTGOZD/aln4q1zHV/524xJ8v8Y8Rm2BOLsEy+jzMlxBtEK0Tm3J9ybgqOj3rp09NxrjNRa7Wdv33Q6idX1+rhyzLMSPx6flgdercPzjw9nzd73/l1mMgh2vMY9RWy6Xzz2xBVvuI88XFa2pAB2XuCvAdwiav3FeFwF5jSrSuWDLNsfllGdhY6H6+JCL5HE5huJfFofjIp+JS/ZVP16Wx88kALXYvlsen5nPxm7IFvbTBIx+GLGN/sR41dge6Cvl3F74qM7V66WfdWFhPob+Gj/HMSMf3FeWjxp7Ni4bs8ZfjmuyscJX1zYSD42NNrOHg+LiqBiKNqVjMqeqvxnbo01GX028WCwVQ2bcyGfrdWLMGkuZo0aMUf8zvh50X8knwXbobzpPLe9kt563mkkds6b9SQIzc8NyR/aYr4OYRZtiXzJu2vbY96CvQ459vFa1beKvzsucS1t0XGXbkJ/BXCJ+eq8ND2ousHhfvbbEWD0tD8XGUAOYz4qjIWexP6Me6JugGC+dC1V/ejHFubu6gTTryw5yfFHRWp1OE8EsjHqilGKRJ6maoGlBZxMpT2y/b3sRiv08v6SdijypX57DxFbj5mLL+6ciwQszHQsFt7bNBYD5sJX9IbZNX4attLCkhaDGLdmbClnNE1sQmM38fDMm2VHyFvpo/Y7HRBs7L3ws/j7l63F550waHv+SF1asqa/Wb8vWSdss9sIxHTtafIT/75bHj8yfnLuYp3J9ZlFcR7YpTnlcaLwgREtfnp/peGWW+l/5ysasfRlj5na1jcFx2XHjfM71ReK0MBDiYowZj5XYrPSVizUe9/I+50aIgmy/mcvO+JkL4U8ZR143w3adJyy2xhgzfZV5Hm94OrUlxF/E2opP8iWNW/uieVtfWw5aW2Vc6rX28d3Vlly3Xp5DHJK/YW0Kc0bGx4qjwdlsbTHmiVXvR/HEeZszxGWbuOxLtKqCLidoXXx0AW/aOUWdQ5MmYy7ceVKnhTQXgmhLfi8Kbgg8b5MSkWzQO7R5QSa/clHYwn5aMPjib9lF7ZqdUMeW0kfjsx//pui7fZ8ObTOGyrEd/1zwP7zLd8D6c7YnLxJ695zzYr6fvG5ke+xbMFjj5LPtsVnzVAUrZ1QLAicmKr6m/7xNzrkeU/uuP6d+tQ36s50nsy+Lvck8DX0s/jr20XlvvJxjPf9746b8M4FJYzSvjk3Klm3nSRpzvrZUrulbHx0Ln/cew5250MSJ2ZDPmRyx67aNWTt+k//MSartMsaCB5Xb0o/mTPRXx9extuPgcMXiU8bFMey0XoGBXYlWKcDa55v0JCuTxZu8nQCKCSomOROkeQHUdoVxtS2imDjj6mvOsd/cPSIxLQRnLnriWC1cxYZis78AePaLWMZ+8pjHVsS34/VsqefaMeo5Kx9pHFVwPU4soVPiIccR9pNQ01/1i2uVDeIc61swyI577c1c5+s8f0z/J+1z7eiPKfPmjaWYM+2sYjwJHacvy/epPM3EnNo4Y+cYRZ/FLuvcdYIt0RcTrcWX/HU2zeupmLV167x5kuKgb1QsP5pjVp6MuiqvU5wwJiVnFO+519G1dt1TDEzGX/rj2Cf6kjHm68w0Z7G/US1W/pTY+jGf8qX04/iK8xC6Kxm4KdGaJql69qg8i8cK+0QQRKESkzpP0rA76hTWMFl58bA+WxN6S/tD/03REn5QkZBFz7JLHvOLlF281W5yiX3u58T8SJu8MchHykd/FzHZ7/EzKup1LGlbjm/xU9nQYUj0Y+bOGzMc9/NENzR6Fyvtbul54i1WvbGNc46fYp7lNu0zi1KAzeXJsduxo3zj4OWpcGv41pxzxs7thM/i2swKCU1xzh5X15nKjMz/XMy2nifz/ni1TzOa/FBzqMQpj1dyqOYyfaNV2tsxrTFM5/18pfO2TZKB2fjrsc3PsRbQPJUxTuOkc77d8hpvV1uMPTk3xTUr44xr53hEnPpxuinRahePvoMeAGLCC8GQF4Mp0VqLKy8m3phb2l9EiyrgehEoi/X0QikXQ+6LZ7+IpVXISkGkQrw+Z6MxbNvkwmKLtvW28JiI95kj+R9HlA1WfMIxweCMTX6edita6fm88riG46dYtJ02Xl+uaGX9mHli570cleP9nPqs9q8TLNFYLhcq/1MxmxOt8/Mk+TPaaY3x0N9GOHmy5zHlRvlMMTrz1c9XGte2SeVyMv5mjrX9oi8Z42TLnGgt3xC6DFFcw6vyR9uEz9gR3QkDVxKto2JjT5imWIjJzCfc+veiUIlJnW2Nd+2e3e1xXkzcwrSh/VsvLNXm1rdyzrK78q1oAAAgAElEQVSfBOlol8NZpErfgwnRsKDa2+cVV2faMGVrEyPOU4dTwWCnXfG7kyfHT8H8TD+lzYQ9U2N2bOZjOX3J+Nt9JYE0sWve5GnCx2KjPXaxz+vbO176tWyQoqWMoXfap2I2KVon+yKh0xetjv3eGIMY2QxbcZs/ZteOer19/oK1RcRAxi/Zkm/+Rbtqb7M2xHajOTFgussoGxvtIG4vzMCVRCt9le3ttKkCkJ1ui0WeWObzYusmjih+YlLnMUiEiXNpDFE4hK2ef2Tbdva7u2kNMLLo1UWPbNKvveKl+8p5e36RP3n1/on9goIfs7EtzLach7J7oPxsWQnXtlwlUTPKExtXjcNtDmPqne3Uf92Bj+2z7XJxt389QPfHx5PvO3myBIHBMfW3SUysMekRFppLIZaDPK6xSc/D+Dn8L2v1LPV0njq5JrvotR8zVUNiv3ruzDEWx/P4CT+tx75B6duUxksxU3yePE9mfDJqHvmj8hR9zRxxvyjmU+dX5LD0O2By25hN5D3aQzVKxjjZQucmOcv+DWvLIA4lXqfEGNdAzG7EwNVEq/V1dhUgrbgIE8QuFiSA1fNMrHjPTK5Y4GkxFZPaKAT5fH0WTxd9spWKSb8wpcXlPPtrfFQ/4XEB8itCIoueFxvTpvzogSh2tKjEc8nfmCcxJsWD29bGzLPFO554YH2yMW1WelyxfpqY9fPH7Wvixmzi7egmozKkWBEM+uM34+UchX5LnkSOyE81niggJCyoLf/ZNt8Wy79iQ+4/2qtjMmlfk28jTyIesQaknJt2sFjJOTLp46qYbRBTMV6ex9wHnvPcdhSzbefJXG2hm8fCfuAhM6DzFJka1tu5WAg+RSzbfDdxY8xuG7N27MbO6D/NVxnjZAudC31NcDZZW6Idk3OzsXkQX7SfyDtiOCXsryhakbQtJy4V2aboU9FZKeK3tA19vTLrPUGAwjhVGMHwKzMMTsEpGAADBgMQrUZQbmHBSjtM1u6lvDO/BV9g48YCAaIVxf5G6xpqwca1ABygFtwZAxCtN5pQb6eVvi5tdmBv1E8sYicsYhCtWKgw38EAGAADd8gAROsNJ5WEa3lWLD7vZu2+niB8bjgub17oQrRiscL8BQNgAAzcIQMQrXeY1Dcv2pBTFGswAAbAABgAA3fHAEQroL47qCHasbMOBsAAGAADYOD+GIBohWiFaAUDYAAMgAEwAAbAwO4ZgGgFpLuHFHfL93e3jJwip2AADIABMLCWAYhWiFaIVjAABsAAGAADYAAM7J4BiFZAuntI196JoT3u3sEAGAADYAAM3B8DuxGt9Pui9PNNt/Y7o9F+9qf/Xmuy7MWO6H/+6aXj8Q39DJf4E4yvVDAu9JNXNEfrn19+Jf9OvdGkPw9qzlP95zD5n8pkfham85+8Nfti7Xu2XihPr1V7MO5k3ntM4Bw2UcBAl4HdiNZS8HZZyNNfmeot1nsRi3uxA6L1FRewC82hGdG6K/508e+KVpavyRuPs329UJ5KLdX+43N3MUTc2BwAK2BlpwxAtE4lBqIVBX2yoE8KHh7PJAa93egxe7yv+P4VxdDZQm5qPk7m4tS+JnN4tq+vmKeGmVNjhesgbsAAGLgiAxCtU8EeC4ezF7ApO8aL9V7seLOL4qTg4fFJf9msL1pXPS7zimLoLvibzOHZvr5injh/eD+uq4gRYgQG9sHAlURrEn30vOrx6DwvFoTbRCGPi0X8k6XpubL6tX1+Lu3jg33nM9E3B9P+M6n5WbbjcanjHpaygOUxyFdLbOh+eT98/Jn3uq84rnjOjgnuuBhX+xvb1HnxLOogdkJ4qRgchT0V/BizkCvVvrHroJ83rD6cEjvNz1HzEu1JjIq2lh/K9pT3Dt/GzYmIXXM+5U/GRM8nJXizTeGaof0H3Vdru+jjeFykLXXOEvPNaxM3Paayv4lBZYbmRLSp6Zfapf4LG5prnW893iuIVhFj06/zY0axwytxglewAAZujYEriNZcbMVC8bA8mYW5LoDNwhgXltwXv5ZEQ+6/u5gxMbIuUWoR1IvcgYuDuuhbYiQtTmyRzvaXBdbo27O16Yvs4PERoqSOm2yrtkbhKHJEQpGu6ccg9ifGTcWgl49kfxCgNMZhaewiwcr6Tm0M8TQRu3CtYEvxE2NNx8SNicFxFkOiv0nBI3LavSaNW8YweGk4iG1elpfn41IFuWE/sSHyfurcHOebx5bz3tg/mUfOjYhn9qvErPQ3uKmldt181EWux7a0p14jjs/maSbnZDte7Q0LxAVxAQN3wcDlRWsuuO0C0ivktiBJYqUKHFoAuNCJ74vAUUIrLkbt9dSP/6r6MeBPCy8TgaGN9l1/zv14fvn2GH3nvtqFNIuVEpMcd8cWMWaMF+UiLfhFbKiFPY4rxE8ap7Wn5v30mFkCrPYrfDBypc8nOxgXOTZV8Fm+OAJIxUWPZX5W14hYRlsqV3Y8FZ+O/XyeRDtmGODxm2hv21dzY59X9vMxvfcxZpQzlQsVsxpz1a7bd415vb76EY7Zvsg23rXx+GSe7HFOiJnnL47fxWLeZQ05Ro7vhIHLi1bazbG+VrSC6C6MecHR4iv0wa/hixktCvmak8RhtHG8QJgLC7frQLuItNCyxU2Jlpni4/nS2pFs1wJsZgwRV1qkszBN49MjEr4YaO2pfpvnVMwOMTYknOnacT6m/Mv8NbHUNuR2wl6nTbJ3LHiEfbEvuibni3afjXPlxiHbdaDdaLpp6NrGY0lj8WMUY+PV67fYMRJyXt58fkSc2DiJTSdm7nyaHMe9XsZE8MBtm33vxVMwv2HMZu1COwgcMAAGdsrAFURrKPR5sSjPodJiIxeBuEB5hZz6oIWZBzRfExfz+D71H8TIy4fH5SkLgChOLNHL+zLfewtHtd9cwJQvsU2JQX0uc8vnIFs7sjCx4qZ89eyjXfIav5DPl+Xxw1P++jnltxVTfRHT2qpuQKJ9mR2WtyQyOwwpv6TwyfFo8sBuJlTe6Hphr9PmdNGahWMQLB8fl8fn/DmOk23LYzbPjJIvlGPPNvP4FnNzMA8oH7P2U/vua8pjZLPELDMRRR/LZ+kn+0pxKser/THX8foxX4IHr6/ecTMfag5sGjPlZ882nINoAQNgYIcMXEm0smJZirCzKHiFfEK0xgWMXf/wMYyRFqpwLi4yowXLTNI2ojWJLWsxZfExx2/Pe321C+mcaI3X6f8gx2IZFvM6Zn7uMZ4P/jABoexv7am+mOfUmAe2U1/FmsOOGpvEZn3NsWACWPqVbWtsSMeFvU6bk0Qri18YI7AaYx1YFQJszGH09VTb8nXuf5T0+mVxFzFix1MOJu1vrqvM6FyGG6UQK5rf9Nn+z383IlqFaN4yZlYccawyhVggFmBg7wxcX7SGBam3+HXOVdEkwZLHU5F/eh9ek0AkARAWVGs3cJyk8WJnLtbaF7EYSR/GNqj2Vl95PLlgp3j0Hw9w2pj2Py0PYewo/umGIFxvC0kzLlmUmOfUmDK3KgZT4oZdE2PWfhXejKFsoNxIe1PMJE+ZEycW1E/7Sn3VbwXSHMmxpkcFejduPBY9+0tfLC4T10abnX65P00sed+z9otrHDtzXy8fHtKu/2eHJPCfH5eHDy/sP6Dx68fzOPpizS3DJskDH2fyvRPP2G/J06TNzL50/am1btJ2Nh7PP94jfmAADFySgcuL1vdPjVBMC5stcrqClnbd+G5pLvxVPJBwYP9zOrcJO3VxN/aEgpsWAsdmet5T7eC1vpBtW+y2aqGZhc/zy7JetBp2ZYEnYmbEMeVS/gIAB7a3sJvn9EI+KSD4mO57sp/xQwu8+J/o2obMi7Y3XVtzmc6/LC+nitaQu2JbysmLzmfOS+XdKJCW/fk6wf+mczPbMbJvdH7F3Cy5K/Muzwnxqw88PpnzEmN+jr2PNvpznfjSPNDx6dcVeQrzsJvzErcaA1kHmH+lLY5N5woxw1flYGAXDFxetJavlfkznHWhT0WDFVp6Pq+8jtuKhZgEpBCoJMrGC5FfxKiP6gdfRMwFzFqUmH31624msNdMjNx/6if5FkVkWcTDopRjO1qoqR3FPfTR2E95YjkhG9iYVcjWWJGvp8SsiBOyjV6HPhmLchZN3J5kb+uTyRXzUz+rHX2L8VjLWWWLx6fEUYxZv6kgH3j+E7+1v9rGtqmMQTEtO3wUO8p5m0sh9Bm3TZ+r7aex+680Do8ZscJzR8dqLKovpR1xXOJQ23DxR2NafXE7/DrCfZrPE90Ay3HtnJK/6+3htuH9XA4RJ8QJDFyTgauI1ms6hLHuawKlBdhYnDfcsQMz98UM8ol8ggEwAAbukwGIVrZDBMj3BnneidI7dSFneWcMu0l7yxnsQR0BA2AADICByzAA0QrRuovnVLwJbu+00teqxg4s8rnrfHp5xvHLFHjEFXEFA2DgnhiAaIXI2b3IoWf0xPN81u4rcrn7XN5T8YQvEANgAAyAgesyANEKoQOhAwbAABgAA2AADICB3TMA0QpIdw8p7mSveyeLeCPeYAAMgAEwsEcGIFohWiFawQAYAANgAAyAATCwewYgWgHp7iHd490ebMIuBBgAA2AADICB6zIA0QrRCtEKBsAAGAADYAAMgIHdMwDRCkh3DynuZK97J4t4I95gAAyAATCwRwYgWiFaIVrBABgAA2AADIABMLB7BnYiWtPfN7//v25EP4pPf9f8Cj+On/9yVPkb6zc7KWvsTF/03453fsdV/+ar2ddkjGJfzjh7vEOFTdg5AQNgAAyAgVtmAKJ1UqBsnuT3T8vxCNE6H9eBaGV5nBKTG4j5qXGYXfO+oqgiVmAADIABMAAGNAOXFa1RmNGuovVKou3aO61VAIm/snRkNn58uOw2OUTrxeI7JSYhWi8Wf11k8BkLDxgAA2AADGzBwGVFq9hlykLRFIPXFq0KnmsJSB6Pa425gTjbArRr9gHRqvjm3OE9xDoYAANgAAzcKAO7E63vPrwsdffzaXkwAivbHJezn4UdCsgkqqtdtEOsxIF+rvJo2x8F3FZjGvERApGJ1ijmaDfZehYz2sR2mxv72Y2H8nVdDlg/lv3M5sNB74o7sWf9XF20qlhYz8mK2Icc8Ju3fL0Vw8S69lnz2OGMxUVwIY7n/iwmRDvFO85h4QMDYAAMgIErMrAr0RpFYVk4bWGTFn+2SHcWfH+RVotvT0BmIccFBYlmLk6sY8lWLTjy2L0xD1lEcGETjpXYKPt7wMT4vCwvz1woGf2HdmI8Eoss1kJAMr9yjHg8RrHvCsts8+Nnys9uzGrbbt8Uq8zNGpu1Tym/QeTXWCQOeMwOSzgmxsljV+GaY93k15gD+VrOY7JDjqlt7X7O+eN+dNtTDPGKxQoMgAEwAAauyMC+RKtatBsB4AiNpt3aALpiyBANsW8tMpII5EIiLfqGOCTb3DEPy8Hx8yQh0QikJO5SzKrYMvvOYqYKrux3swPr+V+FpO4/jl/yra6P4xoirBcziuvhsFxXtKoYTuZOC00zH0Zftm8qfiwWOu7258xpyYefN/t6tEdcwAAYAANg4PIM7Eq0atGnxaj+XACZFDOlvV7UveuzaNB2hX6ELfH6o9xNy2PYIuOwHLwx43VZRBztPl0/tF/hsyF84vUdm0v/zbVarJ8BaBw/C9M8zjGLJhFb7lM3ZtUWN+a8r8a3en3xn7c33pvjTPbb+tgKz5k2yVbv5mq9T7O+ox1iCwbAABgAA9dm4KZEaxQJ9Exm86p2vAyR4QbXE0MdAZIERR7Tu552/ZqdyZFoDROBdjXpGdMT/fN8MI578W12WrfYkYvjJ59CLF8+PC5POU4xttYYnTjz3JpiUvNg+M/7mHlvjmP2W29C6nPRIa9yN1n2l/Ivbphy37IP4oM//oFCOpM/tAEnYAAMgIHbYuCmRGu787RRsD0xZAqQNKawxbueROsZAixOqCJWThCung/K5iRYVf/NtRvutLK+Hz6GcVPfQSBHW8TztTnPymav2Ejx5zDCxvf6GR03x2n6tb96F/yQoOb+xX5UPvKzzkLI0rV4xXNlYAAMgAEwcOcM3JRo7X+l7oiTmQRysSDaZ5HWCCh9vP1qNwke7/jMTqvypxFD6rywm51zrksilXb6srDSfjbXbihaswB7eh/GTnZEIffxIYpWU5i5eWL+9m4UeIwa32QfI8Eazk+J1mhz+5iHKVrz7nrwPZ5vbnY0d+tttv3K+W/G26p/9GPHHXFBXMAAGAADaxi4LdFavjInsbVRsntiyBAdSXDIXTDrmBSGytbBmFq0Wf1PJdoSZ41PWQzxr6tzm/BV9EUeDyi5ZF9rZ1vlmCxuvZgxQWqKSXY+xs2Ki24z+GyOo/sln9gNQeKifTwg2JXE6tPy9MzjrmOwwc+8cd9KriXTU3zxfvAeuzxgAAyAATBwQQZuTLSmxbsu+hs9zzcSQ2VRp/Fs0ZyEJbU5LvQfi8riTwKmeR63bdv0xQXlKiBIkDK72E80FdvoZ7bItrDrpgUYCc2NduQoj40o5vZNxqyNV/W33gDkHUXyUbzaOa3xYcIxx39KtIa2ip+yk2rltPjbsae0qT6e93NV2Gnt5RnnWvYRE8QEDICB12DgiqIVCX6NBGNMcAcGwAAYAANgAAzcAwMQrat2LQH9PUAPH8AxGAADYAAMgIHbYwCiFaIVz9+AATAABsAAGAADYGD3DEC0AtLdQ4q74du7G0bOkDMwAAbAABjYmgGIVohWiFYwAAbAABgAA2AADOyeAYhWQLp7SLe+U0N/uPsHA2AADIABMHB7DEC0QrRCtIIBMAAGwAAYAANgYPcMXFS0/sqv/MryxS9+cfdBwN3W7d1tIWfIGRgAA2AADICBt8UARCvurHBTAQbAABgAA2AADICB3TMA0QpIdw8p7qTf1p008o18gwEwAAbAgMUARCtEK0QrGAADYAAMgAEwAAZ2zwBE6x4h1X9b/vlxebdHO8+16f3Tcjwe67+PD7ufMNadH45hRwAMgAEwAAbAwOUZgGg9V3hd+PqHj8fleK+itcTu3fL4fFyOZ4vWh+XpeFxePrzrit93H16W4/FpeSjjX36ioZghxmAADIABMAAGzmMAonVj4RJFJt89PFNwQrSuARyiFQVxDS9oC17AABgAA7fEAETrZqI1CaZmB++zx+VpsPPXAwaidU1BgWjtsYRza1hCW/ACBsAAGNgbAxCtG4nWtMM695Wz3o3tfZ09Eq3pq+7ec6FMyKlnSJ/er52Qqa9wnRzX8Fs/l3t8WR4/88YbPx4gx5OPAOhz4jnZ8rgA3VSwWPEdceNxAd1vL097m9iwx2MNx8EGGAADYOBWGYBo3US0ZkE0fCYzt+OPDJC4c671RWsWekJsGf0fuFir4jIJsp6QtCY166v4kO0on8N1D8uT+HxYklD3xuuL1nRttf2QY9aKyGRfe1z6knxn/RkMzI8p+77VQgC7kUcwAAbAABjYOwMQrYZgWZ20vIM52rn0xFJPQLqiNY5piMDGFkvIHhYSfiObZSycvjxbeGxdoRmKREe05uu0nXYsNxKtq8ZEkZOMIB6IBxgAA2AADFyGAYhWLqxOfd8IRStZ1o5kbueIpAC9J1qbncBiuxZuWWg6O7nrJpbue2x/7d+5Ntrti1ZbnB6WgymUe2PUnLh95hi6580xa7/VVxxDLMAAGAADYAAMbM3A2xatWSzKZyD7XxubCVgjWi3xmO2wvtbuilb1FXyyTYtU/fmcSeSIQkN0J+HXPj9q+djbaU3ivO0n5UzvNDv2FUGffHdFaW63bsxz4olrzfmk8oU24AQMgAEwAAYCA29btG61OJL4tQRpGcPfTex9VX+qaK3i8PqilQSr/Eq/Jyj92IwEpixkvTHqhB/1OTovx6z94jhiAQbAABgAA2DgcgxAtBZReU6Qs+gS/ymq7c8TQ97xAL4nWu2vx62vzS8vWqX9ORbNLnBPUPqi1fXTzFunH95+9DX/6DzvK7zPO+33/0cgWqZRnBETMAAGwAAYuBYDEK1agJz6mXZbtXAVv9NqCMjOowEBAle00n9eEuLQ6J9+PaC7Czw74Qzhadifvl5nX92X2MifqqqQ98RmPqfj6uSpGdtqR/a4MTllzPAIA/PZGhfHun+prPIwyyPaIWZgAAyAgbfEAETrpkKCxA57BlOIyjC5srBkvxEqv0bXv4HK+iq/OUqTtB2vPhZAbSwhS+fWvra2h2dLtf3lGdXiY3hOuBW8SWBK/+j5Yt2n2dYUnTMxYbujwkYZj+kxsdMKMbppHZEcvqUFCb4i92AADPQYgGjFYrNCcLTCswcXzqH4gAEwAAbAABgAA1sxANEK0QrRCgZWMIDiu1XxRT9gCQyAATCwjgGIVgiWFYIFO60oMOsKDOKFeIEBMAAGwMBWDEC0QrRCtIKBFQyg+G5VfNEPWAIDYAAMrGMAohWCBYIFDIABMAAGwAAYAAO7ZwCiFZDuHlLcia67E0W8EC8wAAbAABi4RwYgWiFaIVrBABgAA2AADIABMLB7BiBaAenuIb3Hu0X4hF0QMAAGwAAYAAPrGIBohWiFaAUDYAAMgAEwAAbAwO4ZgGgFpLuHFHei6+5EES/ECwyAATAABu6RAYhWiFaIVjAABsAAGAADYAAM7J4BiFZAuntI7/FuET5hFwQMgAEwAAbAwDoGIFohWiFawQAYAANgAAyAATCwewYgWjeC9N2Hl+V4PBr/XpbHz9bdSeDOC/ECA2AADIABMAAGwIBkAKJ1U9EKgYoJJicY4oF4gAEwAAbAABjYhgGI1quK1ofl6XhcXj68Ww7vn8Su7NN7ldDPHpcXsXNrC+Jmh/fjg7m9r9tFG5jv6fzT8nB4tzw+sx3j58flHWuHiafyhNiYvIETcAIGwAAYAANbMwDRupHoSKLPFpY1aUm0pscIgkBMQLfXPixPSiw+fAxCUvbfXndYwjEtgNO1dbxDFsRcuKa+klitx7O9jhCufmFiIhZgAAyAATAABsDAZRmAaH0N0aoEKYlILTYF/IbQjGJU96X9ydfpvpNIrUKWRKtuNzWGHhOfsfsIBsAAGAADYAAMbMwAROtGASXR1/5nrCoMD4dzdi7ZowXZ5jJmR7hqcVqEcHw8oe7cpnb1c2m3UXzQ32XvPhFfxBcMgAEwAAbunYG3LVqb50bD1+NcZM5PgDnRNy9aiyAVz7Xm52G5kFTPxh7VV/np0QD2jKror4rUOfvn43HvEwf+gQUwAAbAABgAA9dl4G2LVi7+znw/J/rmRCsJVvlVfbvTqidLEahMuKa+xkJ8zv7rwqn9w2fEHwyAATAABsDA22UAovVMsUqTZ070zYjW/L/3m6/8x6I12NI8g6oeAyB79euc/XWikECu/2mrntN94zNiAwbAABgAA2AADJzLAETr7kRrFp78lwLYYwxVJAZxq3dQLVFMP2Gl28rJs0605nHCowaNuJb9ngsorkc8wQAYAANgAAyAgcAAROumotV6drQ+Nzr/H7FIaFJ/QXBaO61MPOZnVauolYDTzqj4j2LNYwTcVnm9LhjUnzeebo/P/XgiPogPGAADYAAMgIE+AxCtG4lWgNYHDfFBfMAAGAADYAAMgIFzGIBohWjF78iBATAABsAAGAADYGD3DEC0AtLdQ3rOXRmuxV09GAADYAAMgIH7YACiFaIVohUMgAEwAAbAABgAA7tnAKIVkO4eUtwh38cdMvKIPIIBMAAGwMA5DEC0QrRCtIIBMAAGwAAYAANgYPcMQLQC0t1Des5dGa7FXT0YAANgAAyAgftgAKIVohWiFQyAATAABsAAGAADu2cAohWQ7h5S3CHfxx0y8og8ggEwAAbAwDkMQLRCtEK0ggEwAAbAABgAA2Bg9wxAtO4Q0ncfXpbjMfzp1v4dGf0pVfrTrE/v++3PubtZde1nj8tL/rOy0bbnx+XdwJdV/aOv3RcW5HMncxFzBXMFDICBO2IAonWHyZwVrUUYZJG4G9HKYhqFNUQriiZjonCLY+ACDIABMAAGVjAA0boiWN5im0TmcaEdz/Z1vGvK+96/aH1YnvhO6vG4vHx4Z048iFbsuHG28R48gAEwAAbAwKkMQLRuIFpl8JOg80ScbGuDu2vR+v4pifOPD0KkvvvwtDx+1voD0drGZIYBtEHcwAAYAANgAAxIBiBary5a3y2Pz3JXVgvcKlrljqZuV2CeeDxA7wa7fXXjke1RgrXYYVw7Fq3SR/tZ3nHMDlFMv0ThHMcsO8Hrdrl7vuCcLB6IB+IBBsAAGAAD12QAotUQWucloL/T+vAxCasyRt655CIyCsznl/ifmcpzqrld+cztHojWJOKYeMvt+ZjFHt6vft+zQbfNn7ui1bCjsfVwWGZilkRrvhkoojqLXTxTK3bFp3Lt5BPXYoECA2AADICB12IAonXzxbkvWttEt8KKdkWlQG3blb56otU5V3dz5yefJSiLDU4ce6LVPjcTPyMWhvgPtp3i58gnnJ9nBrFCrMAAGAADYGArBiBaHbF1eoBnRJcEWIs3T2i5otERpsEHry/+dfqsr+74nRhq3+pYXpyyIC27pTJWdH3T7wm7wNQXXu0YIy6ICxgAA2AADOyJgbctWrPYk//bn32N3hFjfhI9MZbBN8c8Lkf2FbYnNL3jh45oTUJTPkNb/VWPKgz83VS0enGgZ1G5aPXaspjR4wFydxrFxucUsUFswAAYAANg4LYYeNuidSDSToO5I1pJfHFBFp/ZnBOtze4i2d8Rra7QpWtXvKa+jssaYejafOjEids0GTOI1tsqPKfNLfiIuIEBMAAG3jIDEK1cIG3y3hdjSfS1u5ta2NlCM/V7VII3wtsRrac8BuBOCEdAuu0NQV7bzj0GMBuztaI17Rr7vy9b7USBRCzAABgAA2AADOyBAYjWTYQqh9kXrSSs6v/az8ItfCXOvuq2RGsSWc6jCz3ReqmIA4YAAB4vSURBVKAxnGtX+p9sOy5aPJ/0O63Of54SE6NpQ/7ImFFs53aB8w2AirsYd2VccC2fA3gPHsAAGAADYGB7BiBaNxcnHdFa/mNUfcY0iCy900rPqNZnT5VAizYz4UXPgZbXVqDSzqLo09q1nYkH7biW8eSOZRG27DyNWwV7htno63iUu9G6PzNmK/8jFsWjsWfGf7TBT2iBATAABsAAGLg6AxCtgO7q0OHuc/u7T8QUMQUDYAAMgIF7ZwCiFaIVohUMgAEwAAbAABgAA7tnAKIVkO4e0nu/c4R/2B0BA2AADIABMDBmAKIVohWiFQyAATAABsAAGAADu2cAohWQ7h5S3H2O7z4RI8QIDIABMAAG7p0BiFaIVohWMAAGwAAYAANgAAzsngGIVkC6e0jv/c4R/mF3BAyAATAABsDAmAGIVohWiFYwAAbAABgAA2AADOyeAYhWQLp7SHH3Ob77RIwQIzAABsAAGLh3BiBaIVohWsEAGAADYAAMgAEwsHsGIFoB6e4hvfc7R/iH3REwAAbAABgAA2MGIFr3LFo/e1xejsfleHxaHk61M/fx9H4Mw+UmzLvl8fm4vHx4t0uB/PDxuByfH5d3p8b4jVwX43Rck8eU9+PHB5b3vbKQbY3zLcy5l+Xxs9ecMxj7cvUIsUVswcCtMgDRumfBcSeiNYmdM4T3hXME0TpXwLcRrYfl8P5pOR6Py+veSHV8jvZBtN7qoga7O2xfuJYi9oj9pRmAaN1oEtOCHhbj+m8HQu2Vd1rffXhxd632ErOLitZy48G5OC5y9/FChc4Y+7pC0dppTb72uFhb9FJfPL5nzjuIVrYzfiE2N6q7a1lBe+QTDNw2AxCtGxXPVvg8LE/nfrW/hW2vKlpTDLzHAvYSs9aODSe1Ff8iJs8UVx0+ok/GV/kPH6+5g+iL1sMhnzvrsQz6Sl/79LA8iUcSVuYTohWitTO3IHpWzifEEvNpQwYgWjcKpiV8aAdI7m7RQlt3hhpRV0RNbmMu7EkQhr5pnLTDq4QQE00kZGI7q089Ln+WlvVjFe1kgxzbOsav3TJmcazoE90spNj9/+2dW3Ljug5FZ+Khdd2x5IzjVI8hZw79kX/Px7dIAiQIgrRsy2k5Xh8pP0SRwOaWuAQr9qDtyes117jTywNgBpvPy0fVLOVu5lahaaZb3t/fH2r2zxc8HsY0djdWamvnU/rufRcsNAbO+lz7eey3rT/W922z11QLf6xtjdPvJ6+Lv0aNrMfq8zpPetz1OdZ2qW+jS/d+jaP32Hj/q8xjytuNG/kxHiOYrzo+29AMD+CB9/QA0LrTQpAXawsOFY76RXWodMnCPVvMon7LwWoWzgoFsljaOPKi+XX5+mM/kpZ9634KQz2QFADR+Ms+szgbNOqBZBbuicZRbhGIbNGs7JeARONV+Ihy6oFljEP0GXQ0GgrYfP1JfYk2f77yP5uVWGSMGbTK+03P2ZyYfKqnPJDbfQMPTPTXe0t7sFzsP8sl9x/td80DNm71zdbHaLx4X/WGhfje226/FbQGx+vYv8TmLzxkXxsHC6/TfuZV3qdahwfwwOl0AVp3OhAG8JEFvquAhWOtF9+h39qHLPgWrCrUGCjTOAygpoWyLLQKRKWvBlC6kFioKHHWNm5hz3HaMZaAU/ofctNYXU7jwj5qNoJDGsPlNYnJx1H6MhqK5p1mHbz0c9G1m4ypwKgAE48peRpdS7sexJM+LQc7ZzqPk8cuh9YmjuVUq4Yaczcvzg9l2xh/t08Xdxvftwlfi67Vj/W48P04D9R2C53CXFK/s3y8H+W1/aQijzuLxcfM63DO69yhD/rggXf1ANC604kwQ0OurOjHj/6j3/lB1oBjbDPfFi+AA3BsgSaBlwhG7Pj5uQCUwlOBhmAxny78Lcfc306aDXkHkBC3scCXYvMA0uLVj3qzTl1+PQCVceSCINJf3mv/jBXoJ760+qeTVNd35N2hb8mv6qwXKnElenkijHKZxFn6meel48zmRLdPHyWWq9C60dvdON3cjvMfjdnnsfBQNGe8RwUJD+ABPLDJA+8NrbrA1wU9AedYYesWtImxergQiIn6Csd09ySaMfp+zQLqq4iyT794LqpjFkBmi7RWwiSP3HeugqZF+evy+99P+S/4skh3i/miT9Wzz+0xzYa8sx492MdtJtBqqpsar0JrzrPL7zq0lvuN2wVNf4GgubftXXtTeS45GPA0Xilx9rHU2FO7LmZ9PVZtu31s/9Yz9n31iYmz9HEUaI31yv6LjlGvk+a6yL+fF6B16iHVksdNCzQ62jWP5/iB2wN2O3H0ANaAoAM5BVYHRMO+5oQ+39YDmZp5ALPZQmsXZvvcjJ36tOO3vj8unwlQct8J8kssHYgt+tRYbd/5vbyPq1Bv1KzFZk9svUZxmz7HWml1c5Tjs1p2+fWgWMZZVFqdxssxXduub7et6LoApi7m5tFu3sI+RVObv2s3zGXe/kRoFc9dvf3G52zijmNWXQLQXeTfe2sxB2Z8PQ54tMcsz/EDHsADcw+8d6V1xwVkXABl4TKVnBlwjPu2CZtv64FMTd4vnvNKa+63xhb3NdwTmgHg8/KRHjPUlRw//0n7u0V+scBrrGNu92s25J3n1uUVAYzEaeEn7ks/mpdKfNdXGUc/7u/meYMOSY9Ri+YB1Ss9dn1P/Dtt08WscLZPpTXULI9n/nktiHdr3lYDfV487Hw3jOE8ULfP3lddon7Fn8MFjX9fXg+V53hO60XLkX9woeo2y4H31Zc84gU88DwPAK07nYzDxVcW7Vpt9a/1/sl0e8JkgQv7zTHHi+4ADxE0SRy2whaBToECc7uEAp5ZXMt+0W0VfiEfTRzm5jXyryeaDXmHGvVwWaH8z5fT37dr8N/PpYJN377TMtI/8pxqOwBRr1vXd9RPfk+09xcSWUuNWeFsH2jtbp1IMeR8/LdW9Lmo/gr7t5/oRXefZ6rCGh0jzQZvWy29TsO2XrOx/xuhVec+nQdM3Lfr4fXlNRriATzwszwAtNoF6YHnIYBVwGrgVxa4du9iAke/r29j72+s0LT1ntYaQxuz+1ook/Mw7gDSCgktH4WVCLpLf6atGSudSHze5eSiwNX283HNNWv7lL5KvE0zhSnVogBc7n+aq7btQaW/P3QHaM3aqL5tzDT31y4uZidlr1v2kc1TLghs/2NfcUzFk05v6c9uy3M8A7EVHDqvjHG1E3Ee48p96YMWVoc0lgXHrq/ggrLLM82V00GPOT/GNCf1fD/Xq5zZ1uYfLdACD7yPB4DW6ULyPiZ43gHfw9zzxmGuXk9bAbUZ0HJc7na//et5g+OZOcMDeCD2ANDK4vjUxVErXOtqXmxODtqfq0vxhblVgePwqcchx9LPPZaYW+b2nTwAtLJYPn2xLB/fAijvdGJZ5rrptgQWoqWGnLeeft5Cf45BPHA8DwCtnPy/4eRfPgru7i1F92/Q/XgnHP1PebxwxLkhJiAFD+CBY3sAaAWe3hSejn1gcuJkfvAAHsADeAAP9B4AWoFWoBUP4AE8gAfwAB7AA4f3ANCKSQ9vUq40+ytN9EAPPIAH8AAeeEcPAK1AK9CKB/AAHsADeAAP4IHDewBoxaSHN+k7Xk2SM1UUPIAH8AAewAO9B4BWoBVoxQN4AA/gATyAB/DA4T0AtGLSw5uUK83+ShM90AMP4AE8gAfe0QNA65Ghtf4euv9t8/nBmr/If/Nvns/7uXYw6O+9832b92t4TeNwu//d+11/BvWA36ebj4Ht/g812/kYz97fVfdv9tDOenyH5oyBR/AAHkgeAFqPfAIHWo9fBZY5+v6fqS2Aed4RnsqFyBEAMeWmv6D2cfmUi7D806875nv3IihzzgUbi+jdHjryukNsx1933niOgNadJ18rkOfz+ZL/vqHqaU+cefx7x/RVvPMRAOa2hbH8pr1on+fgyTn8EGgtuiko3qa59Z/+4lXy/hLq6gXZ5DhRL/73efn8k/5Su0l8ta/Jdj3Ga7vJmNpuyyM/RcvCvsUntMEneGBXDwCtexmqLogOktL731gduhdaFfb6imGrcvVg8gjUPGtfqTwOYPNx+Xym/jLvvW7PytH2u2el9ePyeQ0yNxwnFXz/+X35WvRXLuyuAKaOl+Fw1lY0+PP78vHv1xxqT6fLTWPq2FceS5/ueL+yz/GPI+sxnjNfeAAPHMsDQOsui0xbPH8t+zNwoJUkqch20FMB+HpFSGGzVnZTfzdXWktcWz5qLgu1xHU+X7q4JfcwppxnBB8ytuhwvrO6W4Hpf9cPsCE+D7VZ/xJrl6/RtXu/xh7pYuDSzetYifRaRHppfqbfpee0/fyx6PEgfCU/qz6S55jf6XJaQqiJUY+PrtLax5jmQMdYzv/WMW/VcZXnrX3RftdqDKBhjiW8hbd+kAeA1j0mUxbYCOD6k6eFkrYArxbcDEcKAy7WAk6tnzTWqn0fiz2pSVyTccL9ZMG+nnMapwCWAkbtL1j0o5xqe5d/e3/rRYO068A4yF3i6j/ilnYh4MbwXuLTMRPQGgj1npHXViOF61hj6dfHM9XIzrd9vlc/ps9gXjstrsacYhKtUl/iy6zHZN/5MfSE/KrG0vctx03d1+jFe0AFHsADeGCTB4DWHYwyXzD9whQAUhpfFvkITqYQOtln2v5KngpIPaj5+M3ryfgNJFvb3HewsMexFo0svEV9du9JLFf3mVXcPEBKf77yHMZ7VQcBmw6UkzY2zxlYraBotk/TvdNoNv9X47+xP+PncT4054/L73yPalSZduPl+PoLsyiv+TF4x5gzrYL3y7jX44ti5j0314G+aIRGeAAPWA8ArTucKDPM2CqaQo9+bFyrQ2UB9TBkJ8Q/D0HpdLrMFstZe99v/Fri07gD0Kz7bYWdaTuFiV/u6uoOGJMxRkjqD/YyTxFguFgmMYfaTtpWnaTKXD86j/y2iH82z1q9vsVLLSajywzkozi3vjfLR97vKs7Vy6tqtYl3EsMUWp84ZtbzGfpNcgznj7bu/HHdK+iIRnjgdT3w3tBaF7RW8bnnnsrpgqnA8jLQ2oxccnIfadsFUrSLqsPthLAA0FB7Mw9VsxZT69e9J31tgtYQxN3FxCS3Z0NrpOV2bzlN7Fytnj8DumbzMXt/OE5uz2Wq0xPHzH58hn6r+WIbkIoH8MAbe+C9oXWvic8LV1Qp8tDm4GjD+CEo1erUWDWctZ8C3yoGWfDDap5si0BLxyogMcZYtrvq5iqOq9tE1xBIGwDNtXGxTHIL95+0VQ1qRXQV26KPuYbeWy3PNvaG954BXZLPeBHhdK7z+nguU2jtbsOwejw+Ztb5GfpVXWy8PL/J12gI2OGBH+kBoHUXYws0DdVBvzDO2s0XpBCUUszRYimwsPwo+pZ8tb8hr/V9uHlxWYBYWXy8NnMNtixWWSd7i0aUZ6RZpOUk9nguZiCm+UieK2idVhpXGq226dgbHie5btF82kb6HKF1FvM1Da/nMYfW542Z8p9fVJSYiy/btxxMNYv8yns/ctHFA9ePZzRCo5kHgNa9FoYMROdLX5X0C+aO0CoVpDaeLPx/vtpXD23NLUFGAKZLEFzCjs97cgCKZiPcTNov8xFtB3C139MqcXUAGczJJLcYWqXP4R+tNIdoTN1mHkULW7meg1jab6PGS8327MfkMoVWvdjqP5UoPptV5E2/i1yWWgXa7jFmnYPOTzZe9eQ9X0Nn++H5bAHjfbyBB97LA0DrYiG8/WAwi5T+M1P3XaYBIAXjlwXY3N9p+uoAT+CgfEdr+YqgvO90EV2YW6HbjDVWbOP8yvgNOjbHn3LvctCczVdDBfqs5qXAiPaTHltcZT+FzNam09TEZAEy7RtDa9J01KXtuxFa07jDHPjY9UvyW+xF+/K6jbmY50DPMl/jWCudh23hPGqcbj59nvf4tVY5dQz36Pvcacwub8l5pbv6cfBYMA9d32ynyooH8AAeGDwAtGKKwRQsnrdB3+vrte1i6vXz3Hde5xcx+46D7uiJB/AAHigeAFqBVqAVD8i9mf3H9pwkFwulVG5XVVb0W+jHMcd5Fw/ggTs8ALTeIRqLEYvRT/RA+SjbfZTP8TEuLHJbAB/5cx74iecBcsLXR/YA0MqiPC7KaPKmmpT7b4Gx9aKV4T74x8Ujn+iJbT2n6IM+eOA1PAC0AmhvCmivcYByImWe8AAewAN4AA8UDwCtQCvQigfwAB7AA3gAD+CBw3sAaMWkhzcpV5hUGfAAHsADeAAP4AGgFWgFWvEAHsADeAAP4AE8cHgPAK2Y9PAm5eqaq2s8gAfwAB7AA3gAaAVagVY8gAfwAB7AA3gADxzeA0ArJj28Sbm65uoaD+ABPIAH8AAeAFpfFlrlN+3/0vdF8pvqnDxYQPAAHsADeAAPfKcHgFag9a5K6ztAa87xz+/Lr5VH5NeR+DlPTtzfeeJmLPyGB/DAO3oAaF0BydZtAi7n8/nS/T21Cvp3K61HO1gUojv9z4/9JCnQyqJwNJ8TD57EA3jgnT0AtG4F01W7sNr2cfnMEPt5+Vjte/c2oNUeuBFgFpC9H1yjPu2Y+Xk495xUB53u9jlaoiUewAN4AA8UDwCteyymM3DRCmxXcRXYNFXZ4bfe//m8nKVKWMBLK7gWgCNoVVA+X3yfv/796qrAfnseJ8WpMUt8/mPvPp7zxW9PB1YeK3+s3uJJFVA/Zj4Ic66an320uV4/YYWAOcxLicfHUbSR8Vz+feX2fDnL7QJeB9/O6+L1P3eeuFGzPTxLH3fdFsPCcf1YRCM0wgN44FkeAFr3WLwHOGqGLXDTAOzjP1f5E2jrQMqCXIUbgdR6j6WHVgXENpaaxsegYGrHbBDW9i+g5eJVvRY5N0Az+0pOHcwN70kONcemo+Yye8zx+/2GGDdAq+Z3Ol3CPs32HMswho9ZL1KarqfTmOdmzfz4vAY+8QAewAN44E08ALTuMdELcCkwaOBtGM/D6OlyikBWK5hnhR8LrREYCTxNYiuQpH0JoPl7QCf7XoM1BbAOUAXUBlB2oFn2XenlobC8HgEz0DWIIeXitVAwHvsMxl5plOY6z2WQjwP2rZppbDwGczEcW7TBJ3gAD+CBn+QBoHWPhW4BLlsgbIAjBzSx4RRaf19+/0kfqzcAte1nQOZhaogh6bLIa7UtHtNXOSOonAOkzSl6nuM3t1yUj+u9Jj6GcjKL492n0lri8nGkcftY4hj6NlHevMeChAfwAB7AA+/igfeGVoGy/n7ECDCuHBALuCvQYipt4ZjtXslsvFugVUHNVSzVwDHM6b2jLa7czvexyOtxaNUqpL0vtkCav99Tc1k9RvEXEBz7t9Xe1GcMjDtCq9c1Xyj1ucYxAK2rOWfblfPSHhfk9MHHzngADxzIA+8NrXtNxBTuXDVRgbXep1oWnQG4boFW+89TARzFMDQudkMMSZtpXutt8ZgjgJV2CtDy6LTZCiZh/Cenv6tuat9xvN8DrQrQcQyjZhozj6OH0QRN8AAewAM/2wNA6x7gOoM7gc8eTFp1Uw+uAbhuhdaUg+wzVCnz++OYOrY+DjE8HVr3BbIwfoXWCsLRmAK2we0VMUj6E0LUp2kz09+9H4+16FvnO7hQ0Tnl0czDHsc5fVBxwgN4AA/8VQ8ArXsYMILWCCrkPYXYk0JV+ojfwoe06/+RyS/AAlsVyPRjbv/VUnMos1ATQl+Ul+q12LYNwMb4bTy3Po/iL3HY2wNkzKq1ajO5J3iYLz8H6bX2MbutxI+Z9ikwai8wtmnWxs/55ltDrl+Q3Kol7ZvOaIEWeAAP4IHjeABoVQh75FEArr83NoYJBSltm8B0AK47oTUdWBVmDMx27+s9sOnRtBliSHoMYCqwZfuozxu0bQawULcEkLF2qxNHzbvGMwFRBUZply8gst4tfjuOn6/u4qJ6ZtSlv+BQsJVbIILvrN2smY4pHonjOc4JxmrJc+YFD+ABPIAHHvEA0KoQwOP3lvwVWA04FyMr4MUQ+YjZ2ZeTJR7AA3gAD+CB1/UA0Aqsfi+sqt6LanKpmgKtnFhf98TK3DF3eAAP4IH9PQC0KkTx+L3wOqu06sfeQwV2f/NzQkFTPIAH8AAewAOv4wGgFVj9Xli1eiu4dveh2n+cep0DiZMec4UH8AAewAN44LkeAFotRPH87wEs2qM9HsADeAAP4AE8sPAA0LoQhyum514xoS/64gE8gAfwAB7AA1s9ALQCrVzV4QE8gAfwAB7AA3jg8B4AWjHp4U269QqMdlyt4wE8gAfwAB74uR4AWoFWoBUP4AE8gAfwAB7AA4f3ANCKSQ9vUq6af+5VM3PL3OIBPIAH8MBWDwCtfwVa9VefHvl6p/LToflnSP9KDhsOsvqVVvxQwNYDknYbfHVUvxMXF8B4AA/ggad6AGj9Kwb7fmjNvzL15/fl13fm+w7QKjl+/rOGrV//fl3OZ+AdKF/7BH3QBw/gATww9wDQuhfECbx8X+XztkrrX4HWvbTdq58K0efL2f6gwSO/vgW0PvWqmpP3/OSNNmiDB/DAu3kAaN0ZiIDWA59EIsBUkL0XXKM+A09RaT2wL4L5ereFgHzxJx7AA6/gAaB1rwVL4GUNre22gFLp+7r8/t/kQFGYshXB/Fz3aZXWAkRaPTQfQU/7kLbD7QKlz1aFNH1lncr29FH4dMzUzo87jFNyztXfBIuu/fhRu9dNcz1f1no7bWUc3/9Qhd7QLu8zzE2Lq4zh9Wzbi8axvk1/neuWx3bN2j6vcCIiRuYLD+ABPIAHrnkAaP1WaDWG/Ofzcj6PUJInTKCpAZlCm4UcA0QVCqVdUDUcwMznPYx5uhQwm4xZx5Axawwmx5P0sdqWwa+NUWDY6jL2r8Ds4fOa2RWO/X6DNhugtY41aVu3i84l5pan337KfughPMqzzEmC39bXqFk/B8NYfu55zS0OeAAP4AE88AIeAFr3mqQA+pawsIDWEHAEahpwCbQ6IAz3vQKPKc4B3LIuZYwGz7eNOe+3QFUBMAuorUpb8wyhUOKo4LwR0qK+Bl2DGMQjoUZRn4GnZvNSPDK72BiBfZNmwfhLL9KexQoP4AE8gAdewANA616TtCO0FjBplbQMHAPkeqAs4DaDoxC4au5xX6eTh6m43WzMTdDqoHuohkZQeYrjuApmMkft4/fycX2DcoHfCYiGGk7a+lhWGmnOQxwnvQ2jeeGRGHxMvN54sVOPE9rjGTyAB/DA3/TAe0NrCDENEG6aGOkrAo+wnwFCzYEw9DVW3E4TcJvBUQg7uhiHOpj7L2tFM4bF2Zgp79W44TaJpVZaFZwN3JbxXIVWc1k9Dn0nzUtOZ9O/QmSLoczNtnjNPJpYVhrNxkv6+VwfiSH0oYmR7fHcoQu64AE8gAeO4YH3htY9F+wBNK9M8ApapbrYVQQtVOW4bwPIEHZq/nFf40Eat1sB2WrccNsAlgKV3T893QGsKdehb5kjX82dtNsWbzzvK42mcVVobRdSj8QwzmccK+3QBQ/gATyAB47oAaC1gtuDBt0NWv1H8rO4bgPIJTRpNbNWVPcZMxk+hCzRPNzmgHEd9yzOyfuu73pA+guIsJ3A88aLh9q3+suPoe/nx9mcj+9v0ayNLfufH/nltYmWXfy0aZqjBVrgATyAB57lAaB1r8V3N2hdg14zwm3QGv13euvrdLm6Pet045g7QGuJ687Kqp/bzTAqgFohXl6nau8ArQqGrRra6aoxyNjn2qc7qflqb62y9rnfBK06Zop7Nq7GxyP/hIEH8AAewAMH9wDQutcEWUDoPso2X2O0aNPDkIEk11e7z/J2gCxVS3OvqgewMD4LTdvGHMYxOdh7frcCWG5n+qi3TdwKYmF+Zn6sF1zbpHvOy2uW9xnnq82TgVMB0xq/+dqqDLrXts8uAiTWcUwFaiqt4YWEnW+es1jjATyABw7vAaD1cCYVAArgqMCbhUgDRIfLY5/YpjkL4FkIBkz20Rwd0REP4AE8gAeO6AGg9WiwJ1WzCMZKBfOdoFUqhQHA6z8vRTod8UAjJhYAPIAH8AAewAOPeQBoPRq0Rl/BlGLUj6sjgDtcDo+Z0h7UcaVVP/Z+J4DfT1OrL8/RFQ/gATyAB17FA0DrIYFvvEcy3Qf5rlXF8J7WN4P3VzmhECeLHx7AA3gADzzLA0DrIaEVwz/L8PSLt/AAHsADeAAPvKYHgFag9fD/LcjJ5TVPLswb84YH8AAewAN7egBoBVqBVjyAB/AAHsADeAAPHN4DT4XWPemavrhawwN4AA/gATyAB/DA+3oAaOXK6vBXVpyg3vcExdwz93gAD+ABPKAe+D8J/H6ZGPZOAwAAAABJRU5ErkJggg==;" vertex="1" parent="1">
          <mxGeometry x="10" y="240" width="420.86" height="290" as="geometry" />
        </mxCell>
        <mxCell id="V3YRm4ihOELG3l42EoA2-14" value="" style="shape=image;verticalLabelPosition=bottom;labelBackgroundColor=default;verticalAlign=top;aspect=fixed;imageAspect=0;image=data:image/png,iVBORw0KGgoAAAANSUhEUgAAAj8AAAGqCAYAAADk7yVaAAAgAElEQVR4Ae29TZLjOqw0+q3EwxN3Dd/orKTiLOGuoXodHbWC915U76EHNfd+/IIkQAIgQFG2bMtWDjpsS/wBEgkwRalL/+d0Ol3wDxiAA+AAOAAOgAPgwFE48H+O4ij8RFKDA+AAOAAOgAPgQOIAxA92vrDzBw6AA+AAOAAOHIoDjxc//31dfs7ny/evXn1+/jlfzufz5ef3x7ZB+PV9OZ9/Ll//9XOuvgoY2L96LCTbtnFewJP5lTiW/nkcRAw3yJGFOABjYAwOgAPP5gDEz9pCfaP4yQvw36/Lx9p5b2j/jDmfTezh/DfGcDj2DXHCuFgQwAFwABx4DAd2JX7uFvQd7fw8Q4g8Y85RLD9+/+SdF96B6T+/L5/3FBE3i5+Py9ffsnukbb+z3ffEBGM/dBdylB8495jFDzgfG2eIn7VF/8aF8xlC5BlzzheWz8v3PW51juJ6YwxPJxI/fz7FgsmCCAJoPvbHLr7ACfEHB57HgQeIn7K46Stk/bxFXpzpOYzUrn8WgxYW73YRLWTqOSE6pud0nvnJO0LiCl4tZhyUZfsXCezaI+bt/LJzOraPFvd0bmpObxFnv9sYMh7dro2LmRhjyc7Tsvix/FCxruOvwIywkX4txrDOk3wLcAt2GK39Z4uZ6KfbOkKqi6vTRtm6FAvCrePgUj+cX8cZ4AW8wIE9ceC+4ocKtVqsRgvP4FxZdHsRUI6LBYAEjVrYxOLC4Pfj0SIgF6a19k8sOnlxGy00ZL/EjAWH8mliLvZ1NOfoXBFQjLm3s7HFwlnGkP6y3ScSRmeJF8VECYi1mA141uYeFap58ZNip+I2sD+L9co/msPxXWGVxqt9RjYH5wi7zf5DwApezmEd2I15xK4jMAKXwIG1HLir+HEX1tHCM3FOFf7uCnx2UQoWXCOSVts/UZDdMWu/wH72Uy6Etc8y6UdzZmFVxzW4ZDxIWBpsKtFo8VQL/ArbWODouBafiugTwpbGLceNKOsEgCMe2K4Rz7jN8NOLEwnBzo4+PjkeZ+EXYWgx6PyPYjC0tZ+/xi73I7srB5ba47zGD3gAD3DgFTlwR/FjFlIu0KOFZ3TudLp0i7htb3/znHbRsL+5nep/hf08zuCz80G2pfntIpiI1S2Est/C9+GcGQtaiGl+3mmRc3YLdp0zwKmeXyoMUf9J8XINZirOS/Z558k2cas279pMCgiJay4aOQbe7V4zN8dnqz/bMB0jYwf6YdcFHAAHXpwDLyV+Tka05EVELjjRoub1swuX+F12MYJFOZpjkghDITIYuyyYvNuxbjFanrOMm+b4+f11+aZdCYlvPEbBSd2GmsSiXC0EOPNul7eTQjhlkXgNZoM+c1cw3s4PifNOmBA+gl/lWbR+52du98yOJ8ZZhfs6Ds3hgjGBEzgADrwGB15L/KiHY8sCpHZJokXNiB8ronyyBotyNMfkwhOLCP8BY7atiJ/rFrrZOT//JBFUcE0Lce5H4iMeI8BpEo/4tpcvMDIeMgbyu5kzxGzQh/Eef0a2kTCpgo1+S4Hu7eLN7vwY/wqP04Pz1/Fi7ONrFDD4gDiBA+DANRy4o/jxF4i8iLr/o2u8+LNzdTciL2B2J8RbiMkOeUU+tfhdYb9dnJzf4YKc2/pzhv+7yBmfcZKf4zkLZt+/0mdZRHP7P59Z/FRxaQUkzx0d5/OLn17MSjJHduvjV2A2Ff9RQYnmNL4Eokbbf7qwiJnb+TF2bYQ/3+qUvMF3g/Uil9EenAEHXoUDdxQ//JxKEyi56P/9CV9vwf89e7gIkOj5/vNz8W61FHHVroTLjkWas9mRglPa6WM2aGWRam0W7Z8pjrQgVlFh+zgLprXD2rn4ezgnLeTptgzvWJA4SLdnWiyondrFKIt97Wd9mfptBIPq44xPtin81mJ2J/HTcYpxZFwr78xujWO/F9PEgxaPUmQt371+w2M0N/63FxatIU9UXgIrYPX6HLir+EkEKcWZ/qZNXgTKgtaKOC1w3TMRZoGoydcW6zaGDEQ7nxbvvEjmRaiJGCZuERVkG8+vFvcZ++Xcc9+7ec2cvBNQng2JcJibK/RVzMkxangyhhYzPt4wUyKkxmiNbSPxk8bp+dHsFPPURZxtawK4YNCPcz2+PQ55LIEp425jmfAq8Rf2TYqfNCbHqtruzbkqDoTLzeOIWKyaH/0qV4AbHiIGBx7GgbuLHyQ2ijs4AA6AA+AAOAAO7IkDED9Q2g9T2nsiPmxBIQYHwAFw4LgcgPiB+IH4AQfAAXAAHAAHDsUBiB8Q/lCEx5Xeca/0EHvEHhwAB5gDED8QPxA/4AA4AA6AA+DAoTgA8QPCH4rwrPrxiStAcAAcAAeOywGIH4gfiB9wABwAB8ABcOBQHLib+Pn3338v//zzz6HAxFXEca8iEHvEHhwAB8CB1+EAxA/UPgQqOAAOgAPgADhwKA5A/IDwhyI8rsxe58oMsUKswAFw4F4cgPiB+IH4AQfAAXAAHAAHDsUBiB8Q/lCEv9dVBMbFFSo4AA6AA6/DAYgfiB+IH3AAHAAHwAFw4FAcOLz4qW/Jzm+cv6dqHbxV/O5z39MvjI2rPXAAHAAHwIHX4sBxxc+v78v5fL58/yJRcncB8qh5XouAKBiIFzgADoAD4MCjOXBM8fPf1+Xn/H35zNucjxIlk/NkUfZz+frvdKm7Uufz5VztbUmiz58v50DA2XY/vz+c7U2yL8/lzfdx+fpLc2T8Upvyzx+v2floUmM+YA8OgAPgADgw4sAxxY+6tzspSlSfa0g1OQ/tSGVhUcUMCY+/X5cPsuPj98/l+5ewgwVJ7VPOFeHDQo+PFXFViUF9pYjp+5ENWfCI/nUHTdhyM1YYq8YGWDpCHfwAP8ABcOA2DkD8nCZFyc2L0OQ8JCakEEkkT2LH2/2RCRAKFiOIZJ/0PfcTwqqcL/Y2O1j8aCF1Ivxau9sIaW3Db+AJDoAD4AA4sDUHIH4eLX7qbaXgttENOymeQCqCKL4lFosXcZsrC79+92lrMmI8FDhwABwAB8CBR3AA4ufR4mdhF+Y0LX5oJ6kTU3ZnhneNArHFt8u6cah9tRfi5xEJiTlQ+MEBcAAcuD8HIH5eUvyQ8DG3qrydH51EfOvqfGm3qeztrYh0ED8aywgnHAdO4AA4AA7snQMQPzPip+6O9Lsq8wEmwVJ3UoLkmNn5Cdosi580J4mYaof9HdjF/Yzgmvc/GJd8OW897s3PaAX2Ylw8gAwOgAPgwMtzAOJnQvwUUVFuA6n/YbUqATYUPyzGqoCR/y1eCrTPy7cVFc7/7OJbbW03yFv477PzU59JOov/QbYKV89WHLtZlCIGL1/cwQHUAXAg5sBBxQ8JkeA5l07gsNhw/tbOPLkGcwoRw0Kks8EuRrxjQj4k4eLu/FTb2zM/7thOu7MSJPcRP+wvdn7iJJ3nGMYAVuAAOAAOzHDgoOIH5JghB9qAJ+AAOAAOgAPvyAGIH7ujgt/Y7gcHwAFwABwAB96aAxA/IPhbE/wdr1jgE67EwQFwABy4jQMQPxA/ED/gADgADoAD4MChOADxA8IfivC4Wrrtagn4AT9wABx4Bw5A/ED8QPyAA+AAOAAOgAOH4gDEDwh/KMK/wxULfMCVNzgADoADt3HgcOLn33//vfzzzz9Y8CH6wAFwABwAB8CBg3IA4ueggcdVw21XDcAP+IED4AA48LocgPiB+MGVDzgADoAD4AA4cCgOQPyA8IciPK7UXvdKDbFD7MABcGArDkD8vKT4Ke8JG7+INCUJvY+rvsNsRy8PNe8mO8v3m71kTFCUtipKGAdcAgfAgXtzAOLnJRfaWfEjEiiLjR2Jn4o7CTSIH+zAVU4I3uIYeAEOgAN34ADEzx1A7RXr4I3u4q3sfb9oEdi/+ClvmG9vkj+fvy+fLtYQP/Nxj/iA48AQHAAHwIE1HID4cRfk+5KoCINIDMzMvWfxw7fa7C7T5+Xb3d2B+FmTsGg7kx9oA56AA+DAmAMQP3sUP/99XX7qczpp98QREufzJT3zo3dYBoJq8baX3Z0ajDXArNhj7R2RcFn8aB+L311iL2Im5jFtl5+dGtmPc10sBvxAW/AFHAAH9sABiJ8nFOrxzs/n5fvv1+VD2PX5xwog2vn5+3M517a0uNffJsFG4ofEgBQBZc61AmjBBuFTI78QJc75zg7H1tNpBjOaJ4tKIc7owevvXwYvx5ZmM9oCC3AAHAAHXpkDED9PWOTG4sdJqG7Bp10aK3RGC/lA/GSBYcdKgoJ2l6YJ3tnp+NLhPRA/NJ4VJlP4dbaw+LGC7go/Ox9m/ESbaR4BXzzgCg6AA3fmAMTPnQH2Cv7U4q3ssgu0/U0La7fgiwU3FD/BWPzf5N3ndMS40s7R/LKd+h6LnxCn0Bdpl/WL5ulEnuyD7x5fcQy8AAfAgXfjAMSPWogfQ/BwUSdbynn5P6XK93Zbyi7sbHd0/HQ5RYKBBMtZPWMk5n6i+Cm3vIQtykZx6+p0Ms8+tT4NM4ifdyte8IfzHp/gAjiwlgMQPzsTPyx89K0eK2rsbyI+CRndl85F4uea21shZsWu9hzSTEJesfNj5p/DDOJnbXFA+xn+og14Ag68IgcgfsxC6gax7o7Y50WuI3288xMt0Fbs2N/FjjKu3hGp/oTiJxYfte8MRtSm7NYENrjjDOYPbZa4z2IWtZNjye/U/ny+uGLS9UX2x/dr+IM+4A04AA48ggMQPxOLGO8spFtDWyyEsfg5XTrxUIWX/C/ejvihdu02j0mgkZDI5+T4pu8ERo2stPvj/fd89xbaQPzwc0fhH0gsds5htlL8CNzx6o1b+IC+LTeABbAAB/bCAYifmYW9LoT33vlJidF2HMpzOGnOXux4z8N0wqza3Z6Bqc/22Ad/3bZrdnB0Uvf2aez6881G64fbVgmpGcxWih8RB2vPXpIXdmjOAQ/gAQ6AA7McgPiZET9og/92CQ6AA+AAOAAOvA0HIH5A5rch86ziRztcHYID4AA4cGwOQPxA/ED8gAPgADgADoADh+IAxA8IfyjC42rv2Fd7iD/iDw6AA4kDED8QPxA/4AA4AA6AA+DAoTgA8QPCH4rwuOrDVR84AA6AA+AAxA/ED8QPOAAOgAPgADhwKA5A/IDwhyI8rvhwxQcOgAPgADgA8QPxA/EDDoAD4AA4AA4cigMQPyD8oQiPKz5c8YED4AA4AA5A/OxV/NTXTejXQiBpkbTgADgADoAD4MBtHID4OYD4ye/Gsu/y2qvfb2jX6EW2KGC3FTDgB/zAAXDgGg5A/DxqsaU3p9cXi57LizzDt7BvaBfEzzXFgd9Of/vb7iF+rsEffa4p6OgD3oADcxyA+NlQZAxJl8WPeUs6C6I778pA/Mwlg4pfjs335ev3z+V8Y3wgfq7A/1F5iXnwzB84cEgOQPw8ivie+DmdLmVhPF++f9ECUZ/1KTtD44X34/L1l9rlnSQhruw4tNNUd57Egu6KI+pf7TrRXH8+Lyczdr97NbBrGu8yRho723emHRgWjGfylX73Npyo33XPTOU5q68CV7K/CRrja8W17RxVzFUMrrNLCbRpLCE+gBs4AA6AA5IDED+PWkAC8XOixbuJjEZQV5SwvSxA6mKb+n1cvv58XT64DX0OxzmRSFDjnKrAaXbJRV6Igc5+WvSTcKD5i1AQfYx93E5/kvj5+3NJwiaPkb6fk2gocxTBQ3ZZ+6nNWdihx28498fL+MV3suP3R/UntWfRmoRNE169760txE6P8ygGOAe8wAFw4H4cgPiZWog3CEAgfkbCYCRaRudswiy1dc9HOz9ZfEg8pBBhUWAXehIoq4QI9aH5WGwUQaJFhothgLfFxv2d+zYfPHy0PQ2PuG0bz53zUTzEPErEIhaNu8ACWByJAxA/j1oMvMU4H5M7Bzr5vIW0kFMLjiXCxuOU+dzzkfjpdlikzbHIcecYYq/H0gJHix++Ddd2YILdrOF8zY9sqxRqTuy0Pa2vF4vSFuLHwwbHxtwBPsAHHLgPByB+JhfEmwlIQkc//zG+FRQKhk6YjMkRjkO+u+e7OUiMDMUPiRL1bIt4JmnY1/qwQvx0t+6KHe2WnR179NsTlkZs1dte4/gxZyB+RnjjHPMEn+ACOPA4DkD8PFT8zC2WnACuKMn2egt0TJp4nNLHPX+V+NGChf247lOPpXdaejFSnp0ifLPQvHKnxRWpLODamNqeGPvkO8TPGJ/r+IExgRs4AA5czwGInxnxQ0Lg3D3vsgJ459bJEnFdUZLtndmFabYtLb7ePKWP+F9o/L+9FnZvvLGW/PTPrxQ/ZF+69ZVtkLetZmJMbUL7SRTxbtIa8aOE2ciWLXg2Gh/n8LwPOAAOgAOZAxA/E0RgIZBuWfHi5y/YTXB05zcVP6cL/y8x/b+Z/P/txW3lMzHSPruQ+/5OCi5ewK8UH82uteKHd1jSLs26HbY252hHTe82WczaGA4HJjHxcXfGm+Ds0B70xwIIDoADB+cAxM8MAXjxesDOj1wA9fNBzoPR1S6+LRMv+t24Zgcn73jwszr5XFnsm9ibFD8ZTxIKPB59trFmFvT14ocffB7/baTB3AsCtWBUbn2tEj8JE9o5ajFtt9CqUKnxdM7N8BRtsKCBA+AAODDFAYgfEGWKKHWB3jNeJB6iHa6X8GHP+MK298kVxBKxPDgHIH4OToB3EgRlNwa7Ju8UU/gy2KlE7YKAAQeu5gDED8hzNXl2tTCZB5J3ZRs49h4cQxwRR3DgbTgA8QMyvzSZ5bNM654pwhU1BCI4AA6AA0flAMQPxM9Li5+jJi78xqIFDoAD4MD1HID4gfiB+AEHwAFwABwABw7FAYgfEP5QhMeV0vVXSsAO2IED4MC7cOBw4uddAgc/UITAAXAAHAAHwIHrOADxg50f7PyAA+AAOAAOgAOH4gDEDwh/KMLjKum6qyTgBtzAAXDgnTgA8QPxA/EDDoAD4AA4AA4cigMQPy9OeH4n1/wrHfQ7s+6m5PGeqicVEopvfa9a/L63u8X+xXMKuGCHAxx4fw5A/Lx4oYb42X+SPu21GwsvakWB3z93ECPECBy4DwcOLH76N48/5C8E1x0RfhP7+fKQeavIu23nh8VWfTv5n88n7XBcmxB93Od3za6bE+LnOtxQ9IEbOAAO3IsDBxU/ZQGUooNfkyCPbQ06Cwe72H7+eeStiWvFD99OMS8O/fV9sf5sjdtm49H7v85GsH38/r58/Xe/IgPxcz9sN+NGvTiArcAUHDgCBw4qfjxy046AWRg3I8HsizfFrQoWS2WXRYsOfW68e2Tb5vHW+jlrv93Z+vt1+XAWFtem/JyK9jPhz8KUd5uuE1vr4mvts3Pm8wlD428Tz/0OE9vfxXMy5pmLZr7zucerclaMW485scA5rx7gGHgBDrwzByB+6mKwbnFcRwraNQmEgBqLRIYWKIP+tBi2RVcmrNePjl0pfqwIULZXLIsNWSDM+Jz7FfytH0WEiAWe/F1jR7ZxVrydiAfSbhYcArMmjpptRaT1u3iLOz+TMWcRKDEqdvRzNp+DcyZWozjinMwpfAcfwIF34ADEDy8C1y6q3H/4uUJY0UJoF/dwAR2JnzyWXfyuFD8n6pd3Z+yYfjFYI35yWyEucnIFvoVYDGJQREITKlHyRmOX481vV3Rca+9UzAuHLC9OLNYsdgkLN/5+rCI8cBx4gQPgwDtyAOInL5i8sLfFbdNg06IonzUpiyc/9CzmpYVQXt0PbQkW3NQnzyF3MKSv3mI5EA/VBrKPb+H0i3ErFP787bweU2BAdkRC5JpFveC9JH6IBx1mp3p7i+Pi+hbEIvSD8Z6J+aCNa0saO/fpca248/z4fLGH9p0cQgwRQ3BgFQcgfsSOBi9s2y8Og50fu0ANFjnXrmDBTW39RfHanR9bcFkwni9nTyyE89txoh0Nsr/+vRoWivy5blFfJX48YUg4s9hzsQ1isZ348X0OfbPcQnFcVRzdfAOGwBAceAsOHF78lIXjfOf/sTTYUbAL1MuInyJiysLuP3DtCgRTOEZtFkWDGWu0WI3sbP0GwtAIG9du04bHXfRjJuaWJ8J315Z0ftCHbcOnFeP4DU6AA0fgwKHFT140zhPChxa14f+sEYuRR5yyADpX7naBmlkI5VzBgptscBddGl/egvPsnT02EhXhosz2W9/5OH8uned2M58cQ29XR/R3MXOwdH2LYrHkB8VkvPMY7ZBFxyfFD+My+l9jAp9ZXqAdFlBwABzYMwcOK36mhU9d+MrtlvECNSI73yYyAsgujFMLoZgnWnDTgkXn+FZN+f1z+fl7vqwVP0kU9L7T7byrbnsNFu262DJmS8/qCDxq3/4YCzXru/47P+STFEkWx+iWXhQLOm7nrYVhMubFfs2fwuMAH8stB5uKydnfvas2On1xrucYMAEm4MBrcOCY4ocXo+B5km6Rr+2DRWbFwiAXG35oWD0zM7UQ0gLt2m9spPHk35bJC6Zc3CftZ8FY7XZ2zVz/yM4qwlg8uPb3i7A3bygklnypseRnh7ydvx5fy4lskxV9NLZtm4uhikOaW8RpKualoHT4BjbIGNXvtm3CquIh7FnCEOff4pkHLNKvsUgjTveJ0zHFD4o3ijc4AA6AA+AAOHBYDkD8gPyHJT+uqO5zRQVcgSs4AA7snQMQPxA/ED/gADgADoAD4MChOADxA8IfivB7vxqBfbhiBgfAAXDg/hyA+IH4gfgBB8ABcAAcAAcOxQGIHxD+UITHFdX9r6iAMTAGB8CBvXMA4gfiB+IHHAAHwAFwABw4FAcOJ37+/fffyz///HOoIO9dgcM+XCWCA+AAOAAOPJIDED9Q+xCC4AA4AA6AA+DAoTgA8QPCH4rwj7yywFy4kgUHwAFwYJ8cgPiB+IH4AQfAAXAAHAAHDsUBiJ8XJbx935X7PqkX9a1dKfGLTfk9XPqlnq3dPq8sYB/iAg6AA+DAPjkA8fPqAmH0Ms1X903an1/+ebv4KS8GXX6Jp/viUmkPvh/qKhEL2D4XMMQFcbmWAxA/j17E6lu0eTejf4v5qmDuTPzYHanyRvHbRcsJ4gdi49G5ivnAOXDgbTkA8fNAcpddh/Pl5/eHItTnn+WdiFAQ7VH8/P26fAhcWRBZv0OfRN/aBuJHcabi4mGFY8AKHAAHwIEhByB+HkUQEilzAuDz8n1uO0Pn82DnZEL8sPgouzC9+Gq3gswzNkbEzCy4/u0iHteIvCxopJ/mvIzNovjhOXg8iZnFk9vwJ81LWDJO3WeHhx13YL/0Bd+HRWmGZ2iD2x3gADhwCwcgfh60EBWBIRfkgLgkCKRI4h0j96HmofihxVku2rzA//msCxCPnxb7Ni/1Fe1miOaLn9OlCDAhDpIdamwWL6KNjM1Q/PS2RniX48EcYr7Ij4oB4djwcnwU49V+OFZ5B0yCGgCOgCPgwN05APHzEJLRwi5FiDsvtVOiIBXIQf+B+IkWeisMyu/+2aNFAeD44PcZ2C/HIOHniryB+PH99LH02/aLkO9Ha+efLyJMCiIs8A0zYAEswAFwYC8cgPiRi+/dvk8u/s5uAhMlXLRD8TOY0/QpY0/sSk3g44mCfGx0647HNXax7/kzFD++yEl9PFtCHNkG+vT6NnsikRPb0vqi+AELcAAcAAeezQGIH7Po3ScgAyEi5x8s/qFACfsMFmLqwzsU4djStsnvRejwszT0Gex4uW3P/Q5UjkkofuiWl3pGSsxv5t5E/BB+3TNBbEO3c4dCd5+8Aq7AFRwAB67jAMTP5KJ+K8HKQr+wuxIKmdMlXLTDPsvih28vbS5+jODwsHPxCH05XeL/6j7w04ltiKNpm+0L/Yh2fq5LQg8fHAOW4AA4AA7cjwMQP2bRc8lWr/SXH5R1+6c56HkW3m3x20ULeXT8dDkNBEO00Nvjjxc/tFtjd0gGvsTix7+95ePLcVgQoaeB2Mx8GcQj4BPvco3jf79ED/EI7EV7xAIcAAfemQMQPxPFv4iDciuFd0uuIUW0AKq/80MiSc4zFCcjwXByRAa1l4vwcPwJfCQW4x0TLiYkHs5CTJLf6VaS9L2OHd72agLwbMWUZzv5v9h2SawunVdzi1tz4W4SY4PPGnOFIXABLuAAOLAdByB+ZgosL5hysZ7p57URizw/M9It9l0bIRLymGIx5edM6udyWzvf48VPIrDxIYkCK+Qq7uIZHvazExFmPGpnfc3FYxHfkmBS9OZY2Tld+/xdpUj4ophtV8yAJbAEB8CBWQ5A/HgCBcfu/jcWZgmKdihm4AA4AA6AA1tzAOIHQgdCBxwAB8ABcAAcOBQHIH5A+EMRfuurB4yHK1JwABwAB16PAxA/ED8QP+AAOAAOgAPgwKE4APEDwh+K8LhCe70rNMQMMQMHwIGtOQDxA/ED8QMOgAPgADgADhyKAxA/IPyhCL/11QPGwxUpOAAOgAOvxwGIH4gfiB9wABwAB8ABcOBQHID4AeEPRXhcob3eFRpihpiBA+DA1hyA+IH4gfgBB8ABcAAcAAcOxQGIHxD+UITf+uoB4+GKFBwAB8CB1+MAxM+Li58t3hk19zLS1yM3ChJiBg6AA+AAOOBxAOIH4ucC8YPi4BUHHAMvwAFw4F05APHzKPHjvgH8fPn5/fH0204QPyhw71rg4Be4DQ6AAx4HIH4eLH6+fzUifvz+uZzPzxdAED8tJl6S4BjwAQfAAXDgvTgA8fNE8XM6fV6+z+fL+e/X5UPa0e0S/Vy+/tPEy4Il9aV/UlTVJM3jlL6qvZmvih8zrzcmCzae9/zns+5c1XGkL/V78XUPO10Vn2qbxhbngQc4AA6AA+/NAYifRy2AJCy0oCDxIwREFkSeODn3AignpzsukVaImSY6+jmLaPm5/Ig5isiRc35cvv4msfV9+ayYafFW+sjzMnlKW+2/PI/vKLbgADgADoADj+EAxE9dyO8MuCNSeCa0ns8AACAASURBVDdmURBQ3yZghK3OuDV5WPwocXXqHnAudkihk8Y3IunX9+UsxFGdIx8/X7IP+TuLHxJLPHe2xc4h/HhUHDBP3amrMQQmwAQcAAcOxgGIn0cFnIWIuFWld1FGQqAIkWvFjxVX9vaU/V0WRRIvtAtVBBILG2mrsE0JHBJPvFMUiadH4Y95UNzBAXAAHAAHiAMQP49KBhI/LET42RlP0PC5+lwNCSav7cmMq67mg3NW7NjfPIY8Lr/z+fIpd4jK97oL9Ofr8vWXdnvUrpAUT/iu8QQewAMcAAfAgXtzAOLnSeLndPKeoTldWPiwSCoEELsr1t5A4OR+wTkrZOzvMqe+beW3SQkqbWvfkx/Jh9Qvibbsl3mW6d7kxvgooOAAOAAOgAMeByB+rJjwfpOImL9N5ZDNEyL0vEzb0dG3mlrAmqhox2gOb1z2IThnhYz9neegvtW26LaVOl7s//n9qXd8/n5dPtN/6+fnf9i+9EkYdP/jTbbBd2xVgwPgADgADmzIAYifCTB5NybdhtI7Mo7IicZzhUi/+5OFiHywmPqluasQkXO4446FkRU79nfdlVI7NZ4wK6JMippiv/zv+9QmsL+2lz5L//AdBQ8cAAfAAXBgYw5A/MwAWgWI98DvpACKREq0+1MfjE5z2p2fJijsc0FqdyqYsxM7vPtS5zz7uzT1Vl37+0JWkLFQlMdZ4LjCkedWQmsS05nYoQ2KJjgADoAD4IDhAMSPAaS7rYTzSBpwABwAB8ABcOCtOADxA0K/FaEhXrFrBg6AA+AAOLDEAYgfiB+IH3AAHAAHwAFw4FAcgPgB4Q9F+KWrAZzHFSM4AA6AA+/PAYgfiB+IH3AAHAAHwAFw4FAcgPgB4Q9FeFzRvf8VHWKMGIMD4MASByB+IH4gfsABcAAcAAfAgUNxAOIHhD8U4ZeuBnAeV4zgADgADrw/ByB+IH4gfsABcAAcAAfAgUNxAOIHhD8U4XFF9/5XdIgxYgwOgANLHID4eWvxY1+L8cCE2OKVIG8dmwfGAjhC4IMD4AA4oDgA8fPWhID4WVL/OA8RBg6AA+DA8TgA8fMg8cMv99QvIv25fP13T9I9Ufw8CFcUrXvyB2ODX+AAOPCeHID4edAi3b1J/XS6eG9A3zbRIH62xfM9iwAwQlzBAXDgaByA+Hmi+ElkKztCZgeoPi9zvpSdInP+9HH5+nu+nP98Xk6m7c/vD3Ff0xE/ov33L5nwpW3bmfq+fCpsyvnUh0VbaWvaifHz+b9flw81Tpkz++3Yr21KbcnXM2PRPrWv0hd8P1ohg7/gPDgADqzhAMSPszCvAXC2rbfzk/uSWGgL+efl2wiGXiBJQSCE0a/vLJaagDDih4WJGZ8FVLOBRZkUNkIcJdGScSM77HiEaehzFX1JyLQ5iqgS/rDwEeOz8Go+IuFnOYh24Ao4AA6AA4UDED87ET95FyeypRNILH6acCiENmLnJH+TeBFCgpPAFymybyKL37+IEWtHIZc/rjh3lkLnVHexqrAhv+vvjA/ZUQVYGY99wSfwAAfAAXAAHFjiAMRPJDg2Ph4LgZnF3AqR8Y5LCzr3+7p8p9tGjvBhUSN3fUp/mqOKDB5L3lbjW2BXih9rjxU73U5WSmjfjuYzkh5YgAPgADgADow5APGzsciJCBeKH74VVUUGC4r2bAs/h9MEyjrxw/3d3SWe33mmJverdvmi46adnyXxE972MjtGD4phFFscHxcZ4AN8wAFwYG8cgPh50MIZih+zu+E/02KFxzrxk0UTzdMLIDt2lKR+u/uKnzJnFW9ZoEH47K2IwJ4oZ3Ac3AAH9soBiJ8Z8VN3R/zbOzPB9cUPiZj60G8kaqzwiNrZRNP9WFi1HaTUnsaqOzx2DP6tx2Kf7yl+RmPz/Opzgzip8Wa4gTbifxcyV/AJHoED4MC+OQDxM7F4sWhIOxD64dv54Pbih4WPHjO3kw8C1wX9fGmi5Trxk5KxjK/nPNGuUBvf8+vx4qfYNb/Ts0WcULC82OMYeAEOgAPvxQGInwnxw/8VXP637LWJwKJD3cJxd1uaKCpt026TFR7Xi5+603OWYqr9TytlnxRhnQ0lEezujBQgeiw9Xy8Gmw1SYLq4pdtfHnZVKF6/Q7c2rmj/XgUR8UQ8wYFjcADiZ0b8oM1Tbm0U4ePs/EztVB0jgVGoEWdwABwAB9ZzAOIHwuYpwmY5WQe7W7TDM75Ntz4Zlm3CmMAIHAAHwIF34ADED8TPTsUPP59kd374tqA9joL0DgUJPoDH4AA48AgOQPxA/OxW/KQEcJ/5sX8fCDHcdQwfUcgwBxZMcAAcWMMBiB8snFg4wQFwABwAB8CBQ3EA4geEPxTh11wZoC2uJMEBcAAceE8OQPxA/ED8gAPgADgADoADh+IAxA8IfyjC4yruPa/iEFfEFRwAB9ZwAOIH4gfiBxwAB8ABcAAcOBQHIH5A+EMRfs2VAdriShIcAAfAgffkAMQPxA/EDzgADoAD4AA4cCgOQPzslfBbvKeKxpDvytrdVQy9quKMv91zqMKzOx7utQ7ALuQFOHAXDkD87JVYjxY/zxJKED93SWyIi/fcqkdcEVdwYBsOQPw8UPyUv1b8wDeOrxE0a9o+EDMk+jaJDhyBIzgADoADjQMQPw9cyCF+GvGQhMACHAAHwAFw4FkcgPjZm/ipt7vOl/P5fBk9C+O+9yr1+fNZbqWI3RzVVjxfo46nvuZf97wQ36bidjwX4fjx+4ds/rx8c5vz+dK9gX1hnJwQ2f7yAlNlp7C/Jo7Frc6NF6BWjB7IdcyJRQ0cAAf2zAGInwcuCGUBn7/tldt7C3194acYi8SEEhlSEFSRUkSJapcwEEIpImwWNmcpJkjg1LFPl9ImiSjRjmzrhFTGnt7SLsao8wv7m739nGx7a8Nvfhf4PDDO1X7MieeZwAFwABzYJQcgfh5IzO3EjydgaMGXYonFgxEWrqhaFD/enKfLKQubJnRY/GihE/TN2E+InwX7y5xG6AwFF67IINDAAXAAHDgyByB+XlH8kFBpOx0piR0REQiaq8SPETk1acwcrhA53SZ+tJA6Xaz9rqiM7H1gvCtGmHOXV36IDxZ/cOC4HID4eeDC5C7Sg/ntIi8TtRvL2+kwwoT7u+MGbbkP7+jYZ4L4NwuUZ4if8LaX3AUb4Mw+4vO4hRCxR+zBgWNxAOLngYtiJ1gW5nZFSu7Dz7ToB5RZgNQkDgSNO27Qto41uZPyFPFDwo+FWP6E8MFuy0J+VW6jHbgCDhyOAxA/M6QnYXA+m+dKZvqKNpuJn0khwjsiVhS54md4a2rugei0mDxe/Di3+wTm3gJX4uD8D7SFft5YOHasq0XEG/EGB96DAxA/EwuevOVjhcSaRNhM/Czt0rBPQTtf/PBuUizwiv3t4WbP98eLn/4ZIM+udqw8f4TdofcoYC2u8AdYgAPgwDwHIH5YKIw+N9350beqyq2aJjik0FK3cczfygnbyds9q8RPIo0QBvR3cqzYc+cVc86KH959sT6m33XOaft7u3ncOpaIL8+tHxifTxoUGGAFDoAD4MBrcwDiRyyKr0JmFiDdws4izfzX8Ffx6zo7SfgIAcbjzOxUcVt8vnYhQ/wQP3AAHFjDAYifFxQ/ZVFvu0Ut4CQEjiR+SPB5uzhFJI5v0zXsUDiABTgADoADR+EAxM8Lip9o54dv53Q7Qi/o43wCBjs/vAvm7AjNj41CCKzAAXAAHHhHDkD8vKgwYAHEz7aUT2836AiJ6z/z4+0GvWMSw6cjcBw+gufgwJYcgPh5UfGzJQkwFooKOAAOgAPgwJE4APED8XO4P251pASHr1jQwAFwABzoOQDxA/ED8QMOgAPgADgADhyKA3cTP1CavdIEJsAEHAAHwAFwABx4PgcgfqD2D6X2UXSeX3QQA8QAHAAHns0BiB+IH4gfcAAcAAfAAXDgUByA+AHhD0X4Z19tYH5c8YID4AA48HwOPEz8pD/Ah7+7cmXAg3dc2QTKf+Tw2X/Uj/+4IL0b7PxseyBu7y9uJ/lp+Xro38Ds/rwc5n7522BYk65ck4bYvsaY9xU/v74vZ3rVQvqjfOUvDyfS4ZUDqwr/ZKHchfgRSbGVPVuNswpz4cdj+r1wMZ7k5xocyx/xXPqjnfvFbNH+p2H2GgvTGq5c13a/3LnOH8R1LW73FT+nj8vX3/QW85/L95/07/uS/xKx++4pbnuugmmtM6/RviRdwmH6qmOyUO5NJGxlz1bj7JsfL1yMJ/m5Bv9F8ZDF6X4xW7T/aZhhkSw83C931uQJ2l7P5zuLHzaMhI0reqhNLgY/l6/fSSAtXfHxuC/4mXbDzt+Xr98/l+lbQpOFcm8iYSt7thpn34XihYvxJD/X4L8oHiB+uttGc5i9YM28yy7sC+fbXfA4Hi/uLH54N0fv/Hg7Hjlx8/MhhZTRyznzQsjPk6zZPXEIY8fiW3RcpK1N/B4tz37us/SZ50wikMXefx7pCgY8H39aTEqxSztr4p/zjI3109qvbWpj2fmWfLPn87iOPa2d9VOIXlpQlW8LfrZxPUz5GHOS/bS3YEVRzEKV253pti2Pkz4H9gu+Wfwlz9wYCj9trGbnnMKiw9hiIX0dfBfiR/lqYu/yQfTtfWvYFx4UfqzGrPNT8CzFKZ8vvo/sX8bU8sG3P48j/F6c0/BQXxyumFNwctmXpTxJfLBt+t3s7Futdw2P1bWlxoj9NfEyXDsNMWu5q/JL8ETbZ/28Mk9W4T/IN4zTCf9lPvd43lf8JALSbk9KgkKoRF5LnkIuJmJNGBPkUiR04fr8Y8fqnfSASQVUEZyJL3anWpEVc1BSqb7GTm++cqwkbumrfa59yA7GIh+nY3JOH4uz2U2iQiELg+NnGSsVpoZt8V34Pe1jwz+PK+eWYzh+ej4l/4fjyDGXvrPvyqaPy9efr8tH7cvFdQGPSftneCa5oeJebSJMJ+esXLL91e/Py7fCgXDucrPFMxw32/Vz+Um3uGv+EI71dxBH8klyO81T+Nf46M9d5hhhxjksxy88E9wmG5LAamP19vs2+Pgs2i/mtJg1G0iYCQyb4OixWZxTxd+3O/vItil+2DxJ8RQYprGpNkr7C9YLuTRjV7YpcSzNSbXz70/hW55X2JLaLmJmuOP6nDDqeVBwFvPN2I82mwiWNTm41Pa+4kcEPCWBTAplGBH7i3ZB/CQm9a1IPUhgMbeaa3C8JGorKsUOFm08l0mawXjdvDlJ2/h5PlVgJhcISlRZ0NNcdjwfR15YWvIWv9vvbHcwR+fTwH9rj+zrn/Ox9dtyPOY/58ahYmfiUnYHGhf8sXz7pd/pe+4rhGY5v9z3ljmtDe5vinmYp1GsqV9bxEtM7CLh2h/wLOKutnsJs+h8OV7tDex37Y0wMMcX7b9lzuACbHFOY6PGsuXR9X5TjRa5k8eygjqIeWRPPq7wonk4hwI81HhdG8kN4oOwm/v6mN5/LeL58dl4uTUWDxM/I8MzwSTxguQoiSSvLrcFxhLd/i4+yKRZN3+2X4q3nJBSdARjGzx8u6z46QtRjYEZzy12pk3tO1lAU3t33Nw/8JO30SVGw3HW4B/Nacco7erC6PobjTVXFP34RWOyfdH5uTnn4hfNwTYEnxFXzILj8iHo62Nk51+w18wvMVC2BDaoNi4PrD3t96L9t8wZ9F2cc8qHBUwXxrCY2d85BoH9Mj7dd9XH1LZBnOs4qn+KE/v5dflOt5nl+lN9jHPL9av2azyo8+PccXd+YhJ4BDPkFsQpCd7uHa++Sq1jFfL3z5S0nRm/mHDSfKwMptePbKiLvdeGn0louw6+XVZseLhSUlIhYOzcRO6KxfqEdsdN+NPYPfYU14pHmTMcp8ZywrZpf2xMnLFX2U/jied45PMrLS+C2LOPq+Z0bOZxxKfNJY4H86LZtjBehK057sbRtOE5I47z+fK5gFl3cdH8yLbwzkFgg2uvwE/b0sZOxxftXzFnsbXVPI6T3fldnHPG9sAu11dqy/bUTyEkXAzXzME2qz5mfXDEzzJmJi9NzZH8qn7ZHBZ+uviw7fhcuVbqXLoXts/f+YkSKBNN7opYQCgB1H162yb6TcQ35LXFw/6WCbF6gaAE9ROJBVdQzFXix4VVF5pl8cPFU/cjzMyc1xDQHTcXgsDPoEjE40Tx9Y7PzknccIshj7tyrAWezfFqdk62cfxZuN0E9ZwNwZgRV4z4cOMY9PVzz86/gImZX3JY2RLYoNoE3JRjyu+L9k/OmW2YvG20OOeUDwuY8hhkv90htZjZ3xmjwHeJX/dd9RmLnznMhJ9cm7ucH9RQxgGfuxQ2HX+cOD1d/IQJS2Qfi4wryUlk58WfgbK22N+lnUgaB1Aey366RSD1V7b4/pRkFguVV9S5GImF1re/F0+ubarY2EVn7rc7bsbM99Nixr8jP/j83CfNKfDx+5X42qKu207ar2LbMPP9WRpz6XwbX9vqHY+wuI7bvJNn86nwloW93ZksdhUsBLc5pzyO87n6uYRJ5I85HnA95q+HqTm2ZP/UnAEXg76llowuGI2NFUd5POKGbMM1pJ/LYmZ/Z25G9rv20Lyqj7FR5dksZpoDzEO73rj2j+zEuZcRQ08WP6PiZQie7tHahYsSwhJ2sfhTP7nAZZLn3aZWrP1FSifN4lw5GUZ9dLKWOVtRyb///lx+znKB0H3q/ev0vx8URrZdu+UkMXMTXBUbXfjmfPYXu9qXCpa0o56zBWRNW9tX/qZxZNzz/57x/rdXdxVoMJixaZJn7HfhYIs9H6+fM3NKfwffu7nY1mt2Uj2ukK1SELncplsJsl32l+1ZiEPnh/HZzpnGLn1ang/Fm8onwwEzV41TOr5kv4cZ21bnpBrIt+fSuMxhVQ+0QND8XmEz+8NzKOzN//bquMi26udnMtbVH21nF3Oe3/tUeJm1QXGN7RDxZX8UZn1NLryQdXYijp6tOPYSAui54kcRuk/SrnBxQRH3XlclkCSlSIh0KyotwmW+ljT2dylufdKooifn4O95rnhRs8WYkzDfIssFqMypfFVYlLGzvbbQ8H/VHGC2WYGqzzr0zycwxgor5QP38XEqseA2usCqMRnz6LOb087nCMbpsZJ9ZrwJnjX7uXA3Pztx2NnvzBnZq47buRLvr+B2HtOOFdukuJ256nCb7TTYyT/FsAazRe4Qpiq/OiHS16dmQ3BuZP/0nMRHzt+EWdA32zOak3Gd+ex4Znjt5HrCz9YS+zvbOLI/sk31Ib5xrSOfW/xmMPO43nis886MFwn2yHYc36UYeq74ASl2SYrFoo64IW7gADgADoADL8wBiJ8XDh5ESnDFjZiiKIMD4AA4AA4MOADxMwAH4gLiAhwAB8ABcAAceD8OQPxA/ODqABwAB8ABcAAcOBQHIH5A+EMRHldw73cFh5gipuAAOLCWAxA/ED8QP+AAOAAOgAPgwKE4APEDwh+K8GuvDtAeV5TgADgADrwfB+4mfv7999/LP//8g4UV4gocAAfAAXAAHAAHdsUBiB8QcleExBXW+11hIaaIKTgADuyNAxA/ED8QP+AAOAAOgAPgwKE4APEDwh+K8Hu7+oA9uCIGB8ABcODxHDi8+OF3Del3uTw+EK9GfsYtv38svetGvQRxI/zU+3w2GvMdxC6/v4nfbfQAnzjeyJM34eHEu7t2W5Oq7e09jKGtnCv8bjT5ktgH5E1o14Zzj3LTfz+lw2GL0z3q+YY+b4ErxM+f8hLJm4v6gRbqkmz9iw5XE3IJs6XzO0umyP/pAjTrDxeqnYmfzIsH2hTh/XbHt84DGu8uFyyzHL6lHdu/JGQoT26u7bfY+oC+m4ifaie93BXix1GIFaTxucP9b6+tC9Qkzo8v9PSG4y2SYwmzpfN3xai9yfnW4rm5+Lmr3+O8HvEN4ud67Ea4njbOg8LHDS5edspDxrKIgondoZ37wf5c87m+9kD83PwcCMTPnQrh0xO1iIJbBUFO5KWivnT+nljkq8bvy9fvn8v5xt2M9QXoNbkD8XOnuG2cB+DjneJ0z3p05djrYw3x83Dxw1t3tz5DksdJuxJUMHi871+a8HY+e16pbL7NwPeNxa6HHYfn4886blDAcn+5uOa5ylWZHtu5ghnYpeyfSRyD1zncUr5d/Gi/ym1Hxit9epipPhKv6hslLcfofNuVbZ6v8qgfqxUVM2+1re0cSd/adyee1RfN1RrLmXjnODr8qXYFYwdzK9xlbLh9xxsTTztv1/4KHHju9LmASbY/sKHy7CQ4bcZrbXguB1svV8w43S2miThZ7Bt3CsbKNonJwvfG3ZgLpY2Ipah5hY8TmGUMvi+fNeYp1iJfujFje/KcdRyyy8bV+O3G3rSpuRUczzjkeXQ+exd/y5gV/2xcvbHs+uXVYzuOx4cW62X7CxbL4sf66dof4LmE9yPP7+KZnwSmChyTfG1ynE6XRoi2YJVgtd8KYJpLzS8Cx+Op87++tb2p/cI40fk8vkxiWTSr/0RI0a73ichd+ywUEuEjk1n6WPxmzETBquJCFMZrhcYkZrnoV79E0a0+9L73+MzjcaLFsOBRfLcJzpgl29q53o7EtdL2xkW++pr8GBQozp0Ju1QeqPEdrJZixbknONqNT2M0vChvamydeQd2zeRml19pvM4XilvmdotTx6Etc3NNnDp71+GU4yBt93K4xoBzveHA+aB3QCcwy3P+XH7+prFK+5+/Pzlfbs0JN64112Rt0t8V9wbcYu7KPK/1kbCsvzkflQgmfEw+FM5KbNOaxXWW4ro2Twb8yPYnzOWFS2e/5NOgtnCOSz89WydwZXyf+bkL8eMB4JHEa2ePlX6GTJx4vz/6Ha0BcfoiKUlivo/GcQtu6d8lMRHTJqkuFlRIrD9UbL7+M7YNyRiMRZh1V6wjLIfzODZNYmZtsJhpbHiecRJb3qjfGcdWoOx8qS0XxVYAg3jWtm08NddazHL7gW+E6RJmq21YihUXRlPs1TxX8ZPjaT4n7Elze7Hr89pfqLp2W+bmmjhN+qqwHvDKzxfCN4oR+d74PoGZwku3LzbYOm1iPPDBjatpP9NmCTM/z03+TWNm+hl7qy3ReFH7AT+G9ru5OrAxmGfIp8jmHRzfrfi5FlCf8OsDmoi4yoaAGJXQwfnO3q7IOAUhSo5gjmqDR7jBfJ1tuX8klhw7vfnksSV7g/Parji2ut28fblfvRLWtzsYy8KNueK9ikcSn/B77HO3YNMY12LB/kbj1vOR0JA+UDzP1+4UirFmMXX97nhFC7OMuZir+jjIFd3G4YWd0/4exSloW+f0bB0cG2GX8ZJX9nUcm/cTmKk6pduvyR/PTzeu1daS6zNtvLHlsQgrOfY8ZuLOxIhrFO/pPBnwY2i/G+e4tkRjlVvPDudNPCSue/i+E/FDidFtx66/WpakbADHAR0VdX+sYBEdEDDbEZzv5pgosIWEejtXPg/Qrs4CWyUpVYHS7f2ktkVQ92mYTxwPMKljBOc1ZhF3CB/36mZkm+cfzSEKVonBXMKHRUPGYdX39XzWmI38D84FsaixmhE/2Ucbr/U5nuac9cdt1/nSx1f6Vb9vmZudDQX3OXuDGE1yaMRHd34Zt5oDE5ip2qLbr8mfir/wL7azYTPTxhtbHouwkmPL77JvvV1YMSu2lTFb/ba7/GWMFXkScCmNE9kfHR/dUs9+dms0+zFXCzU+LVbPOL4D8UNBNotUHJwxYD4R1y8WI+K4gRoQMLcPznf2ThTYTZW2KlAa2842UQT9hNX9XZxEARsJz3nMBrGVc81+J/ylmGzf20Jd+DmX8NdyOcZv4PMsz2bx4HbBuNJGny8DTlSsG65yvNH3WUxdmzpf9MIczrtlbnY2FJzm7B1gyvEafI6wc+fPYxWMWt5PYKZqi26/Jn+8eMR2Nmxm2nhjy2MRVnJs+V32ZfHTMGu2lXaUx+r5PNuGd56TyAjyJOBSmmPGfm1zXFuisXR/x/4BF5/Z9/niJygo1wLtEnFAjuECHNjmB8wWB0MC1wYqCFL4zczpjmXmmyZcZPfa49fMH81BYwV+2hjb33585uwLxzJxKfycEz+bitUc17hARXwO/ZrlSRALifVVOZtxncRR2mriIe2Q3z2/i53ifxWGz7cZzszMOYFTti9o59m7vIgaOyVOzvdhnKJ4dMepdpldDYm95r1uH+VP9n9JDEzu/PlYboGVqVsdNjRHdFzFZJDLst1orIBLKRZ+rHUsVMz44W0vriMbpK38newKRRu3e9Ln88UPAyTA5gS4BrSe8EQuKTAk2APi1C1A+4yC97+9mDSROu8KLBEwbSNK2zLBZGH2k7VgdMWiIX2n714hKuN7Vxom8Z3xdDL59pc2FJsIsyA2XYwdDs3bIO0b+aYLhodZOOdm9rGtg4I5i9nauAXjKp+Ju9GVbsLM3pKNeca+Rp/MHZMDJjdtnMrvslXfbNGxVT5JnLbMzQDPjtt5fvbVy8cIn/h4wSAai+aSNamrXWnsCczUYqnb27gUzNnPwS4HxcPHSfs80yaMNc3jYdVzdgVmCtf2Pw9lzqQ5GzeLT/2cwteAS8m3OfvFWLyOifW4YcTxibgjx+G5ba7pNm3sxx9/vvhJJKOiwrcXEhG8oM0AVUhSAOfx7P98qYnr3r/sA9uN6RIjBY8SXIyrSEwkZbvSueynTIjJAtuIbXyVY1ECz+BW8BZjheMUH2WyzowftxlgFiR1jkdnXz9Owlnhv4SHKtZ9MsoCVPAyC+9ofMPxq4W94BbzSPm5CrPeRx0nH9Myb58nqe8Sj7pc6uK4ZJM+343n5KZqk+crfjVukJ9OX4XHlrm5Ok59LJr9GhNls8PJEiM/fqUvL3KtHvT5PoGZyifdPsyfmie9fR23RC709s0/FzbCy53T5ewMZk3suLkrYqU4m/zs5uz50MYU2Jk1J7fpxhIPYgtMeTzLs862WFwXaQAAIABJREFU1MfLnTq3sEf4OML9Eef2IX42BCQHxgnuI8DEHOuKMPACXuAAOKA5QIv6Tmr4slBE/HT8XgcPiJ8NhderkgB2v07CIlaI1TtzoOwqrNhRvXP9hvh533yD+Llz8rxzoYJv71sYEFvE9qEcGNzueqgdZj2A+HnfPID4MWR/ZqJh7vdNNMQWsQUHXo8DED+vF7PZPHs78TPrONq9L6kRW8QWHAAHwAFwYMQBiB/s/PTvOwMmwAQcAAfAAXDgjTlwN/EzUlw4B0UODoAD4AA4AA6AA8/iAMTPGyvbZ5EK86KggQPgADgADuyZAxA/ED/Y2gUHwAFwABwABw7FAYgfEP5QhN/zlQhsw5UyOAAOgAOP4cDDxE/641XenyCfDnTw5+Cn+7+VyCl/BfUmPCUe9W9s0J+z9/5UOb9MUPz5c/tnz9fEYv9/ibv9ufpb/JzCpP4ZeMJ/J3/ddsp2ySP1nfALuHTb2KI4Vuxu+BP6e64tk7m5GZ4ihuUPDt5Yt8V497DRGxO1ReTHE/D3YrLHY/cVPylxqfilv5dQFpG0cF/xFzz3XKAeTrCNxU+1f3LB2iAWKFB+gdo/Lr7dfXGb5FLl3uy4pt2M+Fni69L5W23cpP+D8BS27lP8LNe+7XNoec6e/4anAtf2wuyV7x5UY4zGx7mZeNxX/PAbYs8/l+8/6d/3Jb8srV4NUkKL3QR+mVr95LYPL1Ax4W1ycZGoNld/rhB5UwSPbZsJetxmssBuEAuLYWzTsRL5fXCZ5NIU32/kwBJfl85fZWPJUVkTbtup3RGeV+FxYwzrnMu1b/scWp4T9Wur+D5unDuLH3ZkMnHzFm8gGO5SoNg+7zMmfJxccZ9tk+Ne80zGaYNYxBh6sTjOsffBZZJLdVG7Y4yX+Lp0fq2NfKuKL9yo/8fv78vXf9f6uSM81+Kxafvl2rd9Di3PuW19v5Yj6LcmDncWP5SwZucnvAKaFD+Z3Ly74j4fUcjarrqueR4gJnycXHGfNUE5naz9VhC2ecqfX6dnRc6enxwDbjO6hz9ZYDdYLCqGNBbHynu+Rvs4sn85+e1YfFu2xcfiZbE/XU6Zp9+Xz2p7wl30q4teiVPySc/rxanYXnEJFwzLjXis5lOAS7WfuWF9XWe/ykvOz4pFYIP0c4FXBUPy19ru1AHXHrbrLG45iHlVH2fMRUw5dyf9VvOdR9xezk3NsXN95KDaLOqrnldzSJ8TOHWxKnxR7T3MWAwK7Eu+63mrnXIe+t75ZsaSa0q2J9lhONLXFpGzNJ4cZ82cI9vbOTufzTeRI8b2s1vbRXsHszYv2nlY3Ff8JNJTEUiEXHzmRyRnZ6wkQy0sTQTU9tROkrgk53yilbGcsYlgNbk6wsV9qn1dH0vMMgbjVm1RRYXapIStx/3i+PnHJBgVIolPs80fo50nWwnjvphYX+LfBcOfy494/qsUG21vFzsnvp19Acbe+OlY6EfERzr+8zdximL+9yc/0F/mYK4N4lTjpjGKuXW6nBzfO3wC33uMPi/fxoYylsRf2F9zjjii+g6O1X7az96edJ6w/P3h/g/EjK2at4w5xCzhscRXOp8X5Grv2BbffhbGXOtGPhO20h+2o9og+49yk86pBdIZn3Jf++nFjuYd4ca2KsFGc0r7ac6WY45d05xNdpX+fv0qdhceJ0HfuKzzktu18zmeZGs/9vKcIR8i36iGuDuBhK2yIx2TuEbj4rhbO7z43Ff8iEAkQqpginPVsAlCaFFwutjCZ3+Xsa8hb9zHn2MuMauvnv/p2Kjg1D7FtiZ8SjJ7Cd7PNyh2vHuxlGRTNhab+vm58OjiJONUYxzMM+dnP38ct75ttifioyqSOhbFNi6q+lzFIhqX/0edXBBrzHuuS8wWc0uMU+2wxwjvNpZvf4e/689osQ7wJv7V+c24OX4ONxfjGvCo4kDnK+8Il8VxLX4cPyVCfF87DGkszR/Zd4Cnwan6lY8LIUa/K75qThbsYs4RbpOYeRjGPoq5HWxn+Z7nFMIn9xv5UueKamPJA4tbxbn2n7Gf2kQxS2ONzl0zF/q4guhh4meKKKOgB+TVyRWRdFA4QmJEY0WLUCJ13GfK/2xLGSNdnbWrJZtU/jxRQbVza8zk2JM4BbGw84x++zbo4hP6M+JJGE9x6ykQF5290TzqOMWLFmVd2P04jQSuj8uIW5MxG+DS/Lb22t+FKzYuvs3X2ZXHUljyRVM8nj+/4PUSX4Pzi+M6mOY+i+JH87zhP7r4WfDfndPEL/N2VFcEZsm3AJdsb3BOY+b7afmj/Hcw1eeNT057bQP5FNirx45q+/KcdpzF36qG+LjLnavF8Rwc0MfgajB6L/FDBC/3k/k5BvHpXDXGBIkJ7yZXBjbuE8/jBYiKRr2vzTsJ3Nafxy0qESauAIgLrLJ/spCoPoZ4EYbyeP5eMRBxzMcsJozNwictAJUjI05EBUodL7HgXYO7iZ8ojozPyA+DPcel2GpxZbGRcJzjmYwZj13/O+9Ku7JNmZuJiz+Xr99867xw07v69ucXPFjia3B+cVwH18JZZxdFtR3kGdnS+xn3ie3U3Cw7Co8UP7yLIec0NilcRMzC4z4nG+8CAePFmI7VWsC51NXG5Tnl/FPfVQ3x/Cac2CZX3Hr9cGwK/9Pp8l7iJyjWs2DodjHhl4pNX7huIGRNULnY+7Z14of7mgUotj8usAobr5CExcr33bdBz9/5s3IOZbPTN9uQiovBp/aLCpQ6TkWKxig2c6z8OI2uqH1cEobBWI5f1f7BuWKnXJS8Ofw5bVx8m3UsZ2xKbdrY9ExS5lp7tsrbDfXnF7xb4mtwfnFcB18fV2FL7jPAJrBlJCZjO038Mm9tzK1t4ndoS7wrZG1hPJTAiPLNwbPnjfHJ6WNtyGNYX+i3zX2378a5l+1RNURg7vjDohUPPS/g5GE3OPZm4mdQVAYg9AmWQC5JZpNjVIS4z6biJ9ltEzdIxrZwFJKU37wQN+L4CZ7OT+LX2dPG9rHsz7s20LgVvzUFYnV8i02uHTxWNL86rnmiMfcLtY2TxCy2ZzI2bPvwk8ZavMKds9/1J2M0EJaRfbnf9+UzfeZFstj6/SvZ0nM5YRdjxrzz/ai4B3xeHpfHF580Vl83RBsl8uaOD3NT8VGMZ4/n348UPwu4RxwYHl/OAzduJsY6Txtmbt/Zuji0u82ReWdjs9R3bful8XD+3XZ+2jZrXUBvCLKXIN6xWkQDUdLOmwTwbPv13T0Y3s/pF5XSTmy5U7FrWFDhSLsd3cKXbFsuLNkXU0hW+Uc+90WG5lZ2sb3CJw+zqWNpLDtOwTFcqKKCo47rMXSsnDgRdi0mmhM9LuJ8F09xbgqD1j7PI8UEL9rO/96xtnY8sz7l3z+Xn79XiB9hB+/ylPnS7Tkbv+LPELOMywKPaE6ej/m8PG7Dk/ukz2qv2eHQf+dH8yb3tziqmJIPZswyL51TueOMT/yxfkrb1fcAF2mrHUtjNrLZx07Nr/xv7TvumnbaBupnfelyiTni18alOWfsVm1UDWm+pTaJPy6uAf/VuAYLnNPYSjzebOdHE11ttcpCv4IgtZAN7r2WxOifnbj2gbXlOZ1FtRZdvUDYsVJS2eIQ2y+vEqmYVhykv3pOSbDwOxUfFSO3sJO9dt6gbThfjnnvg13YeZdN2cVz8+KiCpdeZArevEPRz5fGtYXNxkjOPWcfzxcneo+LKPbZvxTDYm+b0/4u4xd7TcxVPMu5zKvVcWLMxPi0cEnBvgqzIPY1DnZhpPpg86THcIA328zcUaKS+7GvLZeqTdIGMYbkhm5r4ymf3aL5KEa6H9vCn71Nbc4+JnasDjMHhzLeNZxlG8e+djYkLJ0YWw4lX9y+ORbjOae4EWLRC65sh4w71x7ixdR8aOv+Ly/Gbl/iB8EaBouDhk8ugnv/9MUD4rf3uMG+TTjKi30ngFlICDGF2o/a/2AOQPw8GPBNigpsfpFCAfEDvh9YSA12msrOBsQP8uN5+QHxAyHxIkLieUlyfYGC+Lkeu1eMN2xW8Y52fvgWabcjBPwUflib7ro2QfyAYHcl2LGTGeLn2PHHYs7P2rTnhsrzTfZZIfAEXHk0ByB+IH4gfsABcAAcAAfAgUNxAOIHhD8U4R99dYH5cEULDoAD4MD+OADxA/ED8QMOgAPgADgADhyKA3cTP//7v/97+b//9/9e/ud//gf/gAE4AA6AA+AAOPDmHPh//7//55L+vcK6D/Hz5mR8BRLCRlwggAPgADjw+hyA+DmdLrzzg3ud+7vXiZggJuAAOAAOgANbc4DFz9bj3mO8u+/83MNojImkBQfAAXAAHAAH9sUBiB/s/Fz/4Bj/YTB+r8vO3+kSvwtnRVLyHz1jn/ECv+v585SHNvl1BfyOqlve27SCN0/xdZ193TuanvmH/W6oLVfnuc3tBf8Zr/Z+uXV4JzF0ta174dNKzPYkACF+3kr8PO8P1b1CEt9sIyX6LcVuT8l/eFtyPG8XP+7LU7vF6Xm5ORPnspDfjsXMXGvbrM3bte17e0gg70z83O7XenHWYxONMYfZ/HjRPNsdh/iB+Nnkyn3fiVkS5lYbc3/s9GzClzVFsODOOzX8ucFCDfFDsSzC7Lyw2K+J2ZZt1+bt2va9rY9byNfYuqZt75MVDRTzuoN9vtx2Ufc4zJZ9s776vyF+IH42Wcy2TUyfrLeS/lYbb+1/q/1H7e/hno+dbyzYED9K/Ny2+N0nZxPnvfiPcmFt+36sxy3ka2xd07b3ScSHdrCt2P34/X35+k+063YvR+ceh9nQtxU2Q/zcQ/zk+9XlyjQTltW1+0yMVeD27cH+drncai/f+Yq4/5RFrfUjsoa2mfMLC802ibk8Z54nXaGaZwK89++4uLgxGCV1Ozf2UcSJiwth29tmY653MdjHar/xtx+v2RgWBoPXOdjBynMzJ9Kn3A2ovGb7Dcc7bLkdc9Jye8LucPFjrugxh/bbwrgofkb223PsI38Wu2oMJabiu8zNEjs7rvYvjK/1Lf+2Y2metbFKu96Wufi0cUp767M3rm2jeGZ8Gefd6dKNlfDtuLjGF+KW5L6wyXIszMcu55gbLQ7VN9O2jmmO2/eOrfeTOBH4ZmNpffViWfqMMUttujhZG0Q+6nmdHOhwcdqImFm/0m+In7uJn0L0RhaHdBTA1oauctTC5BemQiQbcL+tDLwkYJu3t+3zT0vQ3J8W9NZHF5OaxAuEk7bY7zNztqRovheftL2lXWuT5rrGRolXV3iUICQM88LW5u1sc3DkObjgFTt/Lj+pOFBB+Pmb/FsuMBbT/NvhWRaPpvgkO9gG2a8uTHmcn4u0JX3P50Xhkn0lX7yYuPYaDkVxs+Mt2m/GZWzdq10HMzsf217i12LOx/Xncm6yoN8Cs+Kb3hnTPGPxyAuy/dT5pH3Rud/O8Zi6r95R4DYSL8qdQLBE8U/zejEZtW+2Rj6k45N5RhxROcMc6/jj+c32J+wbZhGfbvfrRPXkrPOcbVafTkzIp1oPVPsRZp7vzvhUG3OdrbWJ+kpudNieysVw7TOKbTsH8XNP8WOCYclrf5fEtEXS/i7B8xPEbysTXhfARgTflna+FgRJQkH+5f5yrNnvPfHzPKJQZN9sEbK/yc5bbRz3d5I5zatsiQqE9lP5qMSSbifjOvxuhYmI27CfXVzIl1L8yBYW6mQnLwQ+Vsv89Ozxx5rDomApF1rBvQEu/py+/X4uinky3n5f6e+aOWW//jthY+pPnMPLtvVzWP94YW2LuNsnwtzwR/b1cbG51ewJ20/zPsKvzZHtU7mtz7mccHzMti7VM7L7dr9YbAX5IPBx7a+7N16MB5jNxpzwkeI/4dzZEo0n7Jf8ib5D/NxR/PBCwOBr8kYFx5LIb9cRIgfeb8vzp8/SzyOvTl7Zh79r+3X70Tnuf82nHdf+zmOaIuRjc93Oj7TZnbsmXMHevyoirMhOm9xpDmmzmkcVTOJGIEClreo7ixZbZKvtOpayr7TLFXJsi7Iz4qHldjyvtEHhQTbnYxP+KPutv2ERXWf/cI46ZzQmYxCdvwKzSZ41jKO52ba5Ty9ObY4yRombt/jGNkTjRrhH7a0t8e9JzE3dkeO5fjp8c20NxnXbVn6tiBFfsIR9B3UmsK0K605wjwSXibmqIQN/yAa5Wyaxn/0O8fMs8VMDaLeb6XclkSEIEdZPfL+tJEPpNyF+Ivt4sTOJs0Vi8uLa3V4Sc7rzmIT0sdmP+LGiOMVHxkX5qArCoCiZeMiYl++FGw3beAFqbZib1FbhbGyRdkbc4WddKrcHBU74k/HgvvwpONF8tT4a+8WYuY+zGOXjK+2P+NbsSn4u5ObKOfXYBkcVJ31O8qyNsWCbxc39PScYFLfVOBQ7hxtRnwj3qH3zV2PSH5/zheuVl898rl3omHwh311bg/i5bRWGS36NhIjsO/CfbGt+cb+4T2y3ibmsIYt+UV+uB4uCju1snxA/zxI/S8WwBt8vTH7i+21lcvvFrxEit+VCbApRTOLbhQUXC7tzYue0v6W9XIR8bG630Z3bxMnaL7FnH9lOeU7arOZRBcEvoHKcqe80pn7omYqJERXSLm2/sUXZuczDKTsJW4VHxdtwlvLJPgCq7Ld9s83ehcA6+4dz1DmXxlw6b/0d/A4Wz4S5b+s2c8/EKW4T2xD18X25Pc9HuxiKtwOc+ZkrdSFhciuN5foWjOu2rfwa8EG0KZgtPfMTCxldA+SccZ/YbhNzVUPk2Avf3Xq20AcPPBeANn+31xR5Y7KoBHNFEvXt1O7ymIX8XsFvZInaxCQOklgknfapzcXHZ+d0bbB4e4satbGLI88/8+nOXX0siTwUP+GDlDpuah5VEKidU0Rn7FdtLEZqnhafEpeVOz+hn21cZUvF0D+v8Ijazthv+1oM6nkdj0Vbw3GkP0tjLp2XYy19j8aKjptFqOKwNI8+H+Wwwi/CKjoeCYRko9dngzy/XfxEOGu8Ei4ut209o3ioXLwyRixexnUqEsnx8SFmXpy8+OV2S8KsxzDzK5qDa9G5Hxc7P0/b+eHk1f8jQxWKTHBKpLrg0e+83dffusjJNHgWYr5ASbvEnNUOTUI3idckKBG/baf6c7rzdMXCChEq7ul/JgX297hr/8JCVX20c/b9W5LqRLQxUT6qgmC5EMxRbSrn0/h2t6nwRPCHFw2x21fapFtHa8XPLLfn7Fd4GN9q3Gbst33DgrnSfmfuapeYs+A5uPDocmAOH28u3nmQcbc8a/22ET98a6/yhXx3/7eXysNx7sTxt/3IjxvzfLiQi3iykJAYM6axzTqmbruunlGfjfhReGD+jEXeFZR/58di2x4wbzVa+kK1SdQPxqLiuRRzVevk2Pr7VD3jOHFupvXS2Abx80zxkwIkg1PvX9oCSUSk85l8mShi8eJgC6XLW66SrHEB7AnG/dNnSnCbqDWJqt38jIUUTnrclhD9cTueN6e1IY/nFQuFa8Ezj68SsLdhZJ87d8XdKRb1nJmHkrzhq+Oo5lEF4Trxk3zKY8o4eTgYuxJvSkyuED/T3DbYOJgpPJzzNWZL9oc2EW8tJopDzG2bm2S/mdsKgGKjEPQyl6VPa+aU/bzvUzYl+0k0/P7Y4A+eTvi4UKMSVrYWtFwxtUXhdVuedzki8qUJHF2LpV065nG7NlZfUzNPyCfZjjne4WI56/HAO6ZwK9yW60SZr/fB2jSHWeLYBC+Ir3YO9l1+dvOGOLR57bgQP/cQPx7ZcGyDwrq8UMoEwXfgBQ6AA4/nAIkGZ0Eui3YgoLFGPHSNgPiB+Hko4R5fiFD8gTk4AA48kAO0q9LvpPCOFsTPHvgI8QPxA/GDKy5wABwABzbjQLDzw7eanB2hPYiBo9kA8QPxg6K3WdF74NUlbAZvwYEdc6B/XiY9H+TtBh1NdOzFX4gfiJ8dFxCIib0UCtgBLoID4MA7cQDiR4if//mf/7ngHzAAB8ABcAAcAAfemwMsfl4hzv/nXqqT/8jhK4AAG987IRFfxBccAAfAgftzAOIH981x2wscAAfAAXAAHAAHdsqBu+383GtHCePiHjk4AA6AA+AAOAAO3MIBiJ+dqtJbgoq+KArgADgADoAD4EDMAYgfiB9sy4ID4AA4AA6AA4fiwMPET/oT5A/5ewz23TvmxWtPU8KDd8s8zaZ7JDv/0TF+h88D/viYelfWPXy685jb2t/eu1PekRT85dsnxCm/hmBrPlQ/9Lvc1uVU+fsxD6lPK7m0FrPyqocH1dqVvqyLSXzFjnGAzRYcuK/4SUKExEcq8OUlaKnQBAV502SiRQDi52lqfm3hvpbQ24qHxxeWu9mfLwSWc+1RcbrLPBA/Kr+Xxc+2Qu8uMd10HXh8Pi/Vscdjtm3Ml/x7lfP3FT/1rbM/l+8/6d/3JV+NOoKkLAD8ludzFU3XA/kY8dPZzTse9dN7e/cjErIQXr8hWeD7gL+M+qgkv5t4eFARvpv9RxA/m8Rov4vD9jm0ra/b2/eI2vjcOR6P2bYxv35Nfi7u1u47ix92diREeJteblvTwn3TFvloTrZr688ByegKtex+bT3v8nh3W2AHi8+jkvwZvtlEuuX33eyH+FG7InGMBnk74Hc83nI+zvbdPoe29XV7+7bDbhbjR7d7PGbbxvzReN1rvjuLHxY2eudH3VuPCjSJhdo2/y5b+Jk8vLMSCqRI/LBNUmxRwtk5Vxe+AcmE+Fm2n23knZrlWxdLBFlcYMm+tlPk4HPiNyizXeMdusUkn5xz3reCP/tQuSPiqLBPHOp2IUUMMzebr9cK14J9G8fO2WKzbP/J2HQ++3HKmEW5JfBI7RbjZNpH8bDYWvzrPCbuGleRt6adGs+cOwd1IM+ZYmza6zlFzNlX0V63nVucLRY25hGG9vgcZhRDronnMz1i0GztOCjapnxR2DIG0afAhnNNfdpYdO0HnI3m5OPdWH1tnIt5w8Zi3v8e1+OKrakl6nhnt6gHKRYWs5OuBX2el/OJm3WeHNOGrT5u5lsbc8b/jT7vK35S8SVCJEKWIpKCxoQlUnWBT8Q05wR5WqISQQzpCnlFEbUBowXEFrVCFrZtTXJw22JPs4+Pn3TxrfZ67XufbreLE6QlhkxwThKJRyneEgsuAHIMstWN38KiSvFUWKVjFRuBnY2f+Z3t//tz+ZFF34lxaid9rAuimpN8cguJxGPOPi921o7SphSnap8nXDp8vJgIu7wxDHaJB3WBdc5Jnoy+F75IbqRxNV6lTfKzHS++y37sk27Hoq/iI2wd2d/mbHP0MTF5yLUm4PUIh3TOxtfnmYiT8MWOXXxL3LaYtd+qD9nu4VTaGV8Hc6txg3Yj7FN/5ra0p8QksD+Yp9puYuKNVY4l/oxiPof/iUWIqBE9f1h8Cp+YQ6If47mEGfNF1sbiU/On2pXqVJ2DcsdgxG3leGzLkT/vK34EkVPwevDHiahIEpBJtRHzVfFUiSHJTgucOkfEUcdkn5nvA38m7S+JJUme5r3dNn/cNHZks8EoWkgdkcEJFcfmdCmLmSgWKnYzWLc2XoGtmHWFoPVLdmYbRZFkPLorscVFRY87hQH57NsfxcXMM8B/FuNhnKbiMsfPgrWJeYcrjaViknyO8RjZPzenHJt4v8Abju/sZ7HD5rWJpYO1a7+zIFc7OjztHNJXe2797xH2ccwI45tqLdlK/sq1xcVsERffd79uenynY5k38ns/7hiz6GLExs3nqW+v7dvbVPnjcPBdzz1M/PgAjoNSSEwFIyBvTCSPoC3oauwU8GB83+42jj4/8CcYX9sf26zbRfPHx/2kYBHCu3K6v5yzw6smSeyz7K9xanjLXYCuTZ1D22XbRb7FNrfx+r7Fn3Y11draeWd+l/G9be02bm9DOhfjquYNeJXbRILV4DqMk2mr5hbnCtbyKrT5x33ceTr7xwsHjyU/3XHJNvdcNydj/XX5dm9B9L7I+We++zFeHte1ny+GPIHW+WbnYF8/Jp+Hsv31b98+ajMQ5sN+glfL2Pb+uGMv4qL9KvOurMc0R7kFaES+8Mm1r57v/fFt8dv5PPPbLmPrYfI+x/YvfjjBA/LGRIqJm4Nuxsuk4bkqEdcGekAyMx8TT9tf+qv75/n2S7kl0u1GrLDTTwoWP36iZtvoClzbKXEhm52ruLgP97f+rr8yTjhGvvXH7XyEq9pliP3hmK3+pEWgxtVg1duZ8Cl2yCvaNG+JCdvdPuVthWrfA8VPmrP40Wxybbc51uXF88RPFJ+K53S+zfCMc2D8GeVQdHz5Is7n1Xofi92hHQmrAf8Kj9fnu+UYx0xyzbWp49kY94JHFEfiuOWyyAFpj8XWtY+5RXayX91nrR1+HNfUEmvX0X4/WfyMBIo5F5A3JpLpz+Sqn/J8+T4i7BwxfELmvlP2S5tmknO+jZ8UEwWKEjzGOfY57uPYXQXCtQWx76fnp0JmClaPC7WrRcaxtXJo/blsk7pPz6LB2t/jWvoaoRrwKnNusPhIPmuc1vskxyrficfmoUp3ns5+6mvi1M/R7HTHpRi557o5BdbMw6vjP8uzZv963wZ1ovPNziN8vYHHbLOLL4874N+wH/c3nyx8tNDv/XHHXsTF4pR+D3A2tmU8iDv8J120nW181746Xu8PY60//XZ9PUvz+m31eM2+oxx/svjhwm8KeiKCJav9TWSJiTRB3EzW78tnHtuxoRJylhgDkk3aH/sza4Pfzk+K1Day2RyPCll0nHcpVixioyvFUUL6vhX76+0rLky/ND59X9NvNQf0+J7dNsa9DV5cArsCXuV5B7GRdll75Lnrv/f5587T2U/9VvDGHXdUH7o5NddLPLxnFJdjWzjc30b2Y7w8nusb2e9erHW+2Tn6uFwfY67fVrjznBrXNk90nPt5nxEv+rFGmEWCpNmm53bHcmtCsaPUG7JV7Si3ccdcmI1P73cVfioCAAAgAElEQVTywR97dsxmY4THOx1/uvjhxVff0pFEooAESR2TcybgNI+5Er8+wD4h83iz9lO7umi7ibaepH5SlHHKOS3+Mq4qeQlPtSg5cRL2xrEpSWoLUT/nnJ+eb91YDq6lTdrClsV77NM6biTM5NjJn358z35u1xY4wl/aSoIubY1bLLOdDxM/n5dvxYt28dLsDx7k7PLC49mYByOeuee6Ofu8ZW64uAqOd3yY5tnYJx63t38Bn863fp7im853nm/1J3FQxlmOMVdbehvlGPy9s5uxvmqHcW5Ovggf12MnN9k2bwdxATMW0BGmBY+es+m4X0v4dvlGMR/x/4XO7UD8JBIyeeLnBZiEthjZ4lASpI0j75navoks3N47x0k3/+kTMvcPipK1v8xFC6R83ida4CbJFiUF+1bOC9zsYpbnWY5TN47wwSYzY19j5M45UaS40Ii5tJimMYRYSHMme3pcCHuvaE1izZhGsbQ49DYkez0uGV4kvCyvPCwYF4Hvmjhpf4J4OPPanHK5bu3nWiBs9eaftX9uTg/rxnUbL88edWyKZwGOlmNmrJwrHTcNLzje+dOK7zRv841zb7WPws4uFiZ2S+cVdmLc/ri1O/nWx24u5pP4Z3t8fJnfXMcshtXvLl4sUgb11skn/Z9Der8TXmXO+8e8j80aPPfRdifi53lgFOJ6ZHmeTe9ALPgA/oAD4AA4AA7slQMHFz++et5rsGAXCgk4AA6AA+AAOHA7Bw4sfmgL1WzRglS3kwoYAkNwABwAB8CBPXPggOJH3L+F8NnkD53tmeCwDQUYHAAHwAFwwHLggOIHJLAkwG9wAhwAB8ABcOBIHID4Gf7vAiTDkZIBvoLv4AA4AA4cgwMQPxA/uPUFDoAD4AA4AA4cigN3Ez///vvv5Z9//jkUmLhiOMYVA+KMOIMD4AA48NocgPiB2odABQfAAXAAHAAHDsUBiB8Q/lCEx9Xaa1+tIX6IHzgADmzBAYgfiB+IH3AAHAAHwAFw4FAc2JX4id6R0qs8+46XK9/AvED2+D0p+1He85ittDm/U+jJL8Lr3vu00oeF+Pa8mh8/436gvxO1Kc/4fVW7xo9qjPNeplt4g77zOQasgNU9OfCC4oeFz+3v41oSN0vn7xmY2bE3XZSkWID4GV4FQfzcUJghfobcms19tLuBg7LW4fsh+bgr8TOVzLQbYN+gO9XXkHxJ3Cydv2bOl+kD8TMsCEcTPy/DW5Pj19uNnZ/rsYMoAXb758DLip/vX7eDuyRuls6/NcEhfiB+NhMSt+fq43MN4ufxmL8iT2Dzq/JkF+KHb92cz+dL+jcUNjc/ByLe7UXz8bzls91Oa+JH9/F3nXSb87mNM0uO8W5CGZ/nnsIsY1We21HtvWctCFeNRf/MT8GkxCm3Fc9ErLF/ChMR6/X297anOUf2T9lEgqD6anBzucu3eZhvArM2J9/OZWx7+/Ocqe/MnCPhkvun8ZmzZa6KseBHPTbKzTre6aLai3GynxM4sI81TsZfxreeZ0zrZ4/b6cR+MrZ+birbeTw3VljwGm+BBbB4TQ7sQvxU8lBR5wJXj3fFi4sYf/rFrPX3g1MKaNxXFthqk7cjQnazMEnzlkIaj+3ZNranFPBqBy9uIWYntUg222ghkEWdFiU1ducnL87SJxqLFrmr7Gc/vE/yTYusMmfzJ8X28/JtFtqCv14Ii339MeW3Z4dzLI//9+fyc27jReOfRZu6EEv8md/imDdWW5xbDLx2HrfUsYzrz+Xnb7K9xDV9P6f5u7hT7mzBs4pjvKtScRW2SDuzjXUcmdfkx+8PvWNHdku+FBwbhqcT2aM4FNuosHRtkXbhO/ACB/bIgRcRP4I8oyK8shCVhUMWQTGP2CXQi2O/+JaC/XX5UPP37RYJkBcetscUX1qwvv7TNvIugLaR2hBWdsHQ9pp52Ae7CNrfqh3t1l1jP4/jfU7Zb/Dgcahvt+ipBS7oy2MMPssC2oRPiS2JwSpiAg4YLH0e9nFx5yQ/3fhH9itcaR7eqcy2Obuvo3nUeA1TzbN2vIqNilM7p3wkW0oMyc4gfhlD55xvg4mLiUeJZY//Yv5GeOO4FqTAA3jsgAMQP1z0nWD4i5IpnHTVLhfZq4tnXkR4QaWFlO1zC3Tb3XEXv2DBUgtC0MbuAJRFiYVZW6x4JyP7f439Du51kQlsU/aH/W2cxC0vZ5Gsc4bjSZ9pZ68bxyzQUzGLF1nrp/2dbQ4wGvqj+ng2Xyd+LAddezO+kz6T+CnjGjtlnJQ/Mk49Bwouen7fTt1miKe0Bd+xsIMDL8EBiB8WFw5hp8QPFV79rAzfjjuXWwnO2H4xLcU6F/tU+P98Xb7yrYkT3Y5wxEdY+GNhpIp91N8s3KqP8odEWr6Kv8J+NZZcuCbtp/4lVgJ3emajE6W0oNZ4ObsPfmy0bREe8nhkE89dFnXCj58xsZ9CYMmxq41R/KZxNaJCCQ7h82ie4Jxrb7YrFhaqj7LF2Fn9i8fiXVHGu/uk2Ks5Z8atbQQ+OPYSC17NG8Tr8PGC+LlV/IQ7P9cUxrIQpgU7LZxpcUyFmX+fxUJYkzhYePL54Jwq9kEbd+fHm1/5f4X9oyIU2KbsX3F7smJGc+Zxkti4QgBZG8rYZiE2AtLO7/YZ4OHOGWDkz0WcVH2MqFCCQ3BY9RHHk73BOdfe7J/BSfis+ihbjJ3Ux79AYfsaH0d4qDmrLbGNo7FwjrHHJ7iwbw4cWvzYBd6S1S+stqBuWSTLWD+/P/WOz9+vy+dveiC1FmciVrDwZF+Cc7rYW3/SuOSTfFA3WsjV8Svst/7I31P2k62dMPP86pNRY9Gft5zg324/srfuNgX28xj86Y4lcaDvbrvJOXiu/Kn6GPyU4BB4qD7ieLItOOfam32hOR3RqfooW4ydg3mbr/E8rQ3fDjW7qjS3K4zJ32v+R6ecF98Nj4jnwAW4PIIDxxY/XMScIpzAnxM/fEtqm1ds5OKfdiPqYl4W8bRlXxdVWSSChSeTJzinFhjnf6aV8/p/MlVBVO1KCUq2CfxW2y99sd9X2c/PSrXFWGOWFkKzwDn2zyadxdDHh//Xn7DN+ph+L/CQbernbH3LLbTJoqlwNaJCCQ4xnuojjgv7rQ2uvdn/WJSoPsoWYycLdME9xkl90hhu7nAsyLfaJv9O/xvO3xUsdaHcYrU+q7l5fHwe/hYLeGFqxg5yYgfipy3u3T1575bUqAhfAyhf4dVnLdoCOS1+0rxkl/ZhYdFz7OXCWgtxFSfyIdRJzAKs1AKTbaCFhTDIc9MCoP93mW6nxUUh95z9k4lwpf3lirxgJHGsYq3GOhCUTly64tXxxl8oUz/GRHFDiciEhx9Tubj2cWu8k+06W60/ClcjKpTg8G0qfrQ8Ye5bG6y9+bfAXuLBfVUfZYu208VU8lf6TP7K+fSfH2gXMNK3bIsnrup4AgM5H75D7IADu+fADsTP5EIIMu2eTIuLLmKIGIID4AA4AA7sgAMQPzsIAkQDBDA4AA6AA+AAOPA4DkD8QPzgKgQcAAfAAXAAHDgUByB+QPhDER5XVo+7sgLWwBocAAf2ygGIH4gfiB9wABwAB8ABcOBQHID4AeEPRfi9XoXALlwhgwPgADjwOA7cTfwgiI8LIrAG1uAAOAAOgAPgwDwHIH6w84OdH3AAHAAHwAFw4FAcgPgB4Q9FeFwZzV8ZAStgBQ6AA+/KAYgfiB+IH3AAHAAHwAFw4FAceJj4SX8qXr9qYKWiVn+Sf2Xfe5PavurA+5P41Yb2igj+k/7rlTWNMZxnRxjtOXY1LjvCa6c2da+neBX+LeEJfj550fNeRYN8XL8uALM1mN1X/CRRQAUyvYunLPaJ6OvfeRW9P2iNs/dvOyNKIH7uH4e4CJR3QuGdTGtjUITPFXm7JDwecX5J3Cydf4SND5vjCUJjEd8n2PQwvONatDYH0X5bLO8rfvjNy+efy/ef9O/7kl8cWK8YmxDQLx0sb0xWbRcTaFtgJNH6lyhGi+eM+NnCzkfNs4WtV758U7zQVXPjtgUY4ueamJbFiS9kZG68xPel2rF0/g4LZRaT3ctt+QWrjePdblt9MWxrsy4GTxAai/g+waa6Nom1JmPr1Hayv9Wha7G/JvfQZx2/5/G6s/hhQyYX63z7KCDWYgLxXFt+sjizNn1evquAk/NN+nlzMX3UPNK3G75fGTtvgWAheu0tVIifa+L4jMXpGjuDPkv8Wzp/c772dnnczkU+rIFbxWCrcXqfwkVqEd8n2OTE1K0N9EiDrjep/joiyRkzxARtn3yr9XS5s/hp4kHu/GgiiSQKE1/vHqirIe/q6VSSqSn164haksEKH2FvR+CRKGEs+EpjYVxKuuqDElvePM3nEN/OXuGLne9sMSvjp1uXLECKbbZdGrPZUu0/n+m2p5hzZA/v/DjxLfE3+FGBbfPJ8749ra31wcbqtufVFF/rlfu53hIuBdLaKO2XmNl21vbS1s55FSdqfMqc8RjivOFR91xbFydtf7b7z2fjWOK96NONV22UGPkYtHiXHKxjicVZ4eZw79TtGERx6u2RC2Gexxs/rIEC44HPcg75Xecs16D2aWPbtVf1Z+wbz6uwlLyn7xV/qhfJBj2v5kYZ1+bmdfizjfKzzC3npLm8OF0RAzkXvs9x6J443Vf8pESmpEmJUMiekjggbJj4TfzkAlYT0SkIVMhkMpcklKSeAf4a4lOfal8wz8hPXvStWPj1LcSDnafgcO4ESzC/TdyEmbKZxlfj8Rxy0XYwcvDnxasVuzm7wgWim+Pz8m0KVIl5z7O+wPW2fP4x/XK8rhNAHfe8sZxjvAgozDq/T5du/MofzffOJ8uB7jdzoC2QWjxIjAQ3BGeKD62d55ONU/7996fwkfLk528aw3K+j1tYKAk3haX0l84v1hYW9SJXrI+hDXI+jpHhbO5LPn/9Z/1zap0Zc27upXE47pI/FF/P3hkblvBnXJMoqnN48SY7NsDfw6rEUvrtYWHjgt8elq9w7L7iRyRGKmpSkLjghIkvxI8gfhqjFMuvywfNZX+XeZYS3iGws9C4Ngsf61WhsbHrN+FnWKjzfLIw3ClBs40sWBM+fgG0BcPFf7H4Ofg7sa048mI1wjmIn7W3jqniaO0hjGthtuej3x7v7FgylnIc267nerHdzhGNJ8de+93OYfv73NCiNxqD+lIsM3/44og4WOpGj8dc7FrtCHMq4JPlss+d6/C2Y1dfwtoQ4WdjsfR7YZxo/q4eLM0jzi/mP3HA5JfF2/4umF2Hf8Vb5L07PvmthbHwTfT3xsSx/WL1MPEzRYIo8RLBggTSRSRK7CsSJFg8x35MzjPw003ALsF4nq/L1990ZS6vVjYiW4e3j622128TxW6MZbTYJ/+oWI7ED7WxglvbO4+V5tlkP5dDHLvPcs/bbVPG17YG2PJtGIFFtjVdRYtjS1iPz0dzMw4T8RgsnhJb+f2k+hBuZoEc2032dVxmu8fnlS0Ozjy3bmfG7nK3nA/7hLVhKQZz83Lu2LxQvrj15Ib5l/CfylWTNwLXEEvRhv0bfep8k3jS3PXW3R3q7UpbR37gnIxd/P29xA8lmd6eF9v2axaDwaIUkytOUNUnLHCjBV8G0STjNQuCSbZcQGpyN8za1bJf/HTB8NtsLn44ziKexY5mN3PAFnltr8RUfOfxLR5X4FxwFcVSLeixqE98KbbSbaPIJrZRYNH6NjwsDoqPhgv9uSCutV85PxRbS5ynBVctZAor4vwVMVjkH2HbuF64oGxhwc1428+VdumxBfdCnJZiIMaocfGOjccJ7WL/Dc96rjhzBvi2vr5NOleJYxZ3/r0S/zZ3s1fP146rtsTJVF8sX1S7YQyCsdHnoQ9Bv5f4Ca4griMlJduqpLpd/EwloLwK5UVxlZ06+XLB41sNnIBdwZovUN1C242l54/iExZitSiySLDFaMZexw7G0xT50BbGy/00IpUKtSqaA2w0F3x/Iuza8WZDFxfXZgeTxbyiXDGYNRv6/8Itz0ls5fdX2fmRvsx+V37KOOxc/FzFoQHHC14+tzX/J2urxHLldz2flwd8jPh+Q82d5QnaMebbf76Z+Nk2QXKBsqJgmFCT84cFjhcJu5DbwJt5+GpktPiEdgcLV1ewri9QBccln6yP0S4Y+V635ul3V4h8e8uC2h7CtcWlFMD+fLhYhbhyLPux9JwmlnU8e9z+7vHS48rzt/RN4wRYVlsDDtXzozH02ApnJXLJhy7O0s/ou56jw6njehlH2TJ6Bk35Gdmgj5ecEDuCNEa8AC/4MG3DAhei2hQdn5p3yXb/vMXCxqOL45QtOg5yjPnxi73t4ew2ZonrxPOtN9oq7cb3hv8aLN5M/PCCsxX5iOSdALrx7/wMCwkVJzvn8H97td2P9VdmPJ8oxLTo6K3duQJlxUP+nf73zhXbxH0xYlu1kCoFR4gMWsyS/R0efC4SiuR769fm9IrdMNmCRbXrQ3PKHSGLY+7T2eYlff8/3/i2T/PJ6zc65se++UF5EmFKhd7zqcSucU/FXOFCcbhK/HAM2zzN9vjWo7Il+bDEnTULGo2lYuIdq2MuxWAUP32uy5c6R2rn4TwXX4WpN2a9YNH2ROK68EXEbEv8k6CXfHWxd3Kp3o7WNaj4zjxLt5uF3QoL6zt+x7y5LzbvJ34S0ThJ+H5w/hSL40oylmLRnp+wxO7Pt7Z1QXNtonZOQe/GlInKBUodo52S5Ks5vkwuKm6MV7KH7K32B1f/XYHiK2QeK9tSxm9jzZG6wyD0TRYdLjyDxYIWVX4uyMaz+KRjmG1x4rSErR2rzmnHWrCpzuPyyHDbabMW+zpfzpUBluL8DO86PAwOCufNxE/im+G4FOMd1ws/lS21ZvTj6IuEOW5nfCfi5OZAzi0T82rfzPw2X+xFwtL5mTlsmx63xkmfX15t8eJ4Nf4m55QQZTydGNl6oXKljgnxo3BhPHf0uS/xsyNg9h442GeL6/5+80LfijzZyAV1tUjdn4/gIWICDkgOkMgzoh4YSYz28R3iB4LroU/YH6kIlKt27wqQCiTED7iH+vNWHCg5f8uu3D6EwRHqNMQPis9bFZ89JW2088O3MrodIXARXAQHXpMDuN31cnGD+EGxeTnS7kngLNnCAqg+65Of1/B2g3DFt4QlzoMj4AA4sBUHIH4gfiB+wAFwABwAB8CBQ3EA4geEPxTht7pqwDi4AgUHwAFw4HU5APED8QPxAw6AA+AAOAAOHIoDdxM///777+Wff/45FJi4CnjdqwDEDrEDB8ABcOA4HID4gdqHQAUHwAFwABwABw7FAYgfEP5QhMeV3XGu7BBrxBocAAciDkD8QPxA/IAD4AA4AA6AA4fiwOuIn+D9O5GqK2/vPl9Wv4xSJID/bpn7KulnzBliKLDYc5vDYFb/kBq9d2z4F6Lb+5kO88cU19aIlfx+Os9s/PHyzOXF+iGY+e8m23PNhG2nC8TPoAA+o9g9Y869J0L+i8iDd+XsHbPt7SNhA/GjF78bxc+ueUaLuPvyzUEN20Vu3xiXq33YDLMlcbN0/r4XzFfjs3fe3Nm+9xU/GwC3/aK1nATPmHPvybPrRWmCZ9vHdEb8LHNt73Ffbd+Ni+yeeZZte9WdnhvjspoHlJPbYbYkbpbOb5+LYU0xWJd2tFOc/7p8+36YHeGgRkP8BMCkhAsJNuhzbaJyv2fMyXPv9XPPi9IMZtvHFOLHxd0UfrfNIHf3zLMl29b6+tD2N8blWlu3w2xJ3Cydf574adihZjQsSjyeK34WkkItGqJtJjWrWHs7xN7jnbw1UN69pN/G2+Yv5Ob3M9229azHOpuruTVzKhwSHtbXjFnxSbW1mKUFweLG+Br7unZ2zry4WB81rpaE7m+KN2PefQof1mA2Z/9ksepslO/sshi0K67iC7UdbM2XmMkx2a5RIaNzNX4+9hmzjKG20+O24k4d1+HbQFjUGHc8s/4Ve9JVaYkr42bbJSy07cyRVVe0XQx5PvrcA89Op0uOgbCl4ikw13g58cnYO/VA5Hie589nwz7lt8BIY2u5dr5I/oS8IQ7psZjbS5825j6/Ez4zmHk48rEOT8n9s/S12JR81308zlpey3GWfG/nyzzO+BSrHttRzWjjsu9H+Hyu+KHiJRNGgp4DzAkvErAt8o10sl/5vhBsHo/Hz0Xk4/L15+vyQQVFErmSSRSQfs4FEnHhV4Lh8/Itfs/OmdpVm5K97I8Yqx5zErVh2IRPG48KjMKGk1YWG2on5+QFyR4zY63BbqmIrcHsfF6yfyGGvNgQ3oq76Zjyu4xV7HMKFXPur/dgvoct27bAbbZxwNWGmcCD+Nl4QAuIWBxZPCq/eb6lzw4fXjwlNuR3WmgqltROcijC/3zWebFkkzi/N561GBlBRotwi8EAR4kZ158BtgWDn8Jj4s/P38SRnnOffwR3Eo40frOL+Eqxkrxak/+1rTM+Y8Rj828Wwvazs03Ev87THSucjPsKzla8e7zS+BlfmU8ej7v5Oe/bZ/FT5s0S1r49sc9trndt82TxUwJSSUXJ9vVfAT4ThQsgkaQVRNGmEk4GbBzspUKXAs6JxIlVSLCUCNIG+X1sDxPsljmjxFrCzMOi2CGLW+C3iRkLLo2ZxGH9d88+xms+TpP2TxSePLf1e9AvLFTUp8eaFxKJv8RtjktlMfLHmOOZhxnN7eactHHyOy1ojS9lTvu/NC2GLiduXGTdMUVcr8dsKZ7LWA1ti7hosaXftd4q/pWFNM/DFwiq/UzcgzY3xqXkesT5YE4WGpvw1MsDGbM5zka10XJb1rboe9gnxDrCT/pxrO9PFj+khEngcHEpyWmCFQQ1LgqmvyhivF1ui4Almk+wpUQICBTYv+Wcnb3BnBozv3h0Y0UFtpuDCsENV+AWE21vj29na461idO0/f341p78m/zWO0l+X98+0ZbGknwc+zzithg38rkKe3vlaDBz7DqdJudW+SZssscD/kgsEt4aQ2Mnj9mNNZiX+4jPMebWBh7b2BJhfkfbst1yN6H65Nk23hlTGGRfuL1fJ2xuqP5sx42+y3yzvOi5wXG5/bZX883gyH7VT/+85mzEn+uEsR272hpivXHeVt8b3tWGFzn3dPGTg5jVeQrOz+Xr9zdtd5dgVbIHQXWTLYM/CHYwlg2eTzCf6LZv9zsqioYo83MWO+y2rnqGKPCzw0wVuURmGpt33eri42+/JxvalXvqT9jXe+T+7kOHkcGCz3f2mnYzmJU2s/bPJrSNgRUTZRzfPj2H9rGMqzGV7QfcltgMOOfbVOatOcdXz3Jh7bgi7Vr+nv2svGjxaL72NiQeaHv9NtGVNfNo6VPHoPdF28DntS2lTfPL5mfzk/vPfY5si88V2+rO70Ts1FiqPXFO7qRQfbE+2l27W+OS4xbUssaNvsYoX2RerP6uY9zzyD9v+ZLtcbhf8Ovt7+dpXLFj17YhTpM1YzU2zaZqw4uMsQ/xk4vr5+U7JVYOXlpECqFqsQiCGhN8FGyfrDZ4PsHm+tqxZgvA3JzFBltkur6TmJV+pmAL4ZN9GSykna+S/GTDzA5JNE4c45J4nd95fhOna+2Xvoy+00KhxCe19+0zRUPal7/7QqpgNOK2GFeOaWz3bTKYdSK2cKTmpBkzih8fL8XfFPmOo9YGL8Z+m9kcY3vs5555NrItPmdwIo6O4qfGUu2N+OG8NnVC9Wd+dDEWHOU2S5+DMXwuv9DOz5LvzvnI5zgHJmuGM5fNk3f5/XTxU55L+L58pkTLiVSC9P0rJa4olAH53WTLARwF2yRyEHCfYKagBH17gpR+9Sos6Dc1pypKrZB0facwm/QnGKv3s9lTz93St7vq78fv/M7YGr9utKH6EsQtn89xEZzlttFxPp8/CyfTrkvmtFlU9Pwjbgt8BvNOYTbor+0Rcyqf5PGA/11cTNxoPG2v73/GrduFlDaMv+s5+rb+eWNv508/znrsFhbyKE72eP5td2m1faqeqva6ZhYseq6r/pULBqN6XM89xsWPed1ldvLFt2XNnNw2mpvP+/51fLHxuAqHMmeEf/yc35IP5AvF3F5Yj2PDOLzW5/PFDxULeeukBDZdZYqr36CoxARfCDYHWSWN97+9hA2ZrD7RZ8jBfsnbCvkWk7ChSxhvTsZM9Ms45C1VYe8UZgs4iQQtc/QFT/n+61v9d9d0LkxUMbYawx6nWGncWqJNYVZv4SzYb+cOfqc57RV0wUfgz32deHn+Fj8S75dsnIzZoNhOYRbwx7N9+RjZLHOac1AJFj+/rL3ld8Mp//77c/lRYzWOLNvHz17E//XY2lDG7O2dyhPmxuRnHlPeclL9CFt1vtilLrYIb8tbiY2aR7U3c9C5lpMcX+9/LvI5JzeUHwvxUvaUtpYHoS9r5nHajmPacyDZ0fNlIxyyfU58nccVGh40t1gz2rmGe/Fzpga1Pt44r3Ds+eKHAyaLIi8WMpmDQqyStS5wZXve3ovukp7nqfdhWzFNwevJmwLuE3062JTAzTZdEKbnNOOkItT1ncSMt0qbTYyfxqNhwufpU8ap4ibbaB+nsRJFqPgmxhRzdn6L4tCKsyyWYpwUezHWGttaofBxUGOZeClhz34yHwN7uvkqb8XVPI8hztW4inFnMetw53HFWMpP9sX9pIItx+g46ueXZ6/CIxf10rfLc9cWv3h3/go/PRuietCNk3wWY81jVuy0da7vzwtr47blPv9X9BE+ah4lNmh84YP1MY2r+ivcTeyvFakzeUTzxrb4se8xle1G+M5zNs2R7eIc4M8FUeLb1mNqY25jVGtBhD/jK+Lszy2xec3vOxA/rwnc2xCCF8su+TjZbxcub4OVKuZ34C3FwhawZ+HHhbNbLEPO3AGTe2OO8fX70YAH8DgIByB+DhLocAFVV3d68SpXKBA/IXYbc6eIjf3gHdmb5UgAAAJ9SURBVMefrjg7waz58yjcMA9wBwfAgbUcgPjZeAFbG4Cnt4+u4nn7EwvcY64EByL0WRyJdn54277bETp6LsH/x+QKcAbOG3AA4mcDEJ+1OG02Lwsgvv9Mn1jc7n81xQIj3YvfI97Svva8wH52pzbLAdQBLKjgwKE4APEDwh+K8Fgs7y/ogDEwBgfAgb1zAOIH4gfiBxwAB8ABcAAcOBQHIH5A+EMRfu9XI7APV8zgADgADtyfA3cTPwje/YMHjIExOAAOgAPgADiwngMQP9j5wc4POAAOgAPgADhwKA5A/IDwhyI8rpDWXyEBM2AGDoAD78YBiB+IH4gfcAAcAAfAAXDgUByA+AHhD0X4d7t6gT+4IgcHwAFwYD0HIH4gfiB+wAFwABwAB8CBQ3EA4geEPxThcYW0/goJmAEzcAAceDcOQPxA/ED8gAPgADgADoADh+IAxA8IfyjCv9vVC/zBFTk4AA6AA+s5APED8QPxAw6AA+AAOAAOHIoDED8g/KEIjyuk9VdIwAyYgQPgwLtxAOIH4gfiBxwAB8ABcAAcOBQHIH5A+EMR/t2uXuAPrsjBAXAAHFjPAYgfiB+IH3AAHAAHwAFw4FAcgPgB4Q9FeFwhrb9CAmbADBwAB96NAxA/ED8QP+AAOAAOgAPgwKE4APEDwh+K8O929QJ/cEUODoAD4MB6DkD8QPxA/IAD4AA4AA6AA4fiAMQPCH8owuMKaf0VEjADZuAAOPBuHID4gfiB+AEHwAFwABwABw7FAYgfEP5QhH+3qxf4gytycAAcAAfWcwDiB+IH4gccAAfAAXAAHDgUByB+QPhDER5XSOuvkIAZMAMHwIF348D/D7wD51+uGlipAAAAAElFTkSuQmCC;" vertex="1" parent="1">
          <mxGeometry x="430" y="240" width="391.43" height="290" as="geometry" />
        </mxCell>
        <mxCell id="V3YRm4ihOELG3l42EoA2-16" value="" style="rounded=0;whiteSpace=wrap;html=1;fontSize=16;fillColor=#f5f5f5;fontColor=#333333;strokeColor=#666666;" vertex="1" parent="1">
          <mxGeometry x="10" y="540" width="810" height="610" as="geometry" />
        </mxCell>
        <mxCell id="V3YRm4ihOELG3l42EoA2-17" value="Title" style="rounded=1;whiteSpace=wrap;html=1;fontSize=16;" vertex="1" parent="1">
          <mxGeometry x="110" y="554.5" width="610" height="60" as="geometry" />
        </mxCell>
        <mxCell id="V3YRm4ihOELG3l42EoA2-18" value="Footer" style="rounded=1;whiteSpace=wrap;html=1;fontSize=16;" vertex="1" parent="1">
          <mxGeometry x="10" y="1110" width="810" height="40" as="geometry" />
        </mxCell>
        <mxCell id="V3YRm4ihOELG3l42EoA2-19" value="Drawing Board" style="whiteSpace=wrap;html=1;aspect=fixed;fontSize=16;" vertex="1" parent="1">
          <mxGeometry x="370" y="700" width="390" height="390" as="geometry" />
        </mxCell>
        <mxCell id="V3YRm4ihOELG3l42EoA2-20" value="2nd Tool Bar" style="rounded=1;whiteSpace=wrap;html=1;fontSize=16;" vertex="1" parent="1">
          <mxGeometry x="370" y="640" width="390" height="50" as="geometry" />
        </mxCell>
        <mxCell id="V3YRm4ihOELG3l42EoA2-21" value="Main Tool Bar" style="rounded=1;whiteSpace=wrap;html=1;fontSize=16;" vertex="1" parent="1">
          <mxGeometry x="80" y="640" width="200" height="440" as="geometry" />
        </mxCell>
        <mxCell id="V3YRm4ihOELG3l42EoA2-23" value="" style="endArrow=none;dashed=1;html=1;rounded=0;fontSize=12;startSize=8;endSize=8;curved=1;entryX=1.004;entryY=0.137;entryDx=0;entryDy=0;entryPerimeter=0;exitX=0;exitY=0.14;exitDx=0;exitDy=0;exitPerimeter=0;" edge="1" parent="1" source="V3YRm4ihOELG3l42EoA2-16" target="V3YRm4ihOELG3l42EoA2-16">
          <mxGeometry width="50" height="50" relative="1" as="geometry">
            <mxPoint x="500" y="840" as="sourcePoint" />
            <mxPoint x="550" y="790" as="targetPoint" />
          </mxGeometry>
        </mxCell>
        <mxCell id="V3YRm4ihOELG3l42EoA2-25" value="" style="endArrow=none;dashed=1;html=1;rounded=0;fontSize=12;startSize=8;endSize=8;curved=1;entryX=1.004;entryY=0.137;entryDx=0;entryDy=0;entryPerimeter=0;exitX=0;exitY=0.14;exitDx=0;exitDy=0;exitPerimeter=0;" edge="1" parent="1">
          <mxGeometry width="50" height="50" relative="1" as="geometry">
            <mxPoint x="7" y="1111" as="sourcePoint" />
            <mxPoint x="820" y="1110" as="targetPoint" />
          </mxGeometry>
        </mxCell>
        <mxCell id="V3YRm4ihOELG3l42EoA2-26" value="" style="endArrow=none;dashed=1;html=1;rounded=0;fontSize=12;startSize=8;endSize=8;curved=1;" edge="1" parent="1">
          <mxGeometry width="50" height="50" relative="1" as="geometry">
            <mxPoint x="320" y="1110" as="sourcePoint" />
            <mxPoint x="320" y="630" as="targetPoint" />
          </mxGeometry>
        </mxCell>
      </root>
    </mxGraphModel>
  </diagram>
</mxfile>
